<?xml version="1.0" encoding="UTF-8"?>
<svg width="374px" height="266px" viewBox="0 0 374 266" version="1.1" xmlns="http://www.w3.org/2000/svg" xmlns:xlink="http://www.w3.org/1999/xlink">
    <!-- Generator: Sketch 52.5 (67469) - http://www.bohemiancoding.com/sketch -->
    <title>Group 13</title>
    <desc>Created with Sketch.</desc>
    <defs>
        <path d="M10.292142,0.166643892 C10.8396487,0.074609012 11.7289432,-6.68640808e-25 12.2895631,-6.68640808e-25 L35.9417573,-6.68640808e-25 C36.4973959,-6.68640808e-25 37.3939706,0.0857137616 37.9246289,0.187665282 L46.3539416,1.80712772 C46.8934128,1.91077239 46.8870056,1.994793 46.3299869,1.994793 L0.417411738,1.994793 C-0.135289274,1.994793 -0.146921429,1.9214315 0.408006588,1.82814911 L10.292142,0.166643892 Z" id="path-1"></path>
        <filter x="-18.4%" y="-300.8%" width="136.8%" height="1002.3%" filterUnits="objectBoundingBox" id="filter-2">
            <feOffset dx="0" dy="3" in="SourceAlpha" result="shadowOffsetOuter1"></feOffset>
            <feGaussianBlur stdDeviation="2.5" in="shadowOffsetOuter1" result="shadowBlurOuter1"></feGaussianBlur>
            <feColorMatrix values="0 0 0 0 0   0 0 0 0 0   0 0 0 0 0  0 0 0 0.16052423 0" type="matrix" in="shadowBlurOuter1"></feColorMatrix>
        </filter>
        <path d="M14.7457181,0.344435332 C15.1684163,0.154208951 15.8850437,3.54978915e-18 16.3360676,7.8310697e-18 L30.4432344,1.41741353e-16 C30.898862,1.46066334e-16 31.6170689,0.153408153 32.0331821,0.336396774 L34.2833666,1.32593072 C34.7058429,1.51171753 34.6834229,1.6623275 34.2215214,1.6623275 L12.6440633,1.6623275 C12.1874309,1.6623275 12.1581423,1.50891935 12.5826198,1.31789217 L14.7457181,0.344435332 Z" id="path-3"></path>
        <filter x="-42.4%" y="-360.9%" width="185.0%" height="1182.8%" filterUnits="objectBoundingBox" id="filter-4">
            <feOffset dx="0" dy="3" in="SourceAlpha" result="shadowOffsetOuter1"></feOffset>
            <feGaussianBlur stdDeviation="2.5" in="shadowOffsetOuter1" result="shadowBlurOuter1"></feGaussianBlur>
            <feColorMatrix values="0 0 0 0 0   0 0 0 0 0   0 0 0 0 0  0 0 0 0.16 0" type="matrix" in="shadowBlurOuter1"></feColorMatrix>
        </filter>
        <linearGradient x1="50%" y1="0%" x2="50%" y2="100%" id="linearGradient-5">
            <stop stop-color="#8AD178" offset="0%"></stop>
            <stop stop-color="#52A443" offset="100%"></stop>
        </linearGradient>
        <linearGradient x1="50%" y1="0%" x2="50%" y2="100%" id="linearGradient-6">
            <stop stop-color="#7DC86B" offset="0%"></stop>
            <stop stop-color="#4DA13F" offset="100%"></stop>
        </linearGradient>
        <polygon id="path-7" points="0 132.55814 190 132.55814 190 0 0 0"></polygon>
    </defs>
    <g id="APP" stroke="none" stroke-width="1" fill="none" fill-rule="evenodd">
        <g id="00--Welcome" transform="translate(-1.000000, -305.000000)">
            <g id="Group-13" transform="translate(1.000000, 304.000000)">
                <g id="Group-13-Copy" transform="translate(0.000000, 0.500000)">
                    <g id="Group-15" transform="translate(0.000000, 0.500000)">
                        <polygon id="Fill-2" fill="#E4F4FD" points="158.457583 51.3828943 158.457583 158.943666 192.116714 158.943666 192.116714 37.1274925 158.457583 46.3545234"></polygon>
                        <g id="Page-1" transform="translate(279.585102, 93.832282) scale(-1, 1) translate(-279.585102, -93.832282) translate(238.085102, 27.832282)" fill="#E4F4FD">
                            <polygon id="Fill-2" points="21.5396352 47.9356508 5.48689093 47.9356508 5.48689093 61.0398002 0.135976187 61.0398002 0.135976187 100.352249 0.142825357 100.352249 0.142825357 126.560548 26.8905499 126.560548 26.8905499 61.0398002 21.5396352 61.0398002"></polygon>
                            <path d="M82.0371529,52.4515423 L76.6930873,52.4515423 L76.6930873,26.2432433 L65.9912578,26.2432433 L65.9912578,3.30993343 C65.9912578,1.50051248 64.7943652,0.0349443986 63.3149443,0.0349443986 C61.8372356,0.0349443986 60.640343,1.50051248 60.640343,3.30993343 L60.640343,26.2432433 L49.9316644,26.2432433 L49.9385135,52.4515423 L44.5807496,52.4515423 L44.5807496,131.076439 L82.0371529,131.076439 L82.0371529,104.86814 L82.044002,104.86814 L82.0371529,52.4515423 Z" id="Fill-3"></path>
                            <polygon id="Rectangle-124" points="52.355868 0 68.2913052 0 74.5955287 27.3964085 52.355868 27.3964085"></polygon>
                            <polygon id="Fill-4" points="12.4821103 45.8994675 23.1839398 45.8994675 23.1839398 59.003617 28.5348545 59.003617 28.5348545 131.076439 39.236684 131.076439 39.236684 6.58701913 12.4821103 6.58701913"></polygon>
                        </g>
                        <g id="Group-3" transform="translate(209.423472, 67.192890)">
                            <rect id="Rectangle-118" fill="#DAF0FB" x="5.55991518" y="9.29521002" width="29.1895547" height="75.8293449"></rect>
                            <rect id="Rectangle-118" fill="#DAF0FB" x="5.55991518" y="36.2023969" width="49.1125841" height="48.922158"></rect>
                            <path d="M57.1759438,85.0646742 L57.1759438,38.3154428 L59.1041224,38.3154428 L57.3927805,33.9629362 L38.54578,33.9629362 L38.54578,6.66437205 L40.8998481,6.66437205 L40.8998481,2.3118655 L19.4852787,2.3118655 L19.4852787,0 L3.63952048,0 L3.63952048,2.3118655 L0,2.3118655 L0,6.66437205 L2.35406809,6.66437205 L2.35406809,85.0646742 L0,85.0646742 L0,88.0598844 L59.9603493,88.0598844 L59.9603493,85.0646742 L57.1759438,85.0646742 Z M11.7058454,81.1524671 L8.10524435,81.1524671 L8.10524435,77.3459318 L11.7102934,77.3459318 L11.7102934,81.1524671 L11.7058454,81.1524671 Z M11.7058454,73.7319542 L8.10524435,73.7319542 L8.10524435,69.9254189 L11.7102934,69.9254189 L11.7102934,73.7319542 L11.7058454,73.7319542 Z M11.7058454,66.3067447 L8.10524435,66.3067447 L8.10524435,62.4990353 L11.7102934,62.4990353 L11.7102934,66.3067447 L11.7058454,66.3067447 Z M11.7058454,58.8850577 L8.10524435,58.8850577 L8.10524435,55.0832189 L11.7102934,55.0832189 L11.7102934,58.8850577 L11.7058454,58.8850577 Z M11.7058454,51.4645447 L8.10524435,51.4645447 L8.10524435,47.6580095 L11.7102934,47.6580095 L11.7102934,51.4645447 L11.7058454,51.4645447 Z M11.7058454,44.0393353 L8.10524435,44.0393353 L8.10524435,40.2328 L11.7102934,40.2328 L11.7102934,44.0393353 L11.7058454,44.0393353 Z M11.7058454,36.6188223 L8.10524435,36.6188223 L8.10524435,32.8111129 L11.7102934,32.8111129 L11.7102934,36.6188223 L11.7058454,36.6188223 Z M11.7058454,29.1971353 L8.10524435,29.1971353 L8.10524435,25.3906 L11.7102934,25.3906 L11.7102934,29.1971353 L11.7058454,29.1971353 Z M11.7058454,21.7719258 L8.10524435,21.7719258 L8.10524435,17.9653906 L11.7102934,17.9653906 L11.7102934,21.7719258 L11.7058454,21.7719258 Z M11.7058454,14.3514129 L8.10524435,14.3514129 L8.10524435,10.5437035 L11.7102934,10.5437035 L11.7102934,14.3514129 L11.7058454,14.3514129 Z M18.7391381,81.1524671 L15.1329771,81.1524671 L15.1329771,77.3459318 L18.7391381,77.3459318 L18.7391381,81.1524671 Z M18.7391381,73.7319542 L15.1329771,73.7319542 L15.1329771,69.9254189 L18.7391381,69.9254189 L18.7391381,73.7319542 Z M18.7391381,66.3067447 L15.1329771,66.3067447 L15.1329771,62.4990353 L18.7391381,62.4990353 L18.7391381,66.3067447 Z M18.7391381,58.8850577 L15.1329771,58.8850577 L15.1329771,55.0832189 L18.7391381,55.0832189 L18.7391381,58.8850577 Z M18.7391381,51.4645447 L15.1329771,51.4645447 L15.1329771,47.6580095 L18.7391381,47.6580095 L18.7391381,51.4645447 Z M18.7391381,44.0393353 L15.1329771,44.0393353 L15.1329771,40.2328 L18.7391381,40.2328 L18.7391381,44.0393353 Z M18.7391381,36.6188223 L15.1329771,36.6188223 L15.1329771,32.8111129 L18.7391381,32.8111129 L18.7391381,36.6188223 Z M18.7391381,29.1971353 L15.1329771,29.1971353 L15.1329771,25.3906 L18.7391381,25.3906 L18.7391381,29.1971353 Z M18.7391381,21.7719258 L15.1329771,21.7719258 L15.1329771,17.9653906 L18.7391381,17.9653906 L18.7391381,21.7719258 Z M18.7391381,14.3514129 L15.1329771,14.3514129 L15.1329771,10.5437035 L18.7391381,10.5437035 L18.7391381,14.3514129 Z M25.7668709,81.1524671 L22.1618219,81.1524671 L22.1618219,77.3459318 L25.7668709,77.3459318 L25.7668709,81.1524671 Z M25.7668709,73.7319542 L22.1618219,73.7319542 L22.1618219,69.9254189 L25.7668709,69.9254189 L25.7668709,73.7319542 Z M25.7668709,66.3067447 L22.1618219,66.3067447 L22.1618219,62.4990353 L25.7668709,62.4990353 L25.7668709,66.3067447 Z M25.7668709,58.8850577 L22.1618219,58.8850577 L22.1618219,55.0832189 L25.7668709,55.0832189 L25.7668709,58.8850577 Z M25.7668709,51.4645447 L22.1618219,51.4645447 L22.1618219,47.6580095 L25.7668709,47.6580095 L25.7668709,51.4645447 Z M25.7668709,44.0393353 L22.1618219,44.0393353 L22.1618219,40.2328 L25.7668709,40.2328 L25.7668709,44.0393353 Z M25.7668709,36.6188223 L22.1618219,36.6188223 L22.1618219,32.8111129 L25.7668709,32.8111129 L25.7668709,36.6188223 Z M25.7668709,29.1971353 L22.1618219,29.1971353 L22.1618219,25.3906 L25.7668709,25.3906 L25.7668709,29.1971353 Z M25.7668709,21.7719258 L22.1618219,21.7719258 L22.1618219,17.9653906 L25.7668709,17.9653906 L25.7668709,21.7719258 Z M25.7668709,14.3514129 L22.1618219,14.3514129 L22.1618219,10.5437035 L25.7668709,10.5437035 L25.7668709,14.3514129 Z M32.7990516,81.1524671 L29.1940026,81.1524671 L29.1940026,77.3459318 L32.7990516,77.3459318 L32.7990516,81.1524671 Z M32.7990516,73.7319542 L29.1940026,73.7319542 L29.1940026,69.9254189 L32.7990516,69.9254189 L32.7990516,73.7319542 Z M32.7990516,66.3067447 L29.1940026,66.3067447 L29.1940026,62.4990353 L32.7990516,62.4990353 L32.7990516,66.3067447 Z M32.7990516,58.8850577 L29.1940026,58.8850577 L29.1940026,55.0832189 L32.7990516,55.0832189 L32.7990516,58.8850577 Z M32.7990516,51.4645447 L29.1940026,51.4645447 L29.1940026,47.6580095 L32.7990516,47.6580095 L32.7990516,51.4645447 Z M32.7990516,44.0393353 L29.1940026,44.0393353 L29.1940026,40.2328 L32.7990516,40.2328 L32.7990516,44.0393353 Z M32.7990516,36.6188223 L29.1940026,36.6188223 L29.1940026,32.8111129 L32.7990516,32.8111129 L32.7990516,36.6188223 Z M32.7990516,29.1971353 L29.1940026,29.1971353 L29.1940026,25.3906 L32.7990516,25.3906 L32.7990516,29.1971353 Z M32.7990516,21.7719258 L29.1940026,21.7719258 L29.1940026,17.9653906 L32.7990516,17.9653906 L32.7990516,21.7719258 Z M32.7990516,14.3514129 L29.1940026,14.3514129 L29.1940026,10.5437035 L32.7990516,10.5437035 L32.7990516,14.3514129 Z M43.0415274,78.7220143 L38.7592807,78.7220143 L38.7592807,69.6823736 L43.0415274,69.6823736 L43.0415274,78.7220143 Z M43.0415274,65.1549214 L38.7592807,65.1549214 L38.7592807,56.1152808 L43.0415274,56.1152808 L43.0415274,65.1549214 Z M43.0415274,51.5925251 L38.7592807,51.5925251 L38.7592807,42.5481879 L43.0415274,42.5481879 L43.0415274,51.5925251 Z M51.6071327,78.7220143 L47.324886,78.7220143 L47.324886,69.6823736 L51.6071327,69.6823736 L51.6071327,78.7220143 Z M51.6071327,65.1549214 L47.324886,65.1549214 L47.324886,56.1152808 L51.6071327,56.1152808 L51.6071327,65.1549214 Z M51.6071327,51.5925251 L47.324886,51.5925251 L47.324886,42.5481879 L51.6071327,42.5481879 L51.6071327,51.5925251 Z" id="Page-1" fill="#D1ECF9"></path>
                        </g>
                        <g id="Page-1" transform="translate(62.549046, 30.767612)">
                            <polygon id="Rectangle-121" fill="#F2FAFC" points="0 7.3383237 23.8877884 7.3383237 47.7755768 69.263199 68.4383195 69.263199 68.4383195 74.6648147 47.7755768 74.6648147 0 74.6648147"></polygon>
                            <polygon id="Fill-2" fill="#E4F4FD" points="34.7791885 14.3397893 34.7791885 121.706 68.4383195 121.706 68.4383195 0.1101734 34.7791885 0.1101734"></polygon>
                            <polygon id="Fill-3" fill="#E4F4FD" points="1.77253644 121.706 35.4327392 121.706 35.4327392 24.6882999 1.77253644 60.9080867"></polygon>
                        </g>
                        <g id="Group" transform="translate(314.135208, 0.435874)">
                            <rect id="Rectangle-122" fill="#DAF0FB" x="35.2423702" y="36.6395737" width="22.4269628" height="120.796094"></rect>
                            <path d="M60.1564191,39.1136354 L60.1564191,37.3048427 L31.4324777,18.6659227 L31.4324777,161.443121 L60.1665689,161.443121 L60.1665689,159.925632 L58.2837805,159.925632 L58.2837805,158.064902 L60.1665689,158.064902 L60.1665689,156.204171 L58.2837805,156.204171 L58.2837805,154.350215 L60.1665689,154.350215 L60.1665689,152.489485 L58.2837805,152.489485 L58.2837805,150.628754 L60.1665689,150.628754 L60.1665689,148.768024 L58.2837805,148.768024 L58.2837805,146.905035 L60.1665689,146.905035 L60.1665689,145.044304 L58.2837805,145.044304 L58.2837805,143.183574 L60.1665689,143.183574 L60.1665689,141.322843 L58.2837805,141.322843 L58.2837805,139.471145 L60.1665689,139.471145 L60.1665689,137.626222 L58.2837805,137.626222 L58.2837805,135.765491 L60.1665689,135.765491 L60.1665689,133.895728 L58.2837805,133.895728 L58.2837805,132.041772 L60.1665689,132.041772 L60.1665689,130.181041 L58.2837805,130.181041 L58.2837805,128.329343 L60.1665689,128.329343 L60.1665689,126.468613 L58.2837805,126.468613 L58.2837805,124.607882 L60.1665689,124.607882 L60.1665689,122.753926 L58.2837805,122.753926 L58.2837805,120.893196 L60.1665689,120.893196 L60.1665689,119.041498 L58.2837805,119.041498 L58.2837805,117.171735 L60.1665689,117.171735 L60.1665689,115.317778 L58.2837805,115.317778 L58.2837805,113.457048 L60.1665689,113.457048 L60.1665689,111.596317 L58.2837805,111.596317 L58.2837805,109.735587 L60.1665689,109.735587 L60.1665689,107.872598 L58.2837805,107.872598 L58.2837805,106.0209 L60.1665689,106.0209 L60.1665689,104.169202 L58.2837805,104.169202 L58.2837805,102.306213 L60.1665689,102.306213 L60.1665689,100.43645 L58.2837805,100.43645 L58.2837805,98.5847523 L60.1665689,98.5847523 L60.1665689,96.7330544 L58.2837805,96.7330544 L58.2837805,94.8723239 L60.1665689,94.8723239 L60.1665689,93.0183678 L58.2837805,93.0183678 L58.2837805,91.1576372 L60.1665689,91.1576372 L60.1665689,89.2969067 L58.2837805,89.2969067 L58.2837805,87.4361761 L60.1665689,87.4361761 L60.1665689,85.58222 L58.2837805,85.58222 L58.2837805,83.7124568 L60.1665689,83.7124568 L60.1665689,81.8607589 L58.2837805,81.8607589 L58.2837805,80.0000283 L60.1665689,80.0000283 L60.1665689,78.1460722 L58.2837805,78.1460722 L58.2837805,76.2853417 L60.1665689,76.2853417 L60.1665689,74.4246111 L58.2837805,74.4246111 L58.2837805,72.5638805 L60.1665689,72.5638805 L60.1665689,70.7099245 L58.2837805,70.7099245 L58.2837805,68.8582266 L60.1665689,68.8582266 L60.1665689,66.997496 L58.2837805,66.997496 L58.2837805,65.1367654 L60.1665689,65.1367654 L60.1665689,63.2828093 L58.2837805,63.2828093 L58.2837805,61.4220788 L60.1665689,61.4220788 L60.1665689,59.5613482 L58.2837805,59.5613482 L58.2837805,57.7006176 L60.1665689,57.7006176 L60.1665689,55.8376289 L58.2837805,55.8376289 L58.2837805,53.9768983 L60.1665689,53.9768983 L60.1665689,52.1161678 L58.2837805,52.1161678 L58.2837805,50.2554372 L60.1665689,50.2554372 L60.1665689,48.4014811 L58.2837805,48.4014811 L58.2837805,46.5407505 L60.1665689,46.5407505 L60.1665689,44.68002 L58.2837805,44.68002 L58.2837805,42.8192894 L60.1665689,42.8192894 L60.1665689,40.9585588 L58.2837805,40.9585588 L58.2837805,39.0955701 L60.1564191,39.1136354 Z M55.814841,40.1456183 L35.555835,40.1456183 L35.555835,39.2197693 L55.814841,39.2197693 L55.814841,40.1456183 Z M55.814841,43.9664388 L35.555835,43.9664388 L35.555835,43.0383317 L55.814841,43.0383317 L55.814841,43.9664388 Z M55.814841,47.7759685 L35.555835,47.7759685 L35.555835,46.8501196 L55.814841,46.8501196 L55.814841,47.7759685 Z M55.814841,51.5945309 L35.555835,51.5945309 L35.555835,50.6596493 L55.814841,50.6596493 L55.814841,51.5945309 Z M55.814841,55.4063188 L35.555835,55.4063188 L35.555835,54.4804698 L55.814841,54.4804698 L55.814841,55.4063188 Z M55.814841,59.2248811 L35.555835,59.2248811 L35.555835,58.2990322 L55.814841,58.2990322 L55.814841,59.2248811 Z M55.814841,63.036669 L35.555835,63.036669 L35.555835,62.1108201 L55.814841,62.1108201 L55.814841,63.036669 Z M55.814841,66.8461987 L35.555835,66.8461987 L35.555835,65.9203498 L55.814841,65.9203498 L55.814841,66.8461987 Z M55.814841,70.6670193 L35.555835,70.6670193 L35.555835,69.7321376 L55.814841,69.7321376 L55.814841,70.6670193 Z M55.814841,74.476549 L35.555835,74.476549 L35.555835,73.5507 L55.814841,73.5507 L55.814841,74.476549 Z M55.814841,78.2973695 L35.555835,78.2973695 L35.555835,77.3624879 L55.814841,77.3624879 L55.814841,78.2973695 Z M55.814841,82.1068992 L35.555835,82.1068992 L35.555835,81.1720176 L55.814841,81.1720176 L55.814841,82.1068992 Z M55.814841,85.9186871 L35.555835,85.9186871 L35.555835,84.9838055 L55.814841,84.9838055 L55.814841,85.9186871 Z M55.814841,89.7282168 L35.555835,89.7282168 L35.555835,88.8023678 L55.814841,88.8023678 L55.814841,89.7282168 Z M55.814841,93.5490373 L35.555835,93.5490373 L35.555835,92.6141557 L55.814841,92.6141557 L55.814841,93.5490373 Z M55.814841,97.358567 L35.555835,97.358567 L35.555835,96.4327181 L55.814841,96.4327181 L55.814841,97.358567 Z M55.814841,101.177129 L35.555835,101.177129 L35.555835,100.242248 L55.814841,100.242248 L55.814841,101.177129 Z M55.814841,104.99795 L35.555835,104.99795 L35.555835,104.054036 L55.814841,104.054036 L55.814841,104.99795 Z M55.814841,108.80748 L35.555835,108.80748 L35.555835,107.872598 L55.814841,107.872598 L55.814841,108.80748 Z M55.814841,112.619268 L35.555835,112.619268 L35.555835,111.693419 L55.814841,111.693419 L55.814841,112.619268 Z M55.814841,116.428797 L35.555835,116.428797 L35.555835,115.502948 L55.814841,115.502948 L55.814841,116.428797 Z M55.814841,120.249618 L35.555835,120.249618 L35.555835,119.323769 L55.814841,119.323769 L55.814841,120.249618 Z M55.814841,124.059147 L35.555835,124.059147 L35.555835,123.133298 L55.814841,123.133298 L55.814841,124.059147 Z M55.814841,127.879968 L35.555835,127.879968 L35.555835,126.954119 L55.814841,126.954119 L55.814841,127.879968 Z M55.814841,131.689498 L35.555835,131.689498 L35.555835,130.754616 L55.814841,130.754616 L55.814841,131.689498 Z M55.814841,135.501286 L35.555835,135.501286 L35.555835,134.575437 L55.814841,134.575437 L55.814841,135.501286 Z M55.814841,139.319848 L35.555835,139.319848 L35.555835,138.393999 L55.814841,138.393999 L55.814841,139.319848 Z M55.814841,143.131636 L35.555835,143.131636 L35.555835,142.203529 L55.814841,142.203529 L55.814841,143.131636 Z M55.814841,146.941166 L35.555835,146.941166 L35.555835,146.015317 L55.814841,146.015317 L55.814841,146.941166 Z M55.814841,150.761986 L35.555835,150.761986 L35.555835,149.833879 L55.814841,149.833879 L55.814841,150.761986 Z M55.814841,154.580548 L35.555835,154.580548 L35.555835,153.645667 L55.814841,153.645667 L55.814841,154.580548 Z M55.814841,158.390078 L35.555835,158.390078 L35.555835,157.464229 L55.814841,157.464229 L55.814841,158.390078 Z" id="Fill-1" fill="#D1ECF9"></path>
                            <polygon id="Fill-2" fill="#D1ECF9" points="41.8588625 0.433472873 43.8304616 0.433472873 43.8304616 13.3569693 41.8588625 13.3569693"></polygon>
                            <polygon id="Fill-3" fill="#D1ECF9" points="44.8530542 36.891598 46.8246534 36.891598 46.8246534 160.596308 44.8530542 160.596308"></polygon>
                            <polygon id="Fill-4" fill="#D1ECF9" points="49.1032841 26.9330763 49.1032841 14.5650893 38.4180794 14.5650893 38.4180794 19.9982419"></polygon>
                            <g id="Group-8" transform="translate(0.000000, 36.691619)">
                                <rect id="Rectangle-122" fill="#DAF0FB" x="3.8446222" y="46.7979197" width="22.4269628" height="72.9929007"></rect>
                                <polygon id="Fill-5" fill="#D1ECF9" points="7.8214994 33.7615215 7.8214994 18.4544299 18.5067041 18.4544299 18.5067041 25.1799344"></polygon>
                                <polygon id="Fill-6" fill="#D1ECF9" points="12.2518882 0.229039653 14.2234874 0.229039653 14.2234874 16.2265716 12.2518882 16.2265716"></polygon>
                                <path d="M0.0112262968,122.590732 L0.0112262968,124.751503 L28.7351677,124.751503 L28.7351677,21.3587521 L0.0112262968,44.4312017 L0.0112262968,46.6674459 L1.89401468,46.6674459 L1.89401468,48.9735727 L0.0112262968,48.9735727 L0.0112262968,51.265723 L1.89401468,51.265723 L1.89401468,53.5690546 L0.0112262968,53.5690546 L0.0112262968,55.8723861 L1.89401468,55.8723861 L1.89401468,58.1785129 L0.0112262968,58.1785129 L0.0112262968,60.4706633 L1.89401468,60.4706633 L1.89401468,62.7739948 L0.0112262968,62.7739948 L0.0112262968,65.0773263 L1.89401468,65.0773263 L1.89401468,67.3834532 L0.0112262968,67.3834532 L0.0112262968,69.6867847 L1.89401468,69.6867847 L1.89401468,71.9901162 L0.0112262968,71.9901162 L0.0112262968,74.2934478 L1.89401468,74.2934478 L1.89401468,76.5967793 L0.0112262968,76.5967793 L0.0112262968,78.9029061 L1.89401468,78.9029061 L1.89401468,81.2062377 L0.0112262968,81.2062377 L0.0112262968,83.5095692 L1.89401468,83.5095692 L1.89401468,85.8129007 L0.0112262968,85.8129007 L0.0112262968,88.1190276 L1.89401468,88.1190276 L1.89401468,90.4223591 L0.0112262968,90.4223591 L0.0112262968,92.7256906 L1.89401468,92.7256906 L1.89401468,95.0290222 L0.0112262968,95.0290222 L0.0112262968,97.3323537 L1.89401468,97.3323537 L1.89401468,99.6272993 L0.0112262968,99.6272993 L0.0112262968,101.930631 L1.89401468,101.930631 L1.89401468,104.222781 L0.0112262968,104.222781 L0.0112262968,106.526113 L1.89401468,106.526113 L1.89401468,108.83224 L0.0112262968,108.83224 L0.0112262968,111.135571 L1.89401468,111.135571 L1.89401468,113.427721 L0.0112262968,113.427721 L0.0112262968,115.731053 L1.89401468,115.731053 L1.89401468,118.03718 L0.0112262968,118.03718 L0.0112262968,120.340511 L1.89401468,120.340511 L1.89401468,122.632662 L0.0112262968,122.632662 L0.0112262968,122.590732 Z M4.35280436,48.7862873 L24.6118104,48.7862873 L24.6118104,49.9435437 L4.35280436,49.9435437 L4.35280436,48.7862873 Z M4.35280436,53.5159438 L24.6118104,53.5159438 L24.6118104,54.6732002 L4.35280436,54.6732002 L4.35280436,53.5159438 Z M4.35280436,58.2316237 L24.6118104,58.2316237 L24.6118104,59.3776989 L4.35280436,59.3776989 L4.35280436,58.2316237 Z M4.35280436,62.950099 L24.6118104,62.950099 L24.6118104,64.0961742 L4.35280436,64.0961742 L4.35280436,62.950099 Z M4.35280436,67.6769602 L24.6118104,67.6769602 L24.6118104,68.8230354 L4.35280436,68.8230354 L4.35280436,67.6769602 Z M4.35280436,72.3954355 L24.6118104,72.3954355 L24.6118104,73.5415106 L4.35280436,73.5415106 L4.35280436,72.3954355 Z M4.35280436,77.1222967 L24.6118104,77.1222967 L24.6118104,78.2683718 L4.35280436,78.2683718 L4.35280436,77.1222967 Z M4.35280436,81.8379766 L24.6118104,81.8379766 L24.6118104,82.9868471 L4.35280436,82.9868471 L4.35280436,81.8379766 Z M4.35280436,86.5676331 L24.6118104,86.5676331 L24.6118104,87.7137083 L4.35280436,87.7137083 L4.35280436,86.5676331 Z M4.35280436,91.2833131 L24.6118104,91.2833131 L24.6118104,92.4321836 L4.35280436,92.4321836 L4.35280436,91.2833131 Z M4.35280436,96.0017884 L24.6118104,96.0017884 L24.6118104,97.1478635 L4.35280436,97.1478635 L4.35280436,96.0017884 Z M4.35280436,100.72865 L24.6118104,100.72865 L24.6118104,101.874725 L4.35280436,101.874725 L4.35280436,100.72865 Z M4.35280436,105.447125 L24.6118104,105.447125 L24.6118104,106.5932 L4.35280436,106.5932 L4.35280436,105.447125 Z M4.35280436,110.173986 L24.6118104,110.173986 L24.6118104,111.320061 L4.35280436,111.320061 L4.35280436,110.173986 Z M4.35280436,114.892461 L24.6118104,114.892461 L24.6118104,116.038536 L4.35280436,116.038536 L4.35280436,114.892461 Z M4.35280436,119.619323 L24.6118104,119.619323 L24.6118104,120.765398 L4.35280436,120.765398 L4.35280436,119.619323 Z" id="Fill-7" fill="#D1ECF9"></path>
                            </g>
                        </g>
                        <g id="Group-2" transform="translate(0.000000, 49.847254)">
                            <polygon id="Fill-1" fill="#D1ECF9" points="49.5759104 38.0107696 69.2634789 38.0107696 69.2634789 0.500141705 33.579761 0.500141705 33.579761 9.50269239 49.5759104 9.50269239"></polygon>
                            <rect id="Rectangle-112" fill="#DAF0FB" x="12.5098092" y="13.0137882" width="35.6761224" height="96.1888693"></rect>
                            <rect id="Rectangle-112" fill="#DAF0FB" x="49.5759104" y="40.1729983" width="35.6761224" height="69.0296591"></rect>
                            <path d="M10.2007733,9.50269239 L10.2007733,107.030325 L20.0445576,107.030325 L20.0445576,89.0252235 L33.579761,89.0252235 L33.579761,9.50269239 L10.2007733,9.50269239 Z M21.2750306,83.023523 L15.1226655,83.023523 L15.1226655,74.0209723 L21.2750306,74.0209723 L21.2750306,83.023523 Z M21.2750306,71.0201221 L15.1226655,71.0201221 L15.1226655,63.5179965 L21.2750306,63.5179965 L21.2750306,71.0201221 Z M21.2750306,60.5171463 L15.1226655,60.5171463 L15.1226655,51.5145956 L21.2750306,51.5145956 L21.2750306,60.5171463 Z M21.2750306,48.5137454 L15.1226655,48.5137454 L15.1226655,39.5111947 L21.2750306,39.5111947 L21.2750306,48.5137454 Z M21.2750306,36.5103445 L15.1226655,36.5103445 L15.1226655,27.5077938 L21.2750306,27.5077938 L21.2750306,36.5103445 Z M21.2750306,24.5069435 L15.1226655,24.5069435 L15.1226655,17.004818 L21.2750306,17.004818 L21.2750306,24.5069435 Z M32.3492879,83.023523 L26.1969228,83.023523 L26.1969228,74.0209723 L32.3492879,74.0209723 L32.3492879,83.023523 Z M32.3492879,71.0201221 L26.1969228,71.0201221 L26.1969228,63.5179965 L32.3492879,63.5179965 L32.3492879,71.0201221 Z M32.3492879,60.5171463 L26.1969228,60.5171463 L26.1969228,51.5145956 L32.3492879,51.5145956 L32.3492879,60.5171463 Z M32.3492879,48.5137454 L26.1969228,48.5137454 L26.1969228,39.5111947 L32.3492879,39.5111947 L32.3492879,48.5137454 Z M32.3492879,36.5103445 L26.1969228,36.5103445 L26.1969228,27.5077938 L32.3492879,27.5077938 L32.3492879,36.5103445 Z M26.1969228,24.5069435 L26.1969228,17.004818 L32.3492879,17.004818 L32.3492879,24.5069435 L26.1969228,24.5069435 Z" id="Fill-2" fill="#D1ECF9"></path>
                            <path d="M38.5016531,107.030325 L48.3454373,107.030325 L48.3454373,38.0107696 L49.5759104,38.0107696 L49.5759104,9.50269239 L33.579761,9.50269239 L33.579761,89.0252235 L38.5016531,89.0252235 L38.5016531,107.030325 Z M37.2711801,17.004818 L44.6540182,17.004818 L44.6540182,24.5069435 L37.2711801,24.5069435 L37.2711801,17.004818 Z M37.2711801,27.5077938 L44.6540182,27.5077938 L44.6540182,36.5103445 L37.2711801,36.5103445 L37.2711801,27.5077938 Z M37.2711801,39.5111947 L44.6540182,39.5111947 L44.6540182,48.5137454 L37.2711801,48.5137454 L37.2711801,39.5111947 Z M37.2711801,51.5145956 L44.6540182,51.5145956 L44.6540182,60.5171463 L37.2711801,60.5171463 L37.2711801,51.5145956 Z M37.2711801,63.5179965 L44.6540182,63.5179965 L44.6540182,71.0201221 L37.2711801,71.0201221 L37.2711801,63.5179965 Z M37.2711801,83.023523 L37.2711801,74.0209723 L44.6540182,74.0209723 L44.6540182,83.023523 L37.2711801,83.023523 Z" id="Fill-3" fill="#D1ECF9"></path>
                            <path d="M69.2634789,38.0107696 L69.2634789,47.0133203 L72.954898,47.0133203 L72.954898,56.0158709 L69.2634789,56.0158709 L69.2634789,60.5171463 L72.954898,60.5171463 L72.954898,69.519697 L69.2634789,69.519697 L69.2634789,72.5205472 L72.954898,72.5205472 L72.954898,81.5230979 L69.2634789,81.5230979 L69.2634789,86.0243732 L74.185371,86.0243732 L74.185371,107.030325 L88.9510474,107.030325 L88.9510474,38.0107696 L69.2634789,38.0107696 Z M85.2596283,95.0269239 L77.8767901,95.0269239 L77.8767901,86.0243732 L85.2596283,86.0243732 L85.2596283,95.0269239 Z M85.2596283,81.5230979 L77.8767901,81.5230979 L77.8767901,72.5205472 L85.2596283,72.5205472 L85.2596283,81.5230979 Z M85.2596283,69.519697 L77.8767901,69.519697 L77.8767901,60.5171463 L85.2596283,60.5171463 L85.2596283,69.519697 Z M85.2596283,56.0158709 L77.8767901,56.0158709 L77.8767901,47.0133203 L85.2596283,47.0133203 L85.2596283,56.0158709 Z" id="Fill-4" fill="#D1ECF9"></path>
                            <path d="M65.5720598,81.5230979 L65.5720598,72.5205472 L69.2634789,72.5205472 L69.2634789,69.519697 L65.5720598,69.519697 L65.5720598,60.5171463 L69.2634789,60.5171463 L69.2634789,56.0158709 L65.5720598,56.0158709 L65.5720598,47.0133203 L69.2634789,47.0133203 L69.2634789,38.0107696 L49.5759104,38.0107696 L49.5759104,107.030325 L64.3415868,107.030325 L64.3415868,86.0243732 L69.2634789,86.0243732 L69.2634789,81.5230979 L65.5720598,81.5230979 Z M60.6501677,95.0269239 L53.2673295,95.0269239 L53.2673295,86.0243732 L60.6501677,86.0243732 L60.6501677,95.0269239 Z M60.6501677,81.5230979 L53.2673295,81.5230979 L53.2673295,72.5205472 L60.6501677,72.5205472 L60.6501677,81.5230979 Z M60.6501677,69.519697 L53.2673295,69.519697 L53.2673295,60.5171463 L60.6501677,60.5171463 L60.6501677,69.519697 Z M60.6501677,56.0158709 L53.2673295,56.0158709 L53.2673295,47.0133203 L60.6501677,47.0133203 L60.6501677,56.0158709 Z" id="Fill-5" fill="#D1ECF9"></path>
                            <polygon id="Fill-6" fill="#D1ECF9" points="48.3454373 38.0107696 49.5759104 38.0107696 49.5759104 107.030325 48.3454373 107.030325"></polygon>
                            <polygon id="Fill-7" fill="#D1ECF9" points="0.35698909 106.148075 98.7948317 106.148075 98.7948317 112.001733 0.35698909 112.001733"></polygon>
                        </g>
                        <g id="Group-4" transform="translate(126.951397, 28.810726)">
                            <rect id="Rectangle-117" fill="#DAF0FB" x="3.9143081" y="45.2401219" width="25.7225961" height="67.5664159"></rect>
                            <path d="M29.1810465,34.1096157 L25.9396303,34.1096157 L25.9396303,20.4657694 L19.4547227,20.4657694 L19.4547227,3.40987007 C19.4547227,1.52592777 18.0041786,0 16.2112314,0 C14.4203593,0 12.9698152,1.52592777 12.9698152,3.40987007 L12.9698152,20.4657694 L6.48490758,20.4657694 L6.48490758,34.1096157 L3.2414162,34.1096157 L3.2414162,40.9315389 L0,40.9315389 L0,95.5069241 L0.0083006817,95.5069241 L0.0083006817,122.794617 L32.4328386,122.794617 L32.4328386,40.9315389 L29.1810465,40.9315389 L29.1810465,34.1096157 Z M12.9698152,109.15077 L6.48490758,109.15077 L6.48490758,102.328847 L12.9698152,102.328847 L12.9698152,109.15077 Z M12.9698152,95.5069241 L6.48490758,95.5069241 L6.48490758,88.6850009 L12.9698152,88.6850009 L12.9698152,95.5069241 Z M12.9698152,81.8630778 L6.48490758,81.8630778 L6.48490758,75.0411546 L12.9698152,75.0411546 L12.9698152,81.8630778 Z M12.9698152,68.2192315 L6.48490758,68.2192315 L6.48490758,61.3973083 L12.9698152,61.3973083 L12.9698152,68.2192315 Z M12.9698152,54.5753852 L6.48490758,54.5753852 L6.48490758,47.753462 L12.9698152,47.753462 L12.9698152,54.5753852 Z M25.9396303,109.15077 L19.4547227,109.15077 L19.4547227,102.328847 L25.9396303,102.328847 L25.9396303,109.15077 Z M25.9396303,95.5069241 L19.4547227,95.5069241 L19.4547227,88.6850009 L25.9396303,88.6850009 L25.9396303,95.5069241 Z M25.9396303,81.8630778 L19.4547227,81.8630778 L19.4547227,75.0411546 L25.9396303,75.0411546 L25.9396303,81.8630778 Z M25.9396303,68.2192315 L19.4547227,68.2192315 L19.4547227,61.3973083 L25.9396303,61.3973083 L25.9396303,68.2192315 Z M25.9396303,54.5753852 L19.4547227,54.5753852 L19.4547227,47.753462 L25.9396303,47.753462 L25.9396303,54.5753852 Z" id="Fill-1" fill="#D1ECF9"></path>
                        </g>
                    </g>
                    <g id="Group-5" transform="translate(90.000000, 116.500000)">
                        <polygon id="Path" fill="#564131" points="4.31540445 35 8.69040445 35 8.69040445 28.4377333 4.31540445 28.4377333"></polygon>
                        <path d="M0.669337783,21.875 L0.0664044498,23.7379333 C-0.26539555,24.934 0.708071116,26.25 1.61387112,26.25 L10.9070711,26.25 C10.9070711,26.25 10.1212044,26.0442 10.1212044,24.3707333 C10.1212044,23.2092 10.9070711,21.875 10.9070711,21.875 L0.669337783,21.875 Z" id="Path" fill="#85C86F"></path>
                        <polygon id="Path" fill="#85C86F" points="2.78053778 15.3122667 1.37493778 19.6877333 11.6929378 19.6877333 10.2836044 15.3122667"></polygon>
                        <path d="M8.17287112,8.75 C7.73700445,7.5544 7.43787112,6.56226667 6.53207112,6.56226667 C5.62627112,6.56226667 5.33087112,7.48486667 4.89500445,8.75 L3.48613778,13.125 L9.58173778,13.125 L8.17287112,8.75 Z" id="Path" fill="#85C86F"></path>
                        <polygon id="Path" fill="#564131" points="21.8154044 35 26.1904044 35 26.1904044 28.4377333 21.8154044 28.4377333"></polygon>
                        <path d="M34.6963378,24.0622667 L33.8465378,21.875 L14.1830711,21.875 L13.3332711,24.0622667 C12.8213378,25.1906667 13.5264711,26.25 14.7351378,26.25 L33.3290044,26.25 C34.5376711,26.25 35.3104711,25.2583333 34.6963378,24.0622667 L34.6963378,24.0622667 Z" id="Path" fill="#85C86F"></path>
                        <polygon id="Path" fill="#85C86F" points="31.3036711 15.3122667 16.7385378 15.3122667 15.0342711 19.6877333 33.0009378 19.6877333"></polygon>
                        <polygon id="Path" fill="#85C86F" points="28.7626711 8.75 19.2907378 8.75 17.5897378 13.125 30.4594711 13.125"></polygon>
                        <path d="M27.9147378,6.56226667 L20.1400711,6.56226667 L21.8448044,2.18773333 C22.3310711,0.999133333 23.3484044,0 24.0320711,0 C24.7157378,0 25.6728711,0.854933333 26.2193378,2.18773333 L27.9147378,6.56226667 Z" id="Page-1" fill="#85C86F"></path>
                    </g>
                    <g id="Group-7" transform="translate(248.000000, 118.500000)">
                        <path d="M11.3633939,15.3122667 C11.3633939,14.2314667 11.5810909,12.8389333 11.961697,11.3222667 C10.7156364,8.75 8.87272727,6.56226667 6.81793939,6.56226667 C3.04921212,6.56226667 0,13.8777333 0,17.5 C0,21.1274 3.04921212,24.0622667 6.81793939,24.0622667 C9.42787879,24.0622667 11.670303,22.6352 12.8140606,20.559 C11.9185455,18.9947333 11.3633939,17.2228 11.3633939,15.3122667 L11.3633939,15.3122667 Z" id="Path" fill="#85C86F"></path>
                        <path d="M4.5449697,26.0787333 L4.5449697,35 L9.09090909,35 L9.09090909,26.0787333 C8.34424242,26.1823333 7.59078788,26.25 6.81793939,26.25 C6.04509091,26.25 5.29163636,26.1823333 4.5449697,26.0787333 L4.5449697,26.0787333 Z" id="Path" fill="#564131"></path>
                        <path d="M22.7267879,0 C18.1818182,0 13.6358788,10.4799333 13.6358788,15.3122667 C13.6358788,20.1450667 17.7061818,24.0622667 22.7267879,24.0622667 C27.7478788,24.0622667 31.817697,20.1450667 31.817697,15.3122667 C31.817697,10.4799333 27.2727273,0 22.7267879,0 L22.7267879,0 Z" id="Path" fill="#85C86F"></path>
                        <path d="M22.7267879,26.25 C23.4996364,26.25 24.2535758,26.1823333 24.9997576,26.0787333 L24.9997576,35 L20.454303,35 L20.454303,26.0787333 C21.2004848,26.1823333 21.9544242,26.25 22.7267879,26.25 L22.7267879,26.25 Z" id="Path" fill="#564131"></path>
                    </g>
                    <g id="Group-6" transform="translate(305.000000, 119.500000)">
                        <path d="M26.17823,0 C21.80323,0 17.42823,10.6046944 17.42823,15.4945556 C17.42823,20.3848889 21.3458966,24.3487222 26.17823,24.3487222 C31.0105633,24.3487222 34.92823,20.3848889 34.92823,15.4945556 C34.92823,10.6046944 30.55323,0 26.17823,0 L26.17823,0 Z" id="Path" fill="#85C86F"></path>
                        <path d="M23.9904966,26.3891944 L23.9904966,39.5850278 L28.3659633,39.5850278 L28.3659633,26.3891944 C27.6472966,26.5424337 26.9220966,26.6425224 26.17823,26.6425224 C25.4343633,26.6425224 24.7091633,26.5424337 23.9904966,26.3891944 L23.9904966,26.3891944 Z" id="Path" fill="#564131"></path>
                        <path d="M16.3254966,10.76525 L15.59423,8.85416667 L6.12229663,8.85416667 L4.42176329,13.28125 L15.4574966,13.28125 C15.6380966,12.3939444 15.94983,11.56 16.3254966,10.76525 L16.3254966,10.76525 Z" id="Path" fill="#85C86F"></path>
                        <path d="M15.2404966,15.4945556 L3.57242996,15.4945556 L1.86769663,19.9221111 L16.1630966,19.9221111 C15.5778966,18.564 15.2404966,17.0736667 15.2404966,15.4945556 L15.2404966,15.4945556 Z" id="Path" fill="#85C86F"></path>
                        <path d="M17.47583,22.1354167 L1.01836329,22.1354167 L0.16902996,24.3487222 C-0.34337004,25.4905556 0.36222996,26.5625 1.57089663,26.5625 L20.1642966,26.5625 C20.9244966,26.5625 21.51343,26.1658333 21.6902966,25.5684722 C20.0074966,24.7992222 18.5785633,23.6054444 17.47583,22.1354167 L17.47583,22.1354167 Z" id="Path" fill="#85C86F"></path>
                        <polygon id="Path" fill="#564131" points="8.67822996 35.4166667 13.05323 35.4166667 13.05323 28.7762778 8.67822996 28.7762778"></polygon>
                        <path d="M14.7504966,6.64038889 L6.97396329,6.64038889 L8.67822996,2.21377778 C9.16496329,1.01102778 10.1822966,0 10.8659633,0 C11.5491633,0 12.5062966,0.865111111 13.05323,2.21377778 L14.7504966,6.64038889 Z" id="Path" fill="#85C86F"></path>
                    </g>
                    <path d="M24,160.508062 C24,160.508062 41.8152749,154.406428 91.4483713,151.274309 C141.081468,148.142189 164.140867,155.523958 198.373469,155.523958 C227.293372,155.523958 252.547159,148.592947 298.392931,151.274309 C344.238702,153.95567 372,160.508062 372,160.508062 L372,164.5 L24,164.5 L24,160.508062 Z" id="Rectangle-120" fill="#85C86F"></path>
                    <g id="Group-14" transform="translate(169.000000, 199.500000)" fill="black" fill-opacity="1">
                        <g id="Group-11" transform="translate(0.735537, 0.373339)">
                            <g id="Rectangle-125">
                                <use filter="url(#filter-2)" xlink:href="#path-1"></use>
                            </g>
                            <g id="Rectangle-125">
                                <use filter="url(#filter-4)" xlink:href="#path-3"></use>
                            </g>
                        </g>
                    </g>
                </g>
                <g id="Group-10" transform="translate(99.000000, 85.000000)">
                    <g id="Group-12" transform="translate(57.347107, 6.324655)" stroke="#469A36" stroke-width="2.88">
                        <ellipse id="Oval-58" cx="36.8181818" cy="36.571205" rx="36.8181818" ry="36.571205"></ellipse>
                    </g>
                    <g id="Group-9">
                        <path d="M54,43.119392 C54,46.8363918 54.51408,50.4307073 55.4604545,53.8443124 C55.8376691,55.2104175 56.2883236,56.5516543 56.80908,57.8531016 L58.0358618,60.6184698 L94.3903309,114.043477 L130.791535,60.520654 L131.893135,58.0271805 C132.440596,56.6677069 132.916287,55.2684438 133.313531,53.8376808 C134.266582,50.4240757 134.773985,46.8314181 134.773985,43.1127604 C134.780662,20.9583146 116.694393,3 94.3903309,3 C72.0862691,3 54,20.9583146 54,43.119392 Z" id="Page-1" stroke="url(#linearGradient-6)" stroke-width="10.08" fill="url(#linearGradient-5)"></path>
                        <ellipse id="Oval-56" fill="#FFFFFF" cx="94.1652893" cy="43.560791" rx="36.1487603" ry="35.906274"></ellipse>
                        <g id="Logo">
                            <g id="g10" transform="translate(95.000000, 91.558140) scale(-1, 1) rotate(-180.000000) translate(-95.000000, -91.558140) translate(0.000000, 0.558140)">
                                <g id="g12">
                                    <g id="g14-Clipped" transform="translate(0.000000, 49.000000)">
                                        <mask id="mask-8" fill="white">
                                            <use xlink:href="#path-7"></use>
                                        </mask>
                                        <g id="path16"></g>
                                        <g id="g14" mask="url(#mask-8)">
                                            <g transform="translate(58.973856, 55.289879)" id="Group">
                                                <g transform="translate(0.232558, 0.372093)">
                                                    <g id="g20" transform="translate(0.528778, 7.373064)" fill="#099C4A">
                                                        <path d="M45.9477124,30.4945955 C42.5469608,28.2669342 37.3548693,28.1841631 33.8910948,29.9108418 C38.3539216,33.3548641 40.5951144,37.5898788 40.579281,42.5443171 C40.5730719,50.4197019 36.6693791,56.2808877 36.4222549,56.6309532 C35.4045752,54.2287258 32.1084477,52.4102522 30.0103758,51.19887 C27.520817,49.7659351 23.2178758,47.737111 20.9192484,45.2405994 C16.8218301,40.7899443 17.4104575,33.5711268 19.9605556,29.8921716 C20.0540033,29.7571241 20.1362745,29.6578611 20.3275163,29.4163937 C23.4109804,31.6284966 30.8299837,39.1920897 33.6967484,47.1969211 C32.8653431,39.7702424 28.5530882,33.5736161 24.3184477,29.8333606 C22.1464869,27.9112676 19.8702124,26.1039961 17.7389216,24.1370947 C14.9997549,21.6103996 13.1876144,18.494661 12.3459641,14.8390436 C10.7381046,8.39503767 14.688366,0.121978382 14.6135458,0.0622338683 C14.5821895,0.0802816901 14.5511438,0.0989518506 14.5151307,0.116377334 C7.43017974,5.1924828 2.27254902,12.9745169 0.717156863,22.2635441 C0.57248366,23.1261055 0.461029412,23.9892892 0.382794118,24.8484278 C0.356405229,25.1462168 0.330326797,25.4433836 0.313251634,25.7424173 C0.289035948,26.195791 0.271029412,26.6407632 0.256748366,27.0910252 C0.124493464,33.0492958 1.57122549,38.8252211 4.58204248,44.392663 C5.8549183,46.7385686 7.31965686,48.8666557 8.9775,50.7682116 C9.03245098,50.8338683 9.08802288,50.8951687 9.14390523,50.956469 C12.9054085,55.2163773 17.6401961,58.3286931 23.2836928,60.2875041 C25.0002124,60.8830822 26.7154902,61.3177858 28.4434967,61.5944153 C30.8032843,61.9759089 33.176732,62.0555683 35.5892974,61.8296594 C39.0089869,61.5094661 42.3433007,60.4222404 45.1150654,58.3893711 C47.0330719,56.9828857 48.8368301,55.0953325 50.1562745,52.6626105 C53.9854575,45.6034229 53.9904248,35.7717163 45.9477124,30.4945955" id="path22"></path>
                                                    </g>
                                                    <g id="g24" transform="translate(16.766855, 0.872706)" fill="#8CC63F">
                                                        <path d="M6.83006536,31.7392728 C10.230817,33.9669342 15.423219,34.0497052 18.8869935,32.3230265 C14.4241667,28.8790043 12.1829739,24.6439895 12.1984967,19.6895513 C12.2047059,11.8141664 16.1087092,5.95298067 16.3555229,5.60291517 C17.3735131,8.00514248 20.6693301,9.82361612 22.7677124,11.0349984 C25.2569608,12.4679332 29.559902,14.4967573 31.8585294,16.9932689 C35.9562582,21.443924 35.3676307,28.6627416 32.8172222,32.3416967 C32.724085,32.4767442 32.6418137,32.5760072 32.4505719,32.8174746 C29.3671078,30.6056829 21.9477941,23.0420897 19.0810294,15.0369473 C19.9124346,22.4636259 24.2246895,28.6602522 28.4593301,32.4008189 C30.6316013,34.3226007 32.9075654,36.1298723 35.0391667,38.0970848 C37.7783333,40.6234687 39.5901634,43.7392073 40.4321242,47.3948248 C42.0396732,53.8391418 39.3837092,59.7498035 38.7007026,61.5377825 C38.7320588,61.5194235 48.5332026,55.6890436 52.0609314,39.9703243 C52.2524837,39.1170979 52.3170588,38.2448903 52.3952941,37.3854406 C52.4213725,37.0879627 52.4477614,36.7904848 52.4645261,36.491451 C52.4887418,36.0380773 52.5070588,35.5931051 52.5213399,35.1428431 C52.6532843,29.1845726 51.2065523,23.4089584 48.1957353,17.8415165 C46.9228595,15.4952997 45.4581209,13.3672126 43.8002778,11.4656567 C43.7453268,11.4 43.6900654,11.3386996 43.634183,11.2773993 C39.8726797,7.01780216 35.1375817,3.90517524 29.4943954,1.94636423 C27.7775654,1.35109728 26.0622876,0.916082542 24.3345915,0.639764166 C21.9748039,0.257959384 19.6010458,0.178300033 17.1887908,0.404208975 C13.7687908,0.724402227 10.4347876,1.81162791 7.66271242,3.84449722 C5.74470588,5.25098264 3.94125817,7.13853587 2.62150327,9.57156895 C-1.20767974,16.6307566 -1.21264706,26.462152 6.83006536,31.7392728" id="path26"></path>
                                                    </g>
                                                </g>
                                            </g>
                                        </g>
                                    </g>
                                    <g id="text" transform="translate(22.973856, 0.289879)" fill="#099C4A">
                                        <g id="g28" transform="translate(0.037752, 18.017525)">
                                            <path d="M12.1078431,21.4706846 C15.4151471,21.4706846 17.8156046,19.3475762 17.8156046,16.421962 C17.8156046,15.8883066 18.2341013,15.4542254 18.7491503,15.4542254 C19.6190523,15.4542254 20.6978922,15.9965935 21.4342974,16.8034556 C22.0878105,17.5191451 22.405719,18.3782837 22.3305882,19.2243531 C22.2172712,20.4761874 21.3107353,21.515493 20.6389052,22.1882411 C19.1955882,23.6354897 15.7687582,24.6859974 12.4909477,24.6859974 C4.82513072,24.6859974 0.0624019608,20.0601539 0.0624019608,12.6129381 C0.0624019608,5.41372421 5.58482026,0.188257452 13.1932026,0.188257452 C17.8984967,0.188257452 21.725817,2.14426793 21.725817,4.54836227 C21.725817,5.02071733 21.3430229,5.41963642 20.8888235,5.41963642 C20.6742974,5.41963642 20.4815033,5.32130691 20.0586601,5.10504422 C19.0990359,4.61495251 17.1015523,3.59556174 14.3744935,3.59556174 C8.64096405,3.59556174 5.21785948,7.52874222 5.21785948,14.1174419 C5.21785948,18.5845889 7.92256536,21.4706846 12.1078431,21.4706846" id="path30"></path>
                                        </g>
                                        <g id="g32" transform="translate(22.662188, 18.495824)">
                                            <path d="M21.1111111,2.80052407 C21.0713725,2.80052407 21.0288399,2.79896823 20.9689216,2.79367835 C20.8726797,2.78247625 20.7838889,2.77749754 20.7016176,2.77749754 C20.1157843,2.77749754 19.9847712,2.93837209 19.9323039,4.64513593 L19.9205065,4.99800197 L19.9205065,22.0563053 C19.9205065,24.1759908 17.8171569,24.1759908 16.5601144,24.1759908 C14.728415,24.1759908 12.8805719,23.6295775 12.8805719,22.408549 C12.8805719,21.9968719 13.0867157,21.6717 13.4462255,21.5161153 C13.6952124,21.4087619 13.9733824,21.3994268 14.2146078,21.3994268 L14.4989869,21.401605 C14.5877778,21.401605 14.8591176,21.401605 14.9432516,21.3549296 C15.2388072,21.1831641 15.3710621,20.7381919 15.3710621,19.9120373 L15.3710621,14.2864068 L7.24359477,14.2864068 L7.24359477,22.0563053 C7.24359477,22.6932689 6.91326797,24.1759908 3.85184641,24.1759908 C2.66155229,24.1759908 0.204281046,23.7359974 0.204281046,22.3758762 C0.204281046,21.4523256 1.04779412,21.3947593 1.40792484,21.3701769 C1.64418301,21.3539961 1.88820261,21.3371929 2.07199346,21.2285948 C2.37344771,21.0509171 2.69477124,20.7780216 2.69477124,19.7838356 L2.69477124,2.30981002 C2.69477124,1.26988208 3.26104575,0.0301834261 5.95923203,0.0301834261 C7.35256536,0.0301834261 9.40810458,0.591221749 9.44629085,1.79575827 C9.46926471,2.04967245 9.39351307,2.28927285 9.23176471,2.4734851 C9.04580065,2.68476908 8.76328431,2.80052407 8.43419935,2.80052407 C8.39415033,2.80052407 8.35223856,2.79896823 8.29045752,2.79367835 C8.16472222,2.77905339 8.0501634,2.77034065 7.94522876,2.77034065 C7.52300654,2.77034065 7.24359477,2.77034065 7.24359477,5.03036358 L7.24390523,11.4233377 L15.3710621,11.4233377 L15.3710621,2.30981002 C15.3710621,1.26988208 15.9373366,0.0301834261 18.6355229,0.0301834261 C19.9844608,0.0301834261 22.1235131,0.527120865 22.1235131,1.86172617 C22.1235131,2.31447756 21.8071569,2.80052407 21.1111111,2.80052407" id="path34"></path>
                                        </g>
                                        <g id="g36" transform="translate(77.802951, 18.121145)">
                                            <path d="M20.4901961,24.582378 C19.2679248,24.582378 16.0497222,23.4553226 15.9814216,22.0914674 C15.9444771,21.7774975 16.0546895,21.5727481 16.1562092,21.4548149 C16.394951,21.1772519 16.7466993,21.1760072 16.8649837,21.1760072 L16.8665359,21.1760072 C16.9708497,21.1760072 17.0888235,21.1856535 17.2111438,21.1974779 C17.3073856,21.2058795 17.4073529,21.2164592 17.5029739,21.2164592 C17.5551307,21.2164592 17.5883497,21.2130364 17.608219,21.2093023 C17.9124673,20.4382247 16.2055719,16.5150016 15.470719,14.8259745 L15.2288725,14.268359 C13.8302614,11.0847855 12.7060948,8.56057976 12.1401307,7.30812316 C11.0336601,10.6849329 7.3895098,21.767229 6.79281046,23.3050278 C6.49415033,24.0655257 5.80245098,24.4846708 4.84531046,24.4846708 C4.38272876,24.4846708 3.85029412,24.3826073 3.36691176,24.2043072 C3.33617647,24.194661 0.302385621,23.1982968 0.302385621,21.5985752 C0.302385621,21.1844088 0.522189542,20.9787258 0.653202614,20.8937766 C0.845996732,20.767753 1.06021242,20.7512611 1.22568627,20.7512611 C1.28498366,20.7512611 1.35017974,20.7534392 1.41879085,20.7562398 C1.48150327,20.7590403 1.54918301,20.7618408 1.62027778,20.7618408 C1.80313725,20.7618408 2.01735294,20.7444153 2.22101307,20.6190141 C2.68856209,20.3258926 2.9654902,19.4126105 3.16728758,18.7457746 C3.21416667,18.5923682 3.25763072,18.4479856 3.30388889,18.3101376 C3.58485294,17.5138552 3.87606209,16.7082378 4.18465686,15.8547003 C4.85183007,14.0063544 5.60779412,11.9115624 6.52550654,9.19847691 C6.81919935,8.31973469 7.08495098,7.51847363 7.32710784,6.7890927 C9.01196078,1.71174255 9.39196078,0.627317393 10.0675163,0.348198493 C10.4754575,0.185145758 11.0870588,0.167097936 11.330768,0.167097936 C11.7365359,0.167097936 12.4987092,0.210350475 13.040768,0.494759253 C13.6446078,0.797215853 14.0472712,1.14945955 14.0472712,1.88444153 C14.0472712,2.04158205 14.045098,2.17818539 14.0429248,2.30078611 C14.0311275,3.00371765 14.0286438,3.13098592 14.6616667,4.42576155 C15.4784804,6.09611857 18.2480719,12.4150344 18.9909967,14.3576646 L19.4455065,15.5167704 C20.8422549,19.0647232 21.9977778,22.0839993 21.9977778,23.1030789 C21.9977778,24.0434327 21.448268,24.582378 20.4901961,24.582378" id="path38"></path>
                                        </g>
                                        <g id="g40" transform="translate(101.508990, 18.459044)">
                                            <path d="M7.14052288,2.80052407 C7.05204248,2.85933508 6.96635621,2.91472322 6.88905229,2.97602358 C6.52333333,3.25732067 6.24236928,3.58964953 6.24236928,5.06708156 L6.24236928,22.0930233 C6.24236928,23.9149198 4.53236928,24.1868818 2.85093137,24.21302 C2.13843137,24.21302 0.244640523,24.21302 0.0726470588,22.9521618 C-0.0273202614,22.3509826 0.482761438,21.9458402 0.819607843,21.6782345 C0.907156863,21.6091549 0.991911765,21.5434982 1.05648693,21.478775 C1.58674837,20.9479201 1.69385621,20.7335244 1.69385621,20.2048477 L1.69385621,2.34652801 C1.69385621,1.30535539 2.19338235,0.0650343924 4.57552288,0.0650343924 L4.73478758,0.0669014085 C6.76704248,0.0669014085 7.93684641,0.596200459 8.02936275,1.56518179 C8.07965686,2.1791189 7.53697712,2.53820832 7.14052288,2.80052407" id="path42"></path>
                                        </g>
                                        <g id="g44" transform="translate(111.451827, 18.481541)">
                                            <path d="M15.8333333,4.66754012 C15.5554739,4.66754012 15.3341176,4.51631182 15.0534641,4.32400917 C14.5415196,3.97394366 13.6849673,3.38801179 12.0659314,3.38801179 C11.5279085,3.38801179 10.8529739,3.39361284 10.0873856,3.40076973 C9.17122549,3.40886014 8.12560458,3.41788405 7.02937908,3.4194399 L7.05825163,11.3421225 C7.50872549,11.3443007 7.98683007,11.3492794 8.51460784,11.3545693 C9.38978758,11.363282 10.4018791,11.3735506 11.6505392,11.3735506 C13.7430229,11.3735506 15.0429085,12.2221094 15.0429085,13.5893875 C15.0429085,14.1473141 14.6868137,14.3971831 14.3328922,14.3971831 L7.05980392,14.3971831 L7.05980392,21.2659351 C7.41341503,21.2706027 7.79869281,21.282116 8.18893791,21.2939404 C8.71174837,21.3091877 9.24356209,21.3253685 9.71980392,21.3253685 C10.3158824,21.3253685 10.7284804,21.2986079 10.9489052,21.2457091 C11.0240359,21.2276613 11.0802288,21.2102358 11.1221405,21.1952997 C11.0907843,21.1305765 11.0482516,21.0546512 11.0153431,20.9961513 C10.8688072,20.7316574 10.6853268,20.4027514 10.6853268,20.0221913 C10.6853268,19.6886178 10.891781,19.4082542 11.2376307,19.271962 C11.4260784,19.1975925 11.6669935,19.159941 11.9541667,19.159941 C12.5372059,19.159941 13.2677124,19.3121028 13.8234314,19.5513921 C14.4018137,19.8112185 16.2878431,20.7643302 16.2856699,22.184507 C16.179183,23.356682 14.5849837,23.9021618 11.2652614,23.9021618 L3.63576797,23.8704225 C1.65660131,23.8704225 0.138153595,23.167491 0.0248366013,22.2031772 C-0.0127287582,21.9060105 0.0639542484,21.6321815 0.240604575,21.4305437 C0.408872549,21.2401081 0.651029412,21.1349329 0.921748366,21.1349329 C2.35357843,21.1349329 2.51129085,21.0944808 2.51129085,19.8939895 L2.51129085,2.19623321 C2.51129085,1.00943334 3.53114379,0.0444972159 4.7850817,0.0444972159 L13.5983497,0.0444972159 C15.2003105,0.0444972159 16.7668791,2.00953161 16.7668791,3.47607272 C16.7668791,4.25835244 16.2968464,4.66754012 15.8333333,4.66754012" id="path46"></path>
                                        </g>
                                        <g id="g48" transform="translate(127.927000, 18.432314)">
                                            <path d="M18.0065359,24.2712086 C17.8081536,24.2712086 17.6616176,24.2235997 17.5197386,24.1769243 C17.344951,24.1199803 17.1279412,24.0487226 16.6302778,24.0144939 C16.1043627,23.9808877 14.1478595,23.9752866 11.8815196,23.9690632 C5.43952614,23.9510154 2.47372549,23.9121192 1.92452614,23.7285293 C0.958382353,23.3924664 0.309215686,22.4885195 0.309215686,21.4797085 C0.309215686,20.35981 0.873937908,20.1920897 1.21078431,20.1920897 C1.46256536,20.1920897 1.62897059,20.2484114 1.77581699,20.2985097 C1.93849673,20.354209 2.1229085,20.4164428 2.58114379,20.4484933 C3.15952614,20.4796102 5.40723856,20.5368654 7.17436275,20.5437111 L7.17436275,2.37328857 C7.17436275,1.33336063 7.74094771,0.0936619718 10.439134,0.0936619718 C11.2755065,0.0936619718 12.7880556,0.205994104 13.5151471,0.958401572 C13.796732,1.24996725 13.939232,1.61310187 13.9261928,2.01357681 C13.9122222,2.33750409 13.7445752,2.88018343 12.7830882,2.88018343 L12.4186111,2.87520472 C12.039232,2.87520472 12.0134641,2.93837209 12.0019771,2.96513266 C11.893317,3.29372748 11.6480556,5.63714379 11.7207026,20.2708156 L11.721634,20.5437111 L13.6626144,20.5421553 C15.6759314,20.5421553 16.687402,20.5605142 17.2726144,20.7279234 C18.2198203,21.0173108 18.9074837,21.965755 18.9074837,22.9835899 C18.9074837,24.1037995 18.3430719,24.2712086 18.0065359,24.2712086" id="path50"></path>
                                        </g>
                                        <g id="g52" transform="translate(114.275034, 43.925703)">
                                            <path d="M2.17320261,0.311169342 C2.54978758,0.311169342 2.90929739,0.430347199 3.21199346,0.654389125 C3.39578431,0.790058958 3.59447712,0.933819194 3.80124183,1.07726826 C4.00924837,1.22227317 4.17627451,1.33584998 4.32653595,1.43293482 L4.8325817,1.78486734 C5.32,2.1171962 5.59754902,2.2724697 5.74656863,2.34497216 L5.81797386,2.37982312 L5.88844771,2.34341631 C6.06509804,2.25131019 6.40939542,2.05216181 7.04272876,1.62617098 L7.34728758,1.42391091 C7.39447712,1.38750409 7.46619281,1.33958402 7.55312092,1.28512938 C8.76638889,0.464886996 9.2479085,0.286586964 9.5971732,0.271962005 L9.63380719,0.270406158 L9.67075163,0.273517851 C10.2919771,0.331084179 10.9048203,0.727202751 11.3087255,1.04926302 L11.7644771,1.41270881 L11.3770261,1.84772355 C10.8417974,2.45045857 9.88714052,3.51714707 9.51366013,3.89148379 L9.44039216,3.96460858 C7.32772876,6.03979692 6.4044281,6.30584671 5.83598039,6.30584671 C4.97383987,6.30584671 3.95336601,5.6187848 2.62336601,4.14228628 L2.5072549,4.01252866 C2.42622549,3.92042254 2.3172549,3.80248935 2.18593137,3.66339666 C1.64728758,3.10018015 0.9975,2.30047494 0.547336601,1.72885686 L0.162369281,1.240321 L1.26263072,0.568195218 C1.53738562,0.400163773 1.8525,0.311169342 2.17320261,0.311169342" id="path54"></path>
                                        </g>
                                        <g id="g56" transform="translate(45.058624, 18.136921)" fill-rule="nonzero">
                                            <path d="M12.1078431,21.1595152 C17.4340523,21.1595152 19.8596569,15.9374713 19.8596569,11.085719 C19.8596569,6.28064199 17.3797222,3.41197183 13.2254902,3.41197183 C8.09486928,3.41197183 5.41003268,8.46380609 5.41003268,13.4540288 C5.41003268,17.1787258 7.16939542,21.1595152 12.1078431,21.1595152 M23.6320261,23.5841467 L23.8710784,23.9130527 C24.6736111,25.0099247 24.8071078,26.1276449 24.2479739,27.061153 C23.7428595,27.9037995 22.8881699,28.3316574 21.7081209,28.3316574 C21.5497876,28.3316574 21.3902124,28.323567 21.2300163,28.3098755 C20.717451,28.2653783 20.1629739,28.0889453 19.6690359,27.8129381 C19.0518464,27.4678513 18.6699837,26.9541107 18.594232,26.3656895 C18.5169281,25.7645103 18.765915,25.1521291 19.295866,24.6424337 C19.5510621,24.3969211 20.3306209,23.8769571 20.3554575,23.8592204 C20.2368627,23.6641173 20.0875327,23.4204717 19.9394444,23.1786931 C19.8115359,22.9702096 19.6858007,22.7648379 19.5786928,22.588716 C17.4709967,23.8978054 14.9755392,24.5665084 12.4909477,24.5665084 C4.92323529,24.5665084 0.222598039,19.8547822 0.222598039,12.2697183 C0.222598039,4.63237799 6.70401961,0.0690795938 12.9702941,0.0690795938 C20.213268,0.0690795938 25.0796895,4.97217491 25.0796895,12.2697183 C25.0796895,16.0059286 23.7217484,18.9159843 21.6441667,20.9662791 C22.2272059,21.6464953 23.0874837,22.8323616 23.6320261,23.5841467" id="path58"></path>
                                        </g>
                                        <g id="g60" transform="translate(55.647989, 14.044640)">
                                            <path d="M2.48366013,3.42286276 C0.846617647,3.43904356 0.0260784314,2.78216508 0.10120915,1.69929577 C0.19869281,0.295922044 1.06362745,-0.0236488699 2.04094771,0.0046675402 C2.99125817,0.0323616116 3.93349673,0.293432689 3.99186275,1.70396331 C4.05333333,3.19135277 3.12351307,3.39672453 2.48366013,3.42286276" id="path62"></path>
                                        </g>
                                        <g id="g64" transform="translate(119.477930, 14.044640)">
                                            <path d="M2.48366013,3.42286276 C0.846617647,3.43904356 0.0260784314,2.78216508 0.10120915,1.69929577 C0.19869281,0.295922044 1.06362745,-0.0236488699 2.04094771,0.0046675402 C2.99125817,0.0323616116 3.93349673,0.293432689 3.99155229,1.70396331 C4.05364379,3.19135277 3.12382353,3.39672453 2.48366013,3.42286276" id="path66"></path>
                                        </g>
                                        <g id="g68" transform="translate(29.288966, 2.118939)">
                                            <path d="M5.27777778,5.28987881 C4.84251634,5.98969866 4.31970588,6.33976417 3.70934641,6.33976417 C3.53083333,6.33976417 3.35759804,6.31393711 3.19026144,6.26197183 C3.02261438,6.21031772 2.86862745,6.12941369 2.72767974,6.01957091 C2.43957516,5.80299705 2.2346732,5.50956436 2.11235294,5.13958402 C1.99034314,4.76898133 1.92918301,4.28293482 1.92918301,3.6801998 C1.92918301,2.82355061 2.08813725,2.15764821 2.40604575,1.68187029 C2.72364379,1.20671471 3.1722549,0.96867016 3.75156863,0.96867016 C3.99869281,0.96867016 4.23370915,1.02530298 4.45599673,1.13825745 C4.67828431,1.25121192 4.92106209,1.43013429 5.18401961,1.67502457 L5.70993464,1.0159679 C5.33086601,0.677104487 4.95769608,0.431591877 4.58980392,0.279118899 C4.22191176,0.126957091 3.81397059,0.051031772 3.36629085,0.051031772 C2.90929739,0.051031772 2.48831699,0.136292172 2.10303922,0.30743531 C1.7180719,0.478578447 1.3877451,0.718801179 1.11205882,1.02779234 C0.836683007,1.33678349 0.622156863,1.7061415 0.46879085,2.13617753 C0.315424837,2.56621356 0.23874183,3.03856862 0.23874183,3.55324271 C0.23874183,4.09903374 0.325359477,4.59721585 0.499215686,5.04778906 C0.673071895,5.49773993 0.914918301,5.88296757 1.2247549,6.20347199 C1.53490196,6.52335408 1.90962418,6.77197838 2.34954248,6.94934491 C2.78946078,7.12640026 3.27563725,7.21508352 3.80776144,7.21508352 C3.94870915,7.21508352 4.07879085,7.21072715 4.19769608,7.20139207 C4.31660131,7.19174582 4.43333333,7.17618736 4.5475817,7.15409433 C4.66183007,7.13200131 4.77856209,7.10306256 4.89746732,7.06696692 C5.01637255,7.03087127 5.14303922,6.98761874 5.27777778,6.93752047 L5.27777778,5.28987881 Z" id="path70"></path>
                                        </g>
                                        <g id="g72" transform="translate(35.735212, 2.057856)">
                                            <path d="M0.310457516,0.933508025 C0.322875817,1.18897805 0.329395425,1.40804127 0.329395425,1.59007534 L0.329395425,5.79366197 C0.329395425,6.01645922 0.324428105,6.23925647 0.315114379,6.46205372 C0.305800654,6.6845398 0.291519608,6.92165084 0.272892157,7.17276449 L1.80406863,7.17276449 L1.80406863,4.67345234 C2.1952451,5.05930233 2.64602941,5.25222732 3.15642157,5.25222732 C3.45383987,5.25222732 3.71928105,5.18625942 3.95243464,5.05463479 C4.18558824,4.92269898 4.36348039,4.74066492 4.4854902,4.50853259 C4.52926471,4.42047167 4.56465686,4.31374058 4.59135621,4.18833934 C4.6177451,4.06293809 4.63109477,3.92322306 4.63109477,3.7695054 L4.63109477,1.59972159 C4.63109477,1.36727809 4.63575163,1.14199148 4.64506536,0.924172945 C4.65468954,0.706043236 4.66866013,0.471421553 4.68759804,0.220307894 L3.0999183,0.220307894 C3.10643791,0.298722568 3.11109477,0.359711759 3.11419935,0.403897805 C3.11730392,0.447772683 3.11885621,0.496626269 3.11885621,0.549836227 C3.13127451,0.691107108 3.14089869,0.879364559 3.14710784,1.11460858 C3.15331699,1.2372093 3.15642157,1.33429414 3.15642157,1.40679659 L3.15642157,1.59007534 L3.15642157,3.65157222 C3.15642157,3.81835899 3.14089869,3.93100229 3.10954248,3.99074681 C3.06576797,4.08503112 2.9903268,4.16251228 2.88415033,4.22381264 C2.7776634,4.285113 2.66651961,4.3156076 2.55071895,4.3156076 C2.29055556,4.3156076 2.04187908,4.18678349 1.80406863,3.92944645 L1.80406863,1.59972159 L1.80406863,1.35949885 C1.80406863,1.29353095 1.80686275,1.21667213 1.81338235,1.12892237 C1.81338235,1.03774975 1.81493464,0.955289879 1.81803922,0.881542745 C1.82114379,0.80810678 1.82424837,0.73716017 1.82735294,0.669636423 C1.83045752,0.602423845 1.83356209,0.533344252 1.83697712,0.462708811 C1.83977124,0.39207337 1.8444281,0.311169342 1.85094771,0.220307894 L0.253954248,0.220307894 C0.279101307,0.439993449 0.297728758,0.677726826 0.310457516,0.933508025" id="path74"></path>
                                        </g>
                                        <g id="g76" transform="translate(41.644802, 0.195694)" fill-rule="nonzero">
                                            <path d="M1.8627451,1.24467737 C1.9847549,1.36074353 2.15861111,1.4189322 2.38400327,1.4189322 C2.57493464,1.4189322 2.72985294,1.35732067 2.84906863,1.23534229 C2.96797386,1.11274157 3.02727124,0.955912217 3.02727124,0.764543072 C3.02727124,0.563838847 2.96455882,0.404520144 2.83944444,0.286586964 C2.71433007,0.168964953 2.54978758,0.110153947 2.34643791,0.110153947 C2.13998366,0.110153947 1.97699346,0.168964953 1.85808824,0.286586964 C1.73918301,0.404520144 1.67957516,0.563838847 1.67957516,0.764543072 C1.67957516,0.968358991 1.74042484,1.1286112 1.8627451,1.24467737 M1.77333333,5.86678677 C1.64821895,5.58144448 1.58550654,5.13584998 1.58550654,4.53031444 C1.58550654,3.35316083 1.84535948,2.76505077 2.36537582,2.76505077 C2.87545752,2.76505077 3.13065359,3.35316083 3.13065359,4.53031444 C3.13065359,5.13584998 3.06887255,5.58144448 2.94531046,5.86678677 C2.82143791,6.15244022 2.62833333,6.29526695 2.36537582,6.29526695 C2.09589869,6.29526695 1.89875817,6.15244022 1.77333333,5.86678677 M4.23433007,6.12132329 C4.33150327,5.96418277 4.41129085,5.78992794 4.47400327,5.59855879 C4.58017974,5.27867671 4.63357843,4.92238782 4.63357843,4.53031444 C4.63357843,4.13792991 4.58017974,3.78319686 4.47400327,3.46642647 C4.36751634,3.14934491 4.21632353,2.87956109 4.02073529,2.65676384 C3.8248366,2.43365542 3.58795752,2.26282345 3.30916667,2.14364559 C3.03037582,2.02446774 2.71433007,1.96472322 2.36071895,1.96472322 C2.00990196,1.96472322 1.69354575,2.02446774 1.41196078,2.14364559 C1.13006536,2.26282345 0.889771242,2.43365542 0.691078431,2.65676384 C0.492075163,2.87956109 0.339330065,3.14934491 0.232843137,3.46642647 C0.126666667,3.78319686 0.0732679739,4.13792991 0.0732679739,4.53031444 C0.0732679739,4.92238782 0.126666667,5.2777432 0.232843137,5.59638061 C0.339330065,5.91501802 0.492075163,6.18480183 0.691078431,6.40604324 C0.889771242,6.62728464 1.13006536,6.79749427 1.41196078,6.9169833 C1.69354575,7.03584998 2.00990196,7.0955945 2.36071895,7.0955945 C2.71433007,7.0955945 3.03037582,7.03584998 3.30916667,6.9169833 C3.50320261,6.83514576 3.67705882,6.72841467 3.83042484,6.59647887 C3.83663399,6.64066492 3.84160131,6.68422863 3.84470588,6.72841467 C3.85091503,6.80029479 3.85401961,6.88213233 3.85401961,6.97299378 C3.85401961,7.03584998 3.84998366,7.09932853 3.84222222,7.16374058 C3.83446078,7.22815264 3.82111111,7.31372421 3.80248366,7.42045529 L4.70870915,7.42045529 C4.68666667,7.32617098 4.66710784,7.2437111 4.65003268,7.17338683 C4.63264706,7.10244022 4.6155719,7.03833934 4.59849673,6.98046184 C4.58111111,6.921962 4.56372549,6.86626269 4.54665033,6.8133639 C4.52926471,6.75984278 4.50691176,6.70165411 4.47866013,6.63910907 C4.45661765,6.57625287 4.43457516,6.52117589 4.41284314,6.47418932 C4.39080065,6.42720275 4.36751634,6.37928267 4.34236928,6.33074026 C4.31722222,6.28188667 4.29083333,6.22961022 4.2625817,6.1729774 C4.25326797,6.15399607 4.24364379,6.13688176 4.23433007,6.12132329" id="path78"></path>
                                        </g>
                                        <g id="g80" transform="translate(50.535157, 2.012892)">
                                            <path d="M4.03594771,4.04520144 C3.85122549,4.20514248 3.67488562,4.31903046 3.50754902,4.38655421 C3.34021242,4.45376679 3.16076797,4.48768425 2.9698366,4.48768425 C2.77890523,4.48768425 2.6044281,4.44287586 2.44609477,4.35325909 C2.2880719,4.26395349 2.15116013,4.14010809 2.03535948,3.9817229 C1.91955882,3.82302653 1.82952614,3.63321323 1.76526144,3.41197183 C1.70099673,3.19073043 1.66901961,2.95144121 1.66901961,2.69410416 C1.66901961,2.44952506 1.69944444,2.22392728 1.76060458,2.01855552 C1.82176471,1.81318375 1.90683007,1.63675074 2.01642157,1.4889453 C2.12601307,1.3417622 2.25609477,1.22787422 2.40635621,1.14759253 C2.55661765,1.06793318 2.72271242,1.02779234 2.90401961,1.02779234 C3.10767974,1.02779234 3.29457516,1.06637733 3.4653268,1.14323616 C3.63576797,1.22009499 3.81055556,1.34798559 3.98906863,1.52659679 L4.43053922,0.862872584 C4.08593137,0.618293482 3.76584967,0.443416312 3.46998366,0.338241074 C3.17411765,0.233065837 2.8478268,0.180478218 2.49080065,0.180478218 C2.14339869,0.180478218 1.82704248,0.238044546 1.54204248,0.352554864 C1.25735294,0.466754012 1.01395425,0.62856207 0.811846405,0.837045529 C0.61004902,1.04584016 0.452647059,1.29695382 0.33995098,1.59038651 C0.227254902,1.88381919 0.170751634,2.20961349 0.170751634,2.56714707 C0.170751634,2.95953161 0.239673203,3.32266623 0.37751634,3.6568621 C0.515359477,3.99105798 0.707843137,4.27888962 0.955277778,4.52035703 C1.20240196,4.7621356 1.49578431,4.95039306 1.83573529,5.08544055 C2.17537582,5.22017688 2.54730392,5.28770062 2.95120915,5.28770062 C3.12972222,5.28770062 3.30419935,5.2768097 3.47464052,5.25502784 C3.64539216,5.23262365 3.83228758,5.19217163 4.03594771,5.13242712 L4.03594771,4.04520144 Z" id="path82"></path>
                                        </g>
                                        <g id="g84" transform="translate(55.717717, 2.062119)" fill-rule="nonzero">
                                            <path d="M2.17320261,5.60104815 L2.17320261,6.29308877 L2.23901961,6.29308877 C2.39238562,6.29308877 2.51656863,6.33758598 2.6125,6.42720275 C2.70781046,6.51650835 2.75562092,6.63319686 2.75562092,6.7778906 C2.75562092,6.90640354 2.71495098,7.01157877 2.63330065,7.09310514 C2.55196078,7.17494268 2.44702614,7.21539469 2.31880719,7.21539469 C2.19679739,7.21539469 2.09651961,7.17712086 2.01828431,7.10026204 C1.94004902,7.02309204 1.88820261,6.91449394 1.86305556,6.77322306 L1.4498366,7.26735997 C1.62214052,7.39898461 1.78637255,7.49420242 1.94315359,7.55239109 C2.09962418,7.61026859 2.2719281,7.63920734 2.4597549,7.63920734 C2.62243464,7.63920734 2.77021242,7.61586964 2.90370915,7.5685719 C3.03658497,7.52158533 3.15083333,7.45717327 3.24645425,7.3756469 C3.34176471,7.29380937 3.41596405,7.19610219 3.46936275,7.08159188 C3.52276144,6.96708156 3.54915033,6.84043564 3.54915033,6.70258762 C3.54915033,6.46080904 3.47401961,6.26010481 3.32375817,6.10016377 C3.17349673,5.93991156 2.96517974,5.83318048 2.69911765,5.77997052 L2.69911765,5.60104815 L2.17320261,5.60104815 Z M1.8254902,5.12091386 C1.80065359,4.79449722 1.7801634,4.50262037 1.76464052,4.2455945 C1.74880719,3.98794628 1.74104575,3.79813298 1.74104575,3.67584343 L1.74104575,1.71765477 C1.74104575,1.48241074 1.7904085,1.30971176 1.88913399,1.19955781 C1.98754902,1.0900262 2.14960784,1.03494923 2.375,1.03494923 C2.52867647,1.03494923 2.65627451,1.065755 2.75779412,1.12674419 C2.85962418,1.18804455 2.97480392,1.30473305 3.10302288,1.47743203 L3.10302288,3.6568621 L3.10302288,4.10899116 C3.10302288,4.23128071 3.0999183,4.34579103 3.09370915,4.45252211 C3.0875,4.55894202 3.08098039,4.66349492 3.07477124,4.7652473 C3.06856209,4.86762201 3.05924837,4.98586636 3.04651961,5.12091386 L4.66245098,5.12091386 C4.64972222,4.97310842 4.6404085,4.85953161 4.63419935,4.77956109 C4.62767974,4.69990174 4.61836601,4.60468392 4.60594771,4.49484114 C4.5870098,4.17464789 4.57769608,3.89241729 4.57769608,3.64752702 L4.57769608,1.6330167 C4.57769608,1.38159188 4.58235294,1.15350475 4.59197712,0.948132984 C4.60129085,0.742450049 4.61836601,0.501604979 4.64351307,0.225597773 L3.1123366,0.225597773 L3.1123366,0.686750737 C2.89656863,0.495381592 2.68111111,0.350999017 2.46658497,0.253603013 C2.25205882,0.156518179 2.02915033,0.107975762 1.79754902,0.107975762 C1.60351307,0.107975762 1.40761438,0.14158205 1.21047386,0.209105798 C1.01333333,0.276629545 0.845686275,0.365001638 0.707843137,0.474844415 C0.554477124,0.597445136 0.444264706,0.755207992 0.376895425,0.948132984 C0.309526144,1.14105798 0.275996732,1.39123813 0.275996732,1.69867344 L0.275996732,3.6568621 L0.275996732,4.090321 C0.275996732,4.23750409 0.269477124,4.37877498 0.257058824,4.51382247 C0.250849673,4.61713069 0.244640523,4.7073698 0.238431373,4.78422863 C0.231911765,4.86108745 0.222598039,4.97310842 0.210179739,5.12091386 L1.8254902,5.12091386 Z" id="path86"></path>
                                        </g>
                                        <g id="g88" transform="translate(61.407534, 1.971849)" fill-rule="nonzero">
                                            <path d="M3.10457516,3.11169342 C3.01392157,3.0550606 2.94313725,3.01367507 2.89315359,2.98722568 C2.84316993,2.96046512 2.79473856,2.9312152 2.74785948,2.89978709 L2.38120915,2.71619718 C1.8897549,2.46539469 1.64387255,2.14364559 1.64387255,1.75157222 C1.64387255,1.54744514 1.71124183,1.37972486 1.84598039,1.24778906 C1.9804085,1.11585326 2.15271242,1.04988536 2.3625817,1.04988536 C2.4970098,1.04988536 2.62243464,1.07197838 2.73823529,1.11585326 C2.85403595,1.16003931 2.97604575,1.23689813 3.10457516,1.34642974 L3.10457516,3.11169342 Z M3.0670098,3.8933508 C3.0545915,4.09716672 2.95369281,4.26021946 2.76400327,4.38282018 C2.57462418,4.50510973 2.33898693,4.56641009 2.05740196,4.56641009 C1.85063725,4.56641009 1.64480392,4.53124795 1.43990196,4.46030134 C1.23468954,4.3896659 0.9975,4.27142155 0.728333333,4.10494595 L0.728333333,5.20181788 C1.0099183,5.25502784 1.26045752,5.29267933 1.47964052,5.31477236 C1.69882353,5.33655421 1.9350817,5.34775631 2.18872549,5.34775631 C2.91519608,5.34775631 3.48643791,5.21115296 3.9030719,4.93825745 C4.31939542,4.66505077 4.52740196,4.28698002 4.52740196,3.80373403 L4.52740196,1.64795283 C4.52740196,1.45938421 4.53236928,1.29633148 4.54168301,1.15848346 C4.55099673,1.0200131 4.56838235,0.88372093 4.59321895,0.748673436 C4.60905229,0.679905011 4.62147059,0.616115296 4.63109477,0.558237799 C4.6404085,0.500049132 4.66058824,0.41603341 4.69194444,0.306190632 L3.17970588,0.306190632 C3.14834967,0.378381919 3.12972222,0.43968228 3.12351307,0.489780544 C3.11730392,0.539878808 3.11388889,0.610825418 3.11388889,0.701686865 C2.92295752,0.523075663 2.72830065,0.394251556 2.52929739,0.315836882 C2.33029412,0.237422208 2.09962418,0.198214871 1.83666667,0.198214871 C1.37315359,0.198214871 1.00060458,0.329839502 0.71870915,0.593399934 C0.437124183,0.856960367 0.296176471,1.20204717 0.296176471,1.6289715 C0.296176471,2.03380282 0.42004902,2.37577792 0.667173203,2.65520799 C0.914607843,2.93463806 1.31075163,3.18264003 1.85529412,3.39890272 C2.07137255,3.49007534 2.26789216,3.56133311 2.44485294,3.61298723 C2.62150327,3.66464134 2.83230392,3.71567311 3.07632353,3.76608254 L3.0670098,3.8933508 Z" id="path90"></path>
                                        </g>
                                        <g id="g92" transform="translate(70.648799, 2.149620)">
                                            <path d="M0.310457516,0.933508025 C0.322875817,1.17497543 0.329395425,1.40088438 0.329395425,1.61123485 L0.329395425,3.61641009 C0.329395425,3.84854242 0.324428105,4.07569604 0.315114379,4.29693744 C0.305800654,4.51817884 0.288415033,4.76057976 0.263578431,5.02414019 L1.79444444,5.02414019 L1.79444444,4.57201114 C2.21728758,4.95163773 2.64602941,5.14145103 3.08129085,5.14145103 C3.29426471,5.14145103 3.50009804,5.10784474 3.69879085,5.040321 C3.89779412,4.97279725 4.06761438,4.88411399 4.20856209,4.77458238 C4.3554085,4.64575827 4.4628268,4.48799541 4.53019608,4.30129381 C4.59756536,4.11490337 4.63109477,3.86752375 4.63109477,3.55977727 L4.63109477,1.59225352 C4.63109477,1.44507042 4.63264706,1.30068785 4.63606209,1.15941697 C4.63885621,1.01814609 4.64351307,0.876875205 4.65003268,0.735604324 C4.65624183,0.631984933 4.66245098,0.541745824 4.66866013,0.465198166 C4.67517974,0.388028169 4.68449346,0.276007206 4.69691176,0.128512938 L3.09060458,0.128512938 L3.0999183,0.34041926 C3.10643791,0.462708811 3.11264706,0.586865378 3.11885621,0.712266623 C3.12506536,0.837667868 3.13375817,0.956845726 3.14493464,1.0698002 C3.15580065,1.18306584 3.16418301,1.28264003 3.17070261,1.36883393 C3.17660131,1.45533901 3.18001634,1.5234851 3.18001634,1.57389453 L3.18001634,3.54141828 C3.18001634,3.99634785 2.96704248,4.22381264 2.54140523,4.22381264 C2.38772876,4.22381264 2.2573366,4.19020635 2.14929739,4.12268261 C2.04094771,4.05484769 1.92607843,3.93815919 1.80406863,3.77199476 L1.80406863,1.59225352 L1.80406863,1.13110056 C1.80406863,1.00881101 1.80686275,0.896478873 1.81338235,0.794726499 C1.8195915,0.692662954 1.82580065,0.589977072 1.8320098,0.486357681 C1.83852941,0.382427121 1.84784314,0.263560432 1.86026144,0.128512938 L0.244640523,0.128512938 C0.275996732,0.423501474 0.297728758,0.692040616 0.310457516,0.933508025" id="path94"></path>
                                        </g>
                                        <g id="g96" transform="translate(76.364074, 0.037060)" fill-rule="nonzero">
                                            <path d="M3.10457516,6.22338683 C3.01361111,6.32700622 2.92513072,6.39764166 2.83913399,6.43529315 C2.7528268,6.47294464 2.65534314,6.49161481 2.54544118,6.49161481 C2.27627451,6.49161481 2.06826797,6.33260727 1.92080065,6.01396987 C1.77395425,5.69533246 1.70037582,5.23791353 1.70037582,4.64171307 C1.70037582,4.12081559 1.76743464,3.72220766 1.9021732,3.44620046 C2.03691176,3.16988208 2.2325,3.0317229 2.48924837,3.0317229 C2.77114379,3.0317229 2.97604575,3.16988208 3.10457516,3.44620046 L3.10457516,6.22338683 Z M4.26941176,7.15533901 L4.68232026,6.9057812 C4.66338235,6.81803144 4.64785948,6.73868326 4.63575163,6.66835899 C4.62302288,6.59741238 4.61370915,6.54482476 4.60718954,6.51059613 C4.5950817,6.39452997 4.58173203,6.17328857 4.56714052,5.84687193 C4.55316993,5.52014412 4.54665033,5.08264003 4.54665033,4.53342614 L4.54665033,4.18989519 C4.54665033,3.63134622 4.56651961,3.1291189 4.60718954,2.6835244 C4.62581699,2.38231248 4.63575163,2.14240092 4.63575163,1.96347855 C4.63575163,1.41737635 4.43985294,1.0007206 4.04867647,0.7135113 C3.65687908,0.426301998 3.08563725,0.282852932 2.33464052,0.282852932 C1.97730392,0.282852932 1.64480392,0.31210285 1.33651961,0.369980347 C1.02823529,0.428169014 0.710947712,0.521519817 0.385277778,0.650032755 L0.62495098,1.68093678 C0.950620915,1.4584507 1.23531046,1.29819849 1.47964052,1.20080249 C1.72397059,1.10371765 1.97140523,1.05486407 2.22163399,1.05486407 C2.84130719,1.05486407 3.15114379,1.33740583 3.15114379,1.90217819 C3.15114379,1.98712742 3.14834967,2.07549951 3.14214052,2.16822797 C3.13562092,2.26064527 3.12630719,2.37111038 3.11357843,2.49993449 L3.11357843,2.51891582 C2.95431373,2.39009171 2.79908497,2.29767442 2.64913399,2.2410416 C2.49887255,2.18471995 2.32284314,2.15640354 2.1229085,2.15640354 C1.85374183,2.15640354 1.60568627,2.21521454 1.37843137,2.33283655 C1.15148693,2.45045857 0.955898693,2.61600066 0.791666667,2.82946282 C0.627434641,3.04261382 0.498594771,3.2955945 0.406699346,3.58716017 C0.314183007,3.87934818 0.267924837,4.19767442 0.267924837,4.54307239 C0.267924837,4.93514576 0.324428105,5.29828038 0.436813725,5.63278742 C0.549820261,5.9669833 0.704117647,6.25481494 0.899395425,6.49628235 C1.09498366,6.73774975 1.33093137,6.92631838 1.60661765,7.0610547 C1.88199346,7.19610219 2.18220588,7.26362594 2.50787582,7.26362594 C2.78387255,7.26362594 3.01795752,7.22970848 3.21013072,7.16249591 C3.40292484,7.09497216 3.60844771,6.97797249 3.82794118,6.81180806 L4.26941176,7.15533901 Z" id="path98"></path>
                                        </g>
                                        <g id="g100" transform="translate(82.321257, 2.097064)" fill-rule="nonzero">
                                            <path d="M4.34640523,4.35637078 C4.37124183,4.44100884 4.39235294,4.52191287 4.40973856,4.5987717 C4.42681373,4.67563053 4.43861111,4.75093351 4.44482026,4.82468064 C4.45102941,4.89842778 4.45444444,4.98088765 4.45444444,5.0717491 C4.45444444,5.13460531 4.4504085,5.19808385 4.44264706,5.26249591 C4.43457516,5.32659679 4.42122549,5.41247953 4.40259804,5.51889944 L5.30913399,5.51889944 C5.28398693,5.4249263 5.26349673,5.34246643 5.24797386,5.27183099 C5.23245098,5.20119555 5.21599673,5.13709466 5.19861111,5.07890599 C5.18122549,5.02071733 5.16352941,4.96501802 5.1445915,4.91180806 C5.12596405,4.85828693 5.10392157,4.80040943 5.07877451,4.7378644 C5.05704248,4.67469702 5.03437908,4.61993122 5.01078431,4.57263348 C4.98718954,4.52595807 4.96359477,4.478038 4.94031046,4.42918441 C4.91702614,4.38064199 4.8903268,4.32712086 4.86052288,4.26924337 C4.83071895,4.2110547 4.79377451,4.14446446 4.75031046,4.06916148 L4.24767974,4.06916148 C4.28834967,4.17589256 4.32125817,4.27173272 4.34640523,4.35637078 Z M1.81027778,5.08606289 C1.78513072,4.75964625 1.76495098,4.46745824 1.74911765,4.21043236 C1.73359477,3.95309532 1.72583333,3.76328202 1.72583333,3.6406813 L1.72583333,1.68249263 C1.72583333,1.44724861 1.77519608,1.27486079 1.87361111,1.16470685 C1.9723366,1.05517524 2.13439542,1.00009826 2.35978758,1.00009826 C2.51315359,1.00009826 2.64075163,1.03059286 2.7425817,1.09189322 C2.84410131,1.15319358 2.95928105,1.26988208 3.0875,1.44258107 L3.0875,3.62201114 L3.0875,4.07414019 C3.0875,4.19611857 3.08470588,4.31094006 3.07818627,4.41735997 C3.07197712,4.52409106 3.06576797,4.62864396 3.05924837,4.73039633 C3.05303922,4.83245988 3.04372549,4.95101539 3.03130719,5.08606289 L4.6469281,5.08606289 C4.63419935,4.93825745 4.62488562,4.82468064 4.61867647,4.74471012 C4.61215686,4.6647396 4.60284314,4.56983295 4.59042484,4.45999017 C4.57179739,4.13979692 4.5621732,3.85725516 4.5621732,3.61236489 L4.5621732,1.59816574 C4.5621732,1.34674091 4.56714052,1.11865378 4.57645425,0.913282018 C4.58576797,0.707287914 4.60284314,0.466754012 4.6279902,0.190435637 L3.09712418,0.190435637 L3.09712418,0.651899771 C2.88104575,0.460219456 2.66558824,0.316148051 2.45137255,0.218752047 C2.23684641,0.121667213 2.01362745,0.0728136259 1.78202614,0.0728136259 C1.58767974,0.0728136259 1.3920915,0.106731084 1.19495098,0.174254831 C0.997810458,0.241467409 0.830163399,0.330150671 0.692320261,0.439993449 C0.538954248,0.56259417 0.42874183,0.720045857 0.361372549,0.913282018 C0.294003268,1.10620701 0.260473856,1.35607599 0.260473856,1.66382247 L0.260473856,3.62201114 L0.260473856,4.05515886 C0.260473856,4.20265313 0.253954248,4.34392401 0.241535948,4.4789715 C0.235326797,4.58227972 0.229117647,4.67251883 0.222908497,4.74937766 C0.216388889,4.82623649 0.207075163,4.93825745 0.194656863,5.08606289 L1.81027778,5.08606289 Z" id="path102"></path>
                                        </g>
                                        <g id="g104" transform="translate(88.091699, 2.017435)" fill-rule="nonzero">
                                            <path d="M1.8627451,4.04520144 C1.73732026,3.75954799 1.6749183,3.31395349 1.6749183,2.70841795 C1.6749183,1.5315755 1.93446078,0.943154274 2.45416667,0.943154274 C2.96455882,0.943154274 3.2197549,1.5315755 3.2197549,2.70841795 C3.2197549,3.31395349 3.15797386,3.75954799 3.03410131,4.04520144 C2.91053922,4.3308549 2.71743464,4.47368162 2.45416667,4.47368162 C2.185,4.47368162 1.98754902,4.3308549 1.8627451,4.04520144 Z M2.23343137,7.0955945 C2.30235294,6.9291189 2.35823529,6.80185064 2.40014706,6.71410088 C2.44267974,6.62635113 2.4948366,6.5261546 2.55754902,6.41288896 C2.62988562,6.27815264 2.69632353,6.16021946 2.7571732,6.06002293 C2.81833333,5.95920406 2.90495098,5.8198002 3.01795752,5.64087783 L2.37437908,5.64087783 L1.17197712,7.0955945 L2.23343137,7.0955945 Z M4.32343137,4.29942679 C4.42029412,4.14228628 4.50039216,3.96834261 4.56279412,3.77697347 C4.66928105,3.45678022 4.72267974,3.10080249 4.72267974,2.70841795 C4.72267974,2.31603341 4.66928105,1.96161153 4.56279412,1.64452997 C4.45630719,1.32775958 4.30542484,1.05766459 4.1098366,0.835178513 C3.91393791,0.612070095 3.67705882,0.441238126 3.39826797,0.321749099 C3.11978758,0.202571241 2.80343137,0.143137897 2.44982026,0.143137897 C2.09900327,0.143137897 1.78264706,0.202571241 1.50106209,0.321749099 C1.21916667,0.441238126 0.978872549,0.612070095 0.780179739,0.835178513 C0.581176471,1.05766459 0.42874183,1.32775958 0.322254902,1.64452997 C0.215457516,1.96161153 0.162369281,2.31603341 0.162369281,2.70841795 C0.162369281,3.10080249 0.215457516,3.45584671 0.322254902,3.77479528 C0.42874183,4.09312152 0.581176471,4.36290534 0.780179739,4.58414674 C0.978872549,4.80538814 1.21916667,4.97559777 1.50106209,5.0950868 C1.78264706,5.21426466 2.09900327,5.273698 2.44982026,5.273698 C2.80343137,5.273698 3.11978758,5.21426466 3.39826797,5.0950868 C3.59230392,5.01324926 3.76616013,4.90682935 3.91952614,4.77489355 C3.92604575,4.81876842 3.93039216,4.8626433 3.93380719,4.90682935 C3.93970588,4.97870947 3.94312092,5.060547 3.94312092,5.15140845 C3.94312092,5.21426466 3.93908497,5.2777432 3.93132353,5.34215526 C3.92356209,5.40625614 3.91021242,5.49182771 3.89127451,5.59855879 L4.79781046,5.59855879 C4.77607843,5.50427448 4.75620915,5.42212578 4.73913399,5.35149034 C4.72174837,5.2808549 4.7046732,5.21675401 4.68759804,5.15856535 C4.67021242,5.10037668 4.6528268,5.04467737 4.63606209,4.99146741 C4.61867647,4.93794628 4.59601307,4.88006878 4.56776144,4.81721258 C4.54602941,4.75435637 4.52367647,4.69959057 4.50194444,4.65229283 C4.48021242,4.60561743 4.45630719,4.55738618 4.43147059,4.50884376 C4.40632353,4.46030134 4.37962418,4.40771372 4.35168301,4.3510809 C4.34205882,4.33241074 4.3327451,4.31498526 4.32343137,4.29942679 Z" id="path106"></path>
                                        </g>
                                        <g id="g108" transform="translate(93.860652, 2.057856)" fill-rule="nonzero">
                                            <path d="M0.310457516,0.933508025 C0.323186275,1.18306584 0.329395425,1.40181788 0.329395425,1.59007534 L0.329395425,3.79782181 L0.329395425,3.99074681 C0.329395425,4.06604979 0.32629085,4.15535539 0.319771242,4.25928595 C0.313872549,4.45376679 0.304869281,4.60966263 0.294003268,4.72728464 C0.283137255,4.84490665 0.271339869,4.9743531 0.258921569,5.11562398 L1.79941176,5.11562398 L1.79941176,1.59972159 C1.79941176,1.35483131 1.80406863,1.12643302 1.81338235,0.914526695 C1.82269608,0.702931543 1.83697712,0.471421553 1.85591503,0.220307894 L0.249607843,0.220307894 C0.277859477,0.446528005 0.298039216,0.683950213 0.310457516,0.933508025 M0.413839869,6.88088765 C0.567205882,6.99695382 0.817745098,7.05514248 1.16545752,7.05514248 C1.41599673,7.05514248 1.61127451,6.99415329 1.75253268,6.87155257 C1.89348039,6.74895185 1.96364379,6.58278742 1.96364379,6.37243695 C1.96364379,6.10265313 1.88851307,5.90972814 1.73825163,5.79366197 C1.5879902,5.67728464 1.32968954,5.61940714 0.963660131,5.61940714 C0.712810458,5.61940714 0.520326797,5.68226335 0.385588235,5.80766459 C0.251160131,5.93306584 0.18379085,6.11074353 0.18379085,6.339453 C0.18379085,6.58434327 0.260473856,6.76482149 0.413839869,6.88088765" id="path110"></path>
                                        </g>
                                        <g id="g112" transform="translate(99.440381, 2.073664)">
                                            <path d="M2.17320261,7.15689486 L2.21573529,7.01095644 C2.27813725,6.77260072 2.33060458,6.56162791 2.37313725,6.378038 C2.41504902,6.19413691 2.47062092,5.9943662 2.53985294,5.77779234 L3.66681373,2.21925974 L4.83165033,5.77779234 C4.90026144,5.9943662 4.96856209,6.22183099 5.03593137,6.46049787 C5.10330065,6.69854242 5.16352941,6.93098592 5.21661765,7.15689486 L6.31998366,7.15689486 C6.28893791,7.07848018 6.26720588,7.01655748 6.25447712,6.97081559 C6.24174837,6.92569604 6.22156863,6.87466426 6.19331699,6.81803144 C6.16227124,6.73961677 6.12905229,6.65248935 6.09490196,6.5566492 C6.06044118,6.46112021 6.02660131,6.36465771 5.99400327,6.26757288 C5.96078431,6.16986571 5.92880719,6.07807075 5.89745098,5.99187684 C5.86640523,5.90568293 5.84094771,5.83411399 5.82263072,5.77779234 L4.13622549,0.745561743 L4.31970588,0.204438257 L2.66651961,0.204438257 L0.820849673,5.77779234 C0.79880719,5.8593187 0.743856209,6.01614805 0.65630719,6.24859155 C0.584591503,6.44307239 0.52125817,6.60612512 0.46630719,6.73806092 C0.411356209,6.86968556 0.355784314,7.00940059 0.299591503,7.15689486 L2.17320261,7.15689486 Z" id="path114"></path>
                                        </g>
                                        <g id="g116" transform="translate(105.787778, 2.057856)" fill-rule="nonzero">
                                            <path d="M0.310457516,0.933508025 C0.323186275,1.18306584 0.329395425,1.40181788 0.329395425,1.59007534 L0.329395425,3.79782181 L0.329395425,3.99074681 C0.329395425,4.06604979 0.32629085,4.15535539 0.319771242,4.25928595 C0.313872549,4.45376679 0.304869281,4.60966263 0.294003268,4.72728464 C0.283137255,4.84490665 0.271339869,4.9743531 0.258921569,5.11562398 L1.79941176,5.11562398 L1.79941176,1.59972159 C1.79941176,1.35483131 1.80406863,1.12643302 1.81338235,0.914526695 C1.82269608,0.702931543 1.83697712,0.471421553 1.85591503,0.220307894 L0.249607843,0.220307894 C0.277859477,0.446528005 0.298039216,0.683950213 0.310457516,0.933508025 M0.413839869,6.88088765 C0.567205882,6.99695382 0.817745098,7.05514248 1.16545752,7.05514248 C1.41599673,7.05514248 1.61127451,6.99415329 1.75253268,6.87155257 C1.89348039,6.74895185 1.96364379,6.58278742 1.96364379,6.37243695 C1.96364379,6.10265313 1.88851307,5.90972814 1.73825163,5.79366197 C1.5879902,5.67728464 1.32968954,5.61940714 0.963660131,5.61940714 C0.712810458,5.61940714 0.520326797,5.68226335 0.385588235,5.80766459 C0.251160131,5.93306584 0.18379085,6.11074353 0.18379085,6.339453 C0.18379085,6.58434327 0.260473856,6.76482149 0.413839869,6.88088765" id="path118"></path>
                                        </g>
                                        <g id="g120" transform="translate(108.893874, 0.195694)" fill-rule="nonzero">
                                            <path d="M1.8627451,1.24467737 C1.98506536,1.36074353 2.15861111,1.4189322 2.38400327,1.4189322 C2.57493464,1.4189322 2.72985294,1.35732067 2.84906863,1.23534229 C2.96797386,1.11274157 3.02727124,0.955912217 3.02727124,0.764543072 C3.02727124,0.563838847 2.96486928,0.404520144 2.83944444,0.286586964 C2.71433007,0.168964953 2.54823529,0.110153947 2.34178105,0.110153947 C2.13812092,0.110153947 1.97699346,0.168964953 1.85777778,0.286586964 C1.73918301,0.404520144 1.67957516,0.563838847 1.67957516,0.764543072 C1.67957516,0.968358991 1.74042484,1.1286112 1.8627451,1.24467737 Z M1.50106209,4.83868326 C1.50416667,4.79294137 1.50882353,4.73568621 1.51534314,4.66660662 L2.69849673,5.14674091 C2.8521732,5.20617425 2.92885621,5.33530953 2.92885621,5.53259089 C2.92885621,5.74636423 2.86583333,5.93431051 2.74102941,6.09767442 C2.61560458,6.26072715 2.46689542,6.34256469 2.29490196,6.34256469 C2.05678105,6.34256469 1.86429739,6.21903046 1.71714052,5.97289551 C1.56998366,5.72644939 1.49640523,5.39941042 1.49640523,4.99146741 C1.49640523,4.93483459 1.49795752,4.88380282 1.50106209,4.83868326 Z M1.0055719,7.68619391 C1.06362745,7.75371765 1.11671569,7.81812971 1.16514706,7.8791189 C1.21357843,7.94073043 1.25859477,8.00016377 1.29926471,8.05804127 C1.33962418,8.11622994 1.38681373,8.18126433 1.44021242,8.25345562 C1.47777778,8.31008844 1.5119281,8.36080904 1.54328431,8.40655093 C1.57464052,8.45198166 1.60848039,8.49896823 1.64449346,8.54782181 C1.68019608,8.59636423 1.71527778,8.6505077 1.75004902,8.70994104 C1.7845098,8.76968556 1.82828431,8.83876515 1.88168301,8.91717982 L2.61405229,8.91717982 C2.70160131,8.75723878 2.77455882,8.63401572 2.83261438,8.54782181 C2.89066993,8.46131674 2.95834967,8.3632984 3.03658497,8.25345562 C3.08066993,8.18126433 3.12506536,8.11622994 3.17070261,8.05804127 C3.21571895,8.00016377 3.26228758,7.94073043 3.30916667,7.8791189 C3.35635621,7.81812971 3.40851307,7.75371765 3.46656863,7.68619391 C3.52462418,7.61867016 3.59571895,7.5380773 3.6801634,7.44410416 L2.84410131,7.44410416 L2.24771242,8.40437275 L1.6420098,7.44410416 L0.791977124,7.44410416 C0.876421569,7.5380773 0.947826797,7.61867016 1.0055719,7.68619391 Z M1.65132353,3.97020963 C1.74197712,3.59338356 1.89316993,3.29870619 2.1045915,3.08493285 C2.31601307,2.87178185 2.57183007,2.76505077 2.87235294,2.76505077 C3.28246732,2.76505077 3.65812092,2.96108745 3.99962418,3.35316083 L4.44109477,2.8073698 C4.36875817,2.72273174 4.31101307,2.66236489 4.26723856,2.62595807 C4.22346405,2.58986243 4.16882353,2.54692106 4.10300654,2.49651163 C3.62986928,2.14831313 3.07570261,1.97436947 2.44019608,1.97436947 C2.08006536,1.97436947 1.75284314,2.03535866 1.45883987,2.15795938 C1.16452614,2.28024894 0.914607843,2.45730429 0.709705882,2.68974779 C0.504493464,2.92188012 0.345539216,3.20037668 0.233153595,3.52523747 C0.120457516,3.85009826 0.0639542484,4.21478873 0.0639542484,4.61962005 C0.0639542484,4.98368818 0.118905229,5.3203734 0.228186275,5.62936456 C0.338088235,5.93835572 0.492075163,6.20191615 0.691078431,6.42004586 C0.889771242,6.63817557 1.12696078,6.80838519 1.40264706,6.93067475 C1.67771242,7.05327547 1.98165033,7.11426466 2.31352941,7.11426466 C2.93661765,7.11426466 3.42558824,6.93938749 3.78137255,6.58963315 C4.13653595,6.23956764 4.34050654,5.73360629 4.39390523,5.07143793 L1.65132353,3.97020963 Z" id="path122"></path>
                                        </g>
                                        <g id="g124" transform="translate(114.047966, 1.883726)">
                                            <path d="M0,5.28987881 L0.742303922,5.28987881 L0.732679739,5.49213888 L0.732679739,5.80268588 C0.732679739,5.96947265 0.728022876,6.13657059 0.718398693,6.30429086 C0.709084967,6.47201114 0.696666667,6.65497871 0.680833333,6.85257124 L2.18375817,6.85257124 L2.18375817,5.28987881 L3.10923203,5.28987881 L3.10923203,4.54151654 L2.20269608,4.54151654 L2.20269608,1.79264658 C2.20269608,1.36261055 2.34954248,1.14728136 2.64416667,1.14728136 C2.74754902,1.14728136 2.84037582,1.16035047 2.92357843,1.18524402 C3.00647059,1.21044874 3.10271242,1.25899116 3.21261438,1.33118244 L3.21261438,0.441549296 C3.00584967,0.391451032 2.82112745,0.352866033 2.65844771,0.32610547 C2.49545752,0.299656076 2.32160131,0.286275794 2.13687908,0.286275794 C1.67367647,0.286275794 1.32534314,0.391451032 1.09218954,0.601801507 C0.85872549,0.811529643 0.742303922,1.11958729 0.742303922,1.52410744 L0.742303922,4.55085162 L8.27224999e-16,4.55085162 L0,5.28987881 Z" id="path126"></path>
                                        </g>
                                    </g>
                                </g>
                            </g>
                        </g>
                    </g>
                </g>
            </g>
        </g>
    </g>
</svg>