<?xml version="1.0" encoding="UTF-8"?>
<svg width="22px" height="22px" viewBox="0 0 22 22" version="1.1" xmlns="http://www.w3.org/2000/svg" xmlns:xlink="http://www.w3.org/1999/xlink">
    <!-- Generator: Sketch 52.5 (67469) - http://www.bohemiancoding.com/sketch -->
    <title>circular-clock</title>
    <desc>Created with Sketch.</desc>
    <g id="APP" stroke="none" stroke-width="1" fill="none" fill-rule="evenodd">
        <g id="Home" transform="translate(-206.000000, -593.000000)">
            <g id="item-copy-3" transform="translate(206.000000, 593.000000)">
                <g id="Group-4">
                    <g id="circular-clock">
                        <circle id="Oval" fill="#FF9E24" cx="11" cy="11" r="11"></circle>
                        <circle id="Oval" fill="#FFFFFF" cx="11" cy="11" r="8.91468359"></circle>
                        <path d="M14.7231992,8.45646484 C15.0489883,8.13067578 15.0489883,7.60258984 14.7231992,7.27684375 C14.3974102,6.95105469 13.8693242,6.95105469 13.5435781,7.27684375 L10.3808633,10.4395586 L11.5604844,11.6191797 L14.7231992,8.45646484 Z" id="Path" fill="#181818"></path>
                        <path d="M10.4942148,10.7685273 L5.80228516,15.460457 C5.59869922,15.664043 5.59869922,15.9941289 5.80228516,16.1977578 C5.90412109,16.2995078 6.03749609,16.3504687 6.17091406,16.3504687 C6.30433203,16.3504687 6.43779297,16.2995508 6.53954297,16.1977578 L11.2314727,11.5058281 L10.4942148,10.7685273 Z" id="Path" fill="#EE3840"></path>
                        <path d="M7.35049219,6.17091406 C7.02470313,5.845125 6.49661719,5.845125 6.17087109,6.17091406 C5.84508203,6.49670313 5.84508203,7.02478906 6.17087109,7.35053516 L10.4395156,11.6191797 L11.6191367,10.4395586 L7.35049219,6.17091406 Z" id="Path" fill="#181818"></path>
                        <path d="M11,12.3033281 C10.2813477,12.3033281 9.69667188,11.7186523 9.69667188,11 C9.69667188,10.2813477 10.2813477,9.69667188 11,9.69667188 C11.7186523,9.69667188 12.3033281,10.2813477 12.3033281,11 C12.3033281,11.7186523 11.7186523,12.3033281 11,12.3033281 Z" id="Path" fill="#524E4D"></path>
                        <g id="Group" transform="translate(3.609375, 3.609375)" fill="#7A7674">
                            <path d="M1.34324609,7.91196484 L0.561257812,7.91196484 C0.273324219,7.91196484 0.0399179688,7.67851563 0.0399179688,7.390625 C0.0399179688,7.10273437 0.273324219,6.86928516 0.561257812,6.86928516 L1.34324609,6.86928516 C1.63117969,6.86928516 1.86458594,7.10273437 1.86458594,7.390625 C1.86458594,7.67851563 1.63117969,7.91196484 1.34324609,7.91196484 Z" id="Path"></path>
                            <path d="M7.390625,1.86454297 C7.10269141,1.86454297 6.86928516,1.63109375 6.86928516,1.34320313 L6.86928516,0.561257812 C6.86928516,0.273367187 7.10269141,0.0399179688 7.390625,0.0399179688 C7.67855859,0.0399179688 7.91196484,0.273367187 7.91196484,0.561257812 L7.91196484,1.34324609 C7.91196484,1.63109375 7.67855859,1.86454297 7.390625,1.86454297 Z" id="Path"></path>
                            <path d="M14.2199922,7.91196484 L13.4380039,7.91196484 C13.1500703,7.91196484 12.9166641,7.67851563 12.9166641,7.390625 C12.9166641,7.10273437 13.1500703,6.86928516 13.4380039,6.86928516 L14.2199922,6.86928516 C14.5079258,6.86928516 14.741332,7.10273437 14.741332,7.390625 C14.741332,7.67851563 14.5079258,7.91196484 14.2199922,7.91196484 Z" id="Path"></path>
                            <path d="M7.390625,14.741332 C7.10269141,14.741332 6.86928516,14.5078828 6.86928516,14.2199922 L6.86928516,13.4380039 C6.86928516,13.1501133 7.10269141,12.9166641 7.390625,12.9166641 C7.67855859,12.9166641 7.91196484,13.1501133 7.91196484,13.4380039 L7.91196484,14.2199922 C7.91196484,14.5078828 7.67855859,14.741332 7.390625,14.741332 Z" id="Path"></path>
                        </g>
                    </g>
                </g>
            </g>
        </g>
    </g>
</svg>