<?xml version="1.0" encoding="UTF-8"?>
<svg width="374px" height="209px" viewBox="0 0 374 209" version="1.1" xmlns="http://www.w3.org/2000/svg" xmlns:xlink="http://www.w3.org/1999/xlink">
    <!-- Generator: Sketch 52.5 (67469) - http://www.bohemiancoding.com/sketch -->
    <title>Group 13 Copy</title>
    <desc>Created with Sketch.</desc>
    <defs>
        <path d="M10.292142,0.166643892 C10.8396487,0.074609012 11.7289432,-6.68640808e-25 12.2895631,-6.68640808e-25 L35.9417573,-6.68640808e-25 C36.4973959,-6.68640808e-25 37.3939706,0.0857137616 37.9246289,0.187665282 L46.3539416,1.80712772 C46.8934128,1.91077239 46.8870056,1.994793 46.3299869,1.994793 L0.417411738,1.994793 C-0.135289274,1.994793 -0.146921429,1.9214315 0.408006588,1.82814911 L10.292142,0.166643892 Z" id="path-1"></path>
        <filter x="-18.4%" y="-300.8%" width="136.8%" height="1002.3%" filterUnits="objectBoundingBox" id="filter-2">
            <feOffset dx="0" dy="3" in="SourceAlpha" result="shadowOffsetOuter1"></feOffset>
            <feGaussianBlur stdDeviation="2.5" in="shadowOffsetOuter1" result="shadowBlurOuter1"></feGaussianBlur>
            <feColorMatrix values="0 0 0 0 0   0 0 0 0 0   0 0 0 0 0  0 0 0 0.16052423 0" type="matrix" in="shadowBlurOuter1"></feColorMatrix>
        </filter>
        <path d="M14.7457181,0.344435332 C15.1684163,0.154208951 15.8850437,3.54978915e-18 16.3360676,7.8310697e-18 L30.4432344,1.41741353e-16 C30.898862,1.46066334e-16 31.6170689,0.153408153 32.0331821,0.336396774 L34.2833666,1.32593072 C34.7058429,1.51171753 34.6834229,1.6623275 34.2215214,1.6623275 L12.6440633,1.6623275 C12.1874309,1.6623275 12.1581423,1.50891935 12.5826198,1.31789217 L14.7457181,0.344435332 Z" id="path-3"></path>
        <filter x="-42.4%" y="-360.9%" width="185.0%" height="1182.8%" filterUnits="objectBoundingBox" id="filter-4">
            <feOffset dx="0" dy="3" in="SourceAlpha" result="shadowOffsetOuter1"></feOffset>
            <feGaussianBlur stdDeviation="2.5" in="shadowOffsetOuter1" result="shadowBlurOuter1"></feGaussianBlur>
            <feColorMatrix values="0 0 0 0 0   0 0 0 0 0   0 0 0 0 0  0 0 0 0.16 0" type="matrix" in="shadowBlurOuter1"></feColorMatrix>
        </filter>
    </defs>
    <g id="APP" stroke="none" stroke-width="1" fill="none" fill-rule="evenodd">
        <g id="00--Welcome" transform="translate(-1.000000, -305.000000)">
            <g id="Group-13-Copy" transform="translate(1.000000, 304.500000)">
                <g id="Group-15" transform="translate(0.000000, 0.500000)">
                    <polygon id="Fill-2" fill="#E4F4FD" points="158.457583 51.3828943 158.457583 158.943666 192.116714 158.943666 192.116714 37.1274925 158.457583 46.3545234"></polygon>
                    <g id="Page-1" transform="translate(279.585102, 93.832282) scale(-1, 1) translate(-279.585102, -93.832282) translate(238.085102, 27.832282)" fill="#E4F4FD">
                        <polygon id="Fill-2" points="21.5396352 47.9356508 5.48689093 47.9356508 5.48689093 61.0398002 0.135976187 61.0398002 0.135976187 100.352249 0.142825357 100.352249 0.142825357 126.560548 26.8905499 126.560548 26.8905499 61.0398002 21.5396352 61.0398002"></polygon>
                        <path d="M82.0371529,52.4515423 L76.6930873,52.4515423 L76.6930873,26.2432433 L65.9912578,26.2432433 L65.9912578,3.30993343 C65.9912578,1.50051248 64.7943652,0.0349443986 63.3149443,0.0349443986 C61.8372356,0.0349443986 60.640343,1.50051248 60.640343,3.30993343 L60.640343,26.2432433 L49.9316644,26.2432433 L49.9385135,52.4515423 L44.5807496,52.4515423 L44.5807496,131.076439 L82.0371529,131.076439 L82.0371529,104.86814 L82.044002,104.86814 L82.0371529,52.4515423 Z" id="Fill-3"></path>
                        <polygon id="Rectangle-124" points="52.355868 0 68.2913052 0 74.5955287 27.3964085 52.355868 27.3964085"></polygon>
                        <polygon id="Fill-4" points="12.4821103 45.8994675 23.1839398 45.8994675 23.1839398 59.003617 28.5348545 59.003617 28.5348545 131.076439 39.236684 131.076439 39.236684 6.58701913 12.4821103 6.58701913"></polygon>
                    </g>
                    <g id="Group-3" transform="translate(209.423472, 67.192890)">
                        <rect id="Rectangle-118" fill="#DAF0FB" x="5.55991518" y="9.29521002" width="29.1895547" height="75.8293449"></rect>
                        <rect id="Rectangle-118" fill="#DAF0FB" x="5.55991518" y="36.2023969" width="49.1125841" height="48.922158"></rect>
                        <path d="M57.1759438,85.0646742 L57.1759438,38.3154428 L59.1041224,38.3154428 L57.3927805,33.9629362 L38.54578,33.9629362 L38.54578,6.66437205 L40.8998481,6.66437205 L40.8998481,2.3118655 L19.4852787,2.3118655 L19.4852787,0 L3.63952048,0 L3.63952048,2.3118655 L0,2.3118655 L0,6.66437205 L2.35406809,6.66437205 L2.35406809,85.0646742 L0,85.0646742 L0,88.0598844 L59.9603493,88.0598844 L59.9603493,85.0646742 L57.1759438,85.0646742 Z M11.7058454,81.1524671 L8.10524435,81.1524671 L8.10524435,77.3459318 L11.7102934,77.3459318 L11.7102934,81.1524671 L11.7058454,81.1524671 Z M11.7058454,73.7319542 L8.10524435,73.7319542 L8.10524435,69.9254189 L11.7102934,69.9254189 L11.7102934,73.7319542 L11.7058454,73.7319542 Z M11.7058454,66.3067447 L8.10524435,66.3067447 L8.10524435,62.4990353 L11.7102934,62.4990353 L11.7102934,66.3067447 L11.7058454,66.3067447 Z M11.7058454,58.8850577 L8.10524435,58.8850577 L8.10524435,55.0832189 L11.7102934,55.0832189 L11.7102934,58.8850577 L11.7058454,58.8850577 Z M11.7058454,51.4645447 L8.10524435,51.4645447 L8.10524435,47.6580095 L11.7102934,47.6580095 L11.7102934,51.4645447 L11.7058454,51.4645447 Z M11.7058454,44.0393353 L8.10524435,44.0393353 L8.10524435,40.2328 L11.7102934,40.2328 L11.7102934,44.0393353 L11.7058454,44.0393353 Z M11.7058454,36.6188223 L8.10524435,36.6188223 L8.10524435,32.8111129 L11.7102934,32.8111129 L11.7102934,36.6188223 L11.7058454,36.6188223 Z M11.7058454,29.1971353 L8.10524435,29.1971353 L8.10524435,25.3906 L11.7102934,25.3906 L11.7102934,29.1971353 L11.7058454,29.1971353 Z M11.7058454,21.7719258 L8.10524435,21.7719258 L8.10524435,17.9653906 L11.7102934,17.9653906 L11.7102934,21.7719258 L11.7058454,21.7719258 Z M11.7058454,14.3514129 L8.10524435,14.3514129 L8.10524435,10.5437035 L11.7102934,10.5437035 L11.7102934,14.3514129 L11.7058454,14.3514129 Z M18.7391381,81.1524671 L15.1329771,81.1524671 L15.1329771,77.3459318 L18.7391381,77.3459318 L18.7391381,81.1524671 Z M18.7391381,73.7319542 L15.1329771,73.7319542 L15.1329771,69.9254189 L18.7391381,69.9254189 L18.7391381,73.7319542 Z M18.7391381,66.3067447 L15.1329771,66.3067447 L15.1329771,62.4990353 L18.7391381,62.4990353 L18.7391381,66.3067447 Z M18.7391381,58.8850577 L15.1329771,58.8850577 L15.1329771,55.0832189 L18.7391381,55.0832189 L18.7391381,58.8850577 Z M18.7391381,51.4645447 L15.1329771,51.4645447 L15.1329771,47.6580095 L18.7391381,47.6580095 L18.7391381,51.4645447 Z M18.7391381,44.0393353 L15.1329771,44.0393353 L15.1329771,40.2328 L18.7391381,40.2328 L18.7391381,44.0393353 Z M18.7391381,36.6188223 L15.1329771,36.6188223 L15.1329771,32.8111129 L18.7391381,32.8111129 L18.7391381,36.6188223 Z M18.7391381,29.1971353 L15.1329771,29.1971353 L15.1329771,25.3906 L18.7391381,25.3906 L18.7391381,29.1971353 Z M18.7391381,21.7719258 L15.1329771,21.7719258 L15.1329771,17.9653906 L18.7391381,17.9653906 L18.7391381,21.7719258 Z M18.7391381,14.3514129 L15.1329771,14.3514129 L15.1329771,10.5437035 L18.7391381,10.5437035 L18.7391381,14.3514129 Z M25.7668709,81.1524671 L22.1618219,81.1524671 L22.1618219,77.3459318 L25.7668709,77.3459318 L25.7668709,81.1524671 Z M25.7668709,73.7319542 L22.1618219,73.7319542 L22.1618219,69.9254189 L25.7668709,69.9254189 L25.7668709,73.7319542 Z M25.7668709,66.3067447 L22.1618219,66.3067447 L22.1618219,62.4990353 L25.7668709,62.4990353 L25.7668709,66.3067447 Z M25.7668709,58.8850577 L22.1618219,58.8850577 L22.1618219,55.0832189 L25.7668709,55.0832189 L25.7668709,58.8850577 Z M25.7668709,51.4645447 L22.1618219,51.4645447 L22.1618219,47.6580095 L25.7668709,47.6580095 L25.7668709,51.4645447 Z M25.7668709,44.0393353 L22.1618219,44.0393353 L22.1618219,40.2328 L25.7668709,40.2328 L25.7668709,44.0393353 Z M25.7668709,36.6188223 L22.1618219,36.6188223 L22.1618219,32.8111129 L25.7668709,32.8111129 L25.7668709,36.6188223 Z M25.7668709,29.1971353 L22.1618219,29.1971353 L22.1618219,25.3906 L25.7668709,25.3906 L25.7668709,29.1971353 Z M25.7668709,21.7719258 L22.1618219,21.7719258 L22.1618219,17.9653906 L25.7668709,17.9653906 L25.7668709,21.7719258 Z M25.7668709,14.3514129 L22.1618219,14.3514129 L22.1618219,10.5437035 L25.7668709,10.5437035 L25.7668709,14.3514129 Z M32.7990516,81.1524671 L29.1940026,81.1524671 L29.1940026,77.3459318 L32.7990516,77.3459318 L32.7990516,81.1524671 Z M32.7990516,73.7319542 L29.1940026,73.7319542 L29.1940026,69.9254189 L32.7990516,69.9254189 L32.7990516,73.7319542 Z M32.7990516,66.3067447 L29.1940026,66.3067447 L29.1940026,62.4990353 L32.7990516,62.4990353 L32.7990516,66.3067447 Z M32.7990516,58.8850577 L29.1940026,58.8850577 L29.1940026,55.0832189 L32.7990516,55.0832189 L32.7990516,58.8850577 Z M32.7990516,51.4645447 L29.1940026,51.4645447 L29.1940026,47.6580095 L32.7990516,47.6580095 L32.7990516,51.4645447 Z M32.7990516,44.0393353 L29.1940026,44.0393353 L29.1940026,40.2328 L32.7990516,40.2328 L32.7990516,44.0393353 Z M32.7990516,36.6188223 L29.1940026,36.6188223 L29.1940026,32.8111129 L32.7990516,32.8111129 L32.7990516,36.6188223 Z M32.7990516,29.1971353 L29.1940026,29.1971353 L29.1940026,25.3906 L32.7990516,25.3906 L32.7990516,29.1971353 Z M32.7990516,21.7719258 L29.1940026,21.7719258 L29.1940026,17.9653906 L32.7990516,17.9653906 L32.7990516,21.7719258 Z M32.7990516,14.3514129 L29.1940026,14.3514129 L29.1940026,10.5437035 L32.7990516,10.5437035 L32.7990516,14.3514129 Z M43.0415274,78.7220143 L38.7592807,78.7220143 L38.7592807,69.6823736 L43.0415274,69.6823736 L43.0415274,78.7220143 Z M43.0415274,65.1549214 L38.7592807,65.1549214 L38.7592807,56.1152808 L43.0415274,56.1152808 L43.0415274,65.1549214 Z M43.0415274,51.5925251 L38.7592807,51.5925251 L38.7592807,42.5481879 L43.0415274,42.5481879 L43.0415274,51.5925251 Z M51.6071327,78.7220143 L47.324886,78.7220143 L47.324886,69.6823736 L51.6071327,69.6823736 L51.6071327,78.7220143 Z M51.6071327,65.1549214 L47.324886,65.1549214 L47.324886,56.1152808 L51.6071327,56.1152808 L51.6071327,65.1549214 Z M51.6071327,51.5925251 L47.324886,51.5925251 L47.324886,42.5481879 L51.6071327,42.5481879 L51.6071327,51.5925251 Z" id="Page-1" fill="#D1ECF9"></path>
                    </g>
                    <g id="Page-1" transform="translate(62.549046, 30.767612)">
                        <polygon id="Rectangle-121" fill="#F2FAFC" points="0 7.3383237 23.8877884 7.3383237 47.7755768 69.263199 68.4383195 69.263199 68.4383195 74.6648147 47.7755768 74.6648147 0 74.6648147"></polygon>
                        <polygon id="Fill-2" fill="#E4F4FD" points="34.7791885 14.3397893 34.7791885 121.706 68.4383195 121.706 68.4383195 0.1101734 34.7791885 0.1101734"></polygon>
                        <polygon id="Fill-3" fill="#E4F4FD" points="1.77253644 121.706 35.4327392 121.706 35.4327392 24.6882999 1.77253644 60.9080867"></polygon>
                    </g>
                    <g id="Group" transform="translate(314.135208, 0.435874)">
                        <rect id="Rectangle-122" fill="#DAF0FB" x="35.2423702" y="36.6395737" width="22.4269628" height="120.796094"></rect>
                        <path d="M60.1564191,39.1136354 L60.1564191,37.3048427 L31.4324777,18.6659227 L31.4324777,161.443121 L60.1665689,161.443121 L60.1665689,159.925632 L58.2837805,159.925632 L58.2837805,158.064902 L60.1665689,158.064902 L60.1665689,156.204171 L58.2837805,156.204171 L58.2837805,154.350215 L60.1665689,154.350215 L60.1665689,152.489485 L58.2837805,152.489485 L58.2837805,150.628754 L60.1665689,150.628754 L60.1665689,148.768024 L58.2837805,148.768024 L58.2837805,146.905035 L60.1665689,146.905035 L60.1665689,145.044304 L58.2837805,145.044304 L58.2837805,143.183574 L60.1665689,143.183574 L60.1665689,141.322843 L58.2837805,141.322843 L58.2837805,139.471145 L60.1665689,139.471145 L60.1665689,137.626222 L58.2837805,137.626222 L58.2837805,135.765491 L60.1665689,135.765491 L60.1665689,133.895728 L58.2837805,133.895728 L58.2837805,132.041772 L60.1665689,132.041772 L60.1665689,130.181041 L58.2837805,130.181041 L58.2837805,128.329343 L60.1665689,128.329343 L60.1665689,126.468613 L58.2837805,126.468613 L58.2837805,124.607882 L60.1665689,124.607882 L60.1665689,122.753926 L58.2837805,122.753926 L58.2837805,120.893196 L60.1665689,120.893196 L60.1665689,119.041498 L58.2837805,119.041498 L58.2837805,117.171735 L60.1665689,117.171735 L60.1665689,115.317778 L58.2837805,115.317778 L58.2837805,113.457048 L60.1665689,113.457048 L60.1665689,111.596317 L58.2837805,111.596317 L58.2837805,109.735587 L60.1665689,109.735587 L60.1665689,107.872598 L58.2837805,107.872598 L58.2837805,106.0209 L60.1665689,106.0209 L60.1665689,104.169202 L58.2837805,104.169202 L58.2837805,102.306213 L60.1665689,102.306213 L60.1665689,100.43645 L58.2837805,100.43645 L58.2837805,98.5847523 L60.1665689,98.5847523 L60.1665689,96.7330544 L58.2837805,96.7330544 L58.2837805,94.8723239 L60.1665689,94.8723239 L60.1665689,93.0183678 L58.2837805,93.0183678 L58.2837805,91.1576372 L60.1665689,91.1576372 L60.1665689,89.2969067 L58.2837805,89.2969067 L58.2837805,87.4361761 L60.1665689,87.4361761 L60.1665689,85.58222 L58.2837805,85.58222 L58.2837805,83.7124568 L60.1665689,83.7124568 L60.1665689,81.8607589 L58.2837805,81.8607589 L58.2837805,80.0000283 L60.1665689,80.0000283 L60.1665689,78.1460722 L58.2837805,78.1460722 L58.2837805,76.2853417 L60.1665689,76.2853417 L60.1665689,74.4246111 L58.2837805,74.4246111 L58.2837805,72.5638805 L60.1665689,72.5638805 L60.1665689,70.7099245 L58.2837805,70.7099245 L58.2837805,68.8582266 L60.1665689,68.8582266 L60.1665689,66.997496 L58.2837805,66.997496 L58.2837805,65.1367654 L60.1665689,65.1367654 L60.1665689,63.2828093 L58.2837805,63.2828093 L58.2837805,61.4220788 L60.1665689,61.4220788 L60.1665689,59.5613482 L58.2837805,59.5613482 L58.2837805,57.7006176 L60.1665689,57.7006176 L60.1665689,55.8376289 L58.2837805,55.8376289 L58.2837805,53.9768983 L60.1665689,53.9768983 L60.1665689,52.1161678 L58.2837805,52.1161678 L58.2837805,50.2554372 L60.1665689,50.2554372 L60.1665689,48.4014811 L58.2837805,48.4014811 L58.2837805,46.5407505 L60.1665689,46.5407505 L60.1665689,44.68002 L58.2837805,44.68002 L58.2837805,42.8192894 L60.1665689,42.8192894 L60.1665689,40.9585588 L58.2837805,40.9585588 L58.2837805,39.0955701 L60.1564191,39.1136354 Z M55.814841,40.1456183 L35.555835,40.1456183 L35.555835,39.2197693 L55.814841,39.2197693 L55.814841,40.1456183 Z M55.814841,43.9664388 L35.555835,43.9664388 L35.555835,43.0383317 L55.814841,43.0383317 L55.814841,43.9664388 Z M55.814841,47.7759685 L35.555835,47.7759685 L35.555835,46.8501196 L55.814841,46.8501196 L55.814841,47.7759685 Z M55.814841,51.5945309 L35.555835,51.5945309 L35.555835,50.6596493 L55.814841,50.6596493 L55.814841,51.5945309 Z M55.814841,55.4063188 L35.555835,55.4063188 L35.555835,54.4804698 L55.814841,54.4804698 L55.814841,55.4063188 Z M55.814841,59.2248811 L35.555835,59.2248811 L35.555835,58.2990322 L55.814841,58.2990322 L55.814841,59.2248811 Z M55.814841,63.036669 L35.555835,63.036669 L35.555835,62.1108201 L55.814841,62.1108201 L55.814841,63.036669 Z M55.814841,66.8461987 L35.555835,66.8461987 L35.555835,65.9203498 L55.814841,65.9203498 L55.814841,66.8461987 Z M55.814841,70.6670193 L35.555835,70.6670193 L35.555835,69.7321376 L55.814841,69.7321376 L55.814841,70.6670193 Z M55.814841,74.476549 L35.555835,74.476549 L35.555835,73.5507 L55.814841,73.5507 L55.814841,74.476549 Z M55.814841,78.2973695 L35.555835,78.2973695 L35.555835,77.3624879 L55.814841,77.3624879 L55.814841,78.2973695 Z M55.814841,82.1068992 L35.555835,82.1068992 L35.555835,81.1720176 L55.814841,81.1720176 L55.814841,82.1068992 Z M55.814841,85.9186871 L35.555835,85.9186871 L35.555835,84.9838055 L55.814841,84.9838055 L55.814841,85.9186871 Z M55.814841,89.7282168 L35.555835,89.7282168 L35.555835,88.8023678 L55.814841,88.8023678 L55.814841,89.7282168 Z M55.814841,93.5490373 L35.555835,93.5490373 L35.555835,92.6141557 L55.814841,92.6141557 L55.814841,93.5490373 Z M55.814841,97.358567 L35.555835,97.358567 L35.555835,96.4327181 L55.814841,96.4327181 L55.814841,97.358567 Z M55.814841,101.177129 L35.555835,101.177129 L35.555835,100.242248 L55.814841,100.242248 L55.814841,101.177129 Z M55.814841,104.99795 L35.555835,104.99795 L35.555835,104.054036 L55.814841,104.054036 L55.814841,104.99795 Z M55.814841,108.80748 L35.555835,108.80748 L35.555835,107.872598 L55.814841,107.872598 L55.814841,108.80748 Z M55.814841,112.619268 L35.555835,112.619268 L35.555835,111.693419 L55.814841,111.693419 L55.814841,112.619268 Z M55.814841,116.428797 L35.555835,116.428797 L35.555835,115.502948 L55.814841,115.502948 L55.814841,116.428797 Z M55.814841,120.249618 L35.555835,120.249618 L35.555835,119.323769 L55.814841,119.323769 L55.814841,120.249618 Z M55.814841,124.059147 L35.555835,124.059147 L35.555835,123.133298 L55.814841,123.133298 L55.814841,124.059147 Z M55.814841,127.879968 L35.555835,127.879968 L35.555835,126.954119 L55.814841,126.954119 L55.814841,127.879968 Z M55.814841,131.689498 L35.555835,131.689498 L35.555835,130.754616 L55.814841,130.754616 L55.814841,131.689498 Z M55.814841,135.501286 L35.555835,135.501286 L35.555835,134.575437 L55.814841,134.575437 L55.814841,135.501286 Z M55.814841,139.319848 L35.555835,139.319848 L35.555835,138.393999 L55.814841,138.393999 L55.814841,139.319848 Z M55.814841,143.131636 L35.555835,143.131636 L35.555835,142.203529 L55.814841,142.203529 L55.814841,143.131636 Z M55.814841,146.941166 L35.555835,146.941166 L35.555835,146.015317 L55.814841,146.015317 L55.814841,146.941166 Z M55.814841,150.761986 L35.555835,150.761986 L35.555835,149.833879 L55.814841,149.833879 L55.814841,150.761986 Z M55.814841,154.580548 L35.555835,154.580548 L35.555835,153.645667 L55.814841,153.645667 L55.814841,154.580548 Z M55.814841,158.390078 L35.555835,158.390078 L35.555835,157.464229 L55.814841,157.464229 L55.814841,158.390078 Z" id="Fill-1" fill="#D1ECF9"></path>
                        <polygon id="Fill-2" fill="#D1ECF9" points="41.8588625 0.433472873 43.8304616 0.433472873 43.8304616 13.3569693 41.8588625 13.3569693"></polygon>
                        <polygon id="Fill-3" fill="#D1ECF9" points="44.8530542 36.891598 46.8246534 36.891598 46.8246534 160.596308 44.8530542 160.596308"></polygon>
                        <polygon id="Fill-4" fill="#D1ECF9" points="49.1032841 26.9330763 49.1032841 14.5650893 38.4180794 14.5650893 38.4180794 19.9982419"></polygon>
                        <g id="Group-8" transform="translate(0.000000, 36.691619)">
                            <rect id="Rectangle-122" fill="#DAF0FB" x="3.8446222" y="46.7979197" width="22.4269628" height="72.9929007"></rect>
                            <polygon id="Fill-5" fill="#D1ECF9" points="7.8214994 33.7615215 7.8214994 18.4544299 18.5067041 18.4544299 18.5067041 25.1799344"></polygon>
                            <polygon id="Fill-6" fill="#D1ECF9" points="12.2518882 0.229039653 14.2234874 0.229039653 14.2234874 16.2265716 12.2518882 16.2265716"></polygon>
                            <path d="M0.0112262968,122.590732 L0.0112262968,124.751503 L28.7351677,124.751503 L28.7351677,21.3587521 L0.0112262968,44.4312017 L0.0112262968,46.6674459 L1.89401468,46.6674459 L1.89401468,48.9735727 L0.0112262968,48.9735727 L0.0112262968,51.265723 L1.89401468,51.265723 L1.89401468,53.5690546 L0.0112262968,53.5690546 L0.0112262968,55.8723861 L1.89401468,55.8723861 L1.89401468,58.1785129 L0.0112262968,58.1785129 L0.0112262968,60.4706633 L1.89401468,60.4706633 L1.89401468,62.7739948 L0.0112262968,62.7739948 L0.0112262968,65.0773263 L1.89401468,65.0773263 L1.89401468,67.3834532 L0.0112262968,67.3834532 L0.0112262968,69.6867847 L1.89401468,69.6867847 L1.89401468,71.9901162 L0.0112262968,71.9901162 L0.0112262968,74.2934478 L1.89401468,74.2934478 L1.89401468,76.5967793 L0.0112262968,76.5967793 L0.0112262968,78.9029061 L1.89401468,78.9029061 L1.89401468,81.2062377 L0.0112262968,81.2062377 L0.0112262968,83.5095692 L1.89401468,83.5095692 L1.89401468,85.8129007 L0.0112262968,85.8129007 L0.0112262968,88.1190276 L1.89401468,88.1190276 L1.89401468,90.4223591 L0.0112262968,90.4223591 L0.0112262968,92.7256906 L1.89401468,92.7256906 L1.89401468,95.0290222 L0.0112262968,95.0290222 L0.0112262968,97.3323537 L1.89401468,97.3323537 L1.89401468,99.6272993 L0.0112262968,99.6272993 L0.0112262968,101.930631 L1.89401468,101.930631 L1.89401468,104.222781 L0.0112262968,104.222781 L0.0112262968,106.526113 L1.89401468,106.526113 L1.89401468,108.83224 L0.0112262968,108.83224 L0.0112262968,111.135571 L1.89401468,111.135571 L1.89401468,113.427721 L0.0112262968,113.427721 L0.0112262968,115.731053 L1.89401468,115.731053 L1.89401468,118.03718 L0.0112262968,118.03718 L0.0112262968,120.340511 L1.89401468,120.340511 L1.89401468,122.632662 L0.0112262968,122.632662 L0.0112262968,122.590732 Z M4.35280436,48.7862873 L24.6118104,48.7862873 L24.6118104,49.9435437 L4.35280436,49.9435437 L4.35280436,48.7862873 Z M4.35280436,53.5159438 L24.6118104,53.5159438 L24.6118104,54.6732002 L4.35280436,54.6732002 L4.35280436,53.5159438 Z M4.35280436,58.2316237 L24.6118104,58.2316237 L24.6118104,59.3776989 L4.35280436,59.3776989 L4.35280436,58.2316237 Z M4.35280436,62.950099 L24.6118104,62.950099 L24.6118104,64.0961742 L4.35280436,64.0961742 L4.35280436,62.950099 Z M4.35280436,67.6769602 L24.6118104,67.6769602 L24.6118104,68.8230354 L4.35280436,68.8230354 L4.35280436,67.6769602 Z M4.35280436,72.3954355 L24.6118104,72.3954355 L24.6118104,73.5415106 L4.35280436,73.5415106 L4.35280436,72.3954355 Z M4.35280436,77.1222967 L24.6118104,77.1222967 L24.6118104,78.2683718 L4.35280436,78.2683718 L4.35280436,77.1222967 Z M4.35280436,81.8379766 L24.6118104,81.8379766 L24.6118104,82.9868471 L4.35280436,82.9868471 L4.35280436,81.8379766 Z M4.35280436,86.5676331 L24.6118104,86.5676331 L24.6118104,87.7137083 L4.35280436,87.7137083 L4.35280436,86.5676331 Z M4.35280436,91.2833131 L24.6118104,91.2833131 L24.6118104,92.4321836 L4.35280436,92.4321836 L4.35280436,91.2833131 Z M4.35280436,96.0017884 L24.6118104,96.0017884 L24.6118104,97.1478635 L4.35280436,97.1478635 L4.35280436,96.0017884 Z M4.35280436,100.72865 L24.6118104,100.72865 L24.6118104,101.874725 L4.35280436,101.874725 L4.35280436,100.72865 Z M4.35280436,105.447125 L24.6118104,105.447125 L24.6118104,106.5932 L4.35280436,106.5932 L4.35280436,105.447125 Z M4.35280436,110.173986 L24.6118104,110.173986 L24.6118104,111.320061 L4.35280436,111.320061 L4.35280436,110.173986 Z M4.35280436,114.892461 L24.6118104,114.892461 L24.6118104,116.038536 L4.35280436,116.038536 L4.35280436,114.892461 Z M4.35280436,119.619323 L24.6118104,119.619323 L24.6118104,120.765398 L4.35280436,120.765398 L4.35280436,119.619323 Z" id="Fill-7" fill="#D1ECF9"></path>
                        </g>
                    </g>
                    <g id="Group-2" transform="translate(0.000000, 49.847254)">
                        <polygon id="Fill-1" fill="#D1ECF9" points="49.5759104 38.0107696 69.2634789 38.0107696 69.2634789 0.500141705 33.579761 0.500141705 33.579761 9.50269239 49.5759104 9.50269239"></polygon>
                        <rect id="Rectangle-112" fill="#DAF0FB" x="12.5098092" y="13.0137882" width="35.6761224" height="96.1888693"></rect>
                        <rect id="Rectangle-112" fill="#DAF0FB" x="49.5759104" y="40.1729983" width="35.6761224" height="69.0296591"></rect>
                        <path d="M10.2007733,9.50269239 L10.2007733,107.030325 L20.0445576,107.030325 L20.0445576,89.0252235 L33.579761,89.0252235 L33.579761,9.50269239 L10.2007733,9.50269239 Z M21.2750306,83.023523 L15.1226655,83.023523 L15.1226655,74.0209723 L21.2750306,74.0209723 L21.2750306,83.023523 Z M21.2750306,71.0201221 L15.1226655,71.0201221 L15.1226655,63.5179965 L21.2750306,63.5179965 L21.2750306,71.0201221 Z M21.2750306,60.5171463 L15.1226655,60.5171463 L15.1226655,51.5145956 L21.2750306,51.5145956 L21.2750306,60.5171463 Z M21.2750306,48.5137454 L15.1226655,48.5137454 L15.1226655,39.5111947 L21.2750306,39.5111947 L21.2750306,48.5137454 Z M21.2750306,36.5103445 L15.1226655,36.5103445 L15.1226655,27.5077938 L21.2750306,27.5077938 L21.2750306,36.5103445 Z M21.2750306,24.5069435 L15.1226655,24.5069435 L15.1226655,17.004818 L21.2750306,17.004818 L21.2750306,24.5069435 Z M32.3492879,83.023523 L26.1969228,83.023523 L26.1969228,74.0209723 L32.3492879,74.0209723 L32.3492879,83.023523 Z M32.3492879,71.0201221 L26.1969228,71.0201221 L26.1969228,63.5179965 L32.3492879,63.5179965 L32.3492879,71.0201221 Z M32.3492879,60.5171463 L26.1969228,60.5171463 L26.1969228,51.5145956 L32.3492879,51.5145956 L32.3492879,60.5171463 Z M32.3492879,48.5137454 L26.1969228,48.5137454 L26.1969228,39.5111947 L32.3492879,39.5111947 L32.3492879,48.5137454 Z M32.3492879,36.5103445 L26.1969228,36.5103445 L26.1969228,27.5077938 L32.3492879,27.5077938 L32.3492879,36.5103445 Z M26.1969228,24.5069435 L26.1969228,17.004818 L32.3492879,17.004818 L32.3492879,24.5069435 L26.1969228,24.5069435 Z" id="Fill-2" fill="#D1ECF9"></path>
                        <path d="M38.5016531,107.030325 L48.3454373,107.030325 L48.3454373,38.0107696 L49.5759104,38.0107696 L49.5759104,9.50269239 L33.579761,9.50269239 L33.579761,89.0252235 L38.5016531,89.0252235 L38.5016531,107.030325 Z M37.2711801,17.004818 L44.6540182,17.004818 L44.6540182,24.5069435 L37.2711801,24.5069435 L37.2711801,17.004818 Z M37.2711801,27.5077938 L44.6540182,27.5077938 L44.6540182,36.5103445 L37.2711801,36.5103445 L37.2711801,27.5077938 Z M37.2711801,39.5111947 L44.6540182,39.5111947 L44.6540182,48.5137454 L37.2711801,48.5137454 L37.2711801,39.5111947 Z M37.2711801,51.5145956 L44.6540182,51.5145956 L44.6540182,60.5171463 L37.2711801,60.5171463 L37.2711801,51.5145956 Z M37.2711801,63.5179965 L44.6540182,63.5179965 L44.6540182,71.0201221 L37.2711801,71.0201221 L37.2711801,63.5179965 Z M37.2711801,83.023523 L37.2711801,74.0209723 L44.6540182,74.0209723 L44.6540182,83.023523 L37.2711801,83.023523 Z" id="Fill-3" fill="#D1ECF9"></path>
                        <path d="M69.2634789,38.0107696 L69.2634789,47.0133203 L72.954898,47.0133203 L72.954898,56.0158709 L69.2634789,56.0158709 L69.2634789,60.5171463 L72.954898,60.5171463 L72.954898,69.519697 L69.2634789,69.519697 L69.2634789,72.5205472 L72.954898,72.5205472 L72.954898,81.5230979 L69.2634789,81.5230979 L69.2634789,86.0243732 L74.185371,86.0243732 L74.185371,107.030325 L88.9510474,107.030325 L88.9510474,38.0107696 L69.2634789,38.0107696 Z M85.2596283,95.0269239 L77.8767901,95.0269239 L77.8767901,86.0243732 L85.2596283,86.0243732 L85.2596283,95.0269239 Z M85.2596283,81.5230979 L77.8767901,81.5230979 L77.8767901,72.5205472 L85.2596283,72.5205472 L85.2596283,81.5230979 Z M85.2596283,69.519697 L77.8767901,69.519697 L77.8767901,60.5171463 L85.2596283,60.5171463 L85.2596283,69.519697 Z M85.2596283,56.0158709 L77.8767901,56.0158709 L77.8767901,47.0133203 L85.2596283,47.0133203 L85.2596283,56.0158709 Z" id="Fill-4" fill="#D1ECF9"></path>
                        <path d="M65.5720598,81.5230979 L65.5720598,72.5205472 L69.2634789,72.5205472 L69.2634789,69.519697 L65.5720598,69.519697 L65.5720598,60.5171463 L69.2634789,60.5171463 L69.2634789,56.0158709 L65.5720598,56.0158709 L65.5720598,47.0133203 L69.2634789,47.0133203 L69.2634789,38.0107696 L49.5759104,38.0107696 L49.5759104,107.030325 L64.3415868,107.030325 L64.3415868,86.0243732 L69.2634789,86.0243732 L69.2634789,81.5230979 L65.5720598,81.5230979 Z M60.6501677,95.0269239 L53.2673295,95.0269239 L53.2673295,86.0243732 L60.6501677,86.0243732 L60.6501677,95.0269239 Z M60.6501677,81.5230979 L53.2673295,81.5230979 L53.2673295,72.5205472 L60.6501677,72.5205472 L60.6501677,81.5230979 Z M60.6501677,69.519697 L53.2673295,69.519697 L53.2673295,60.5171463 L60.6501677,60.5171463 L60.6501677,69.519697 Z M60.6501677,56.0158709 L53.2673295,56.0158709 L53.2673295,47.0133203 L60.6501677,47.0133203 L60.6501677,56.0158709 Z" id="Fill-5" fill="#D1ECF9"></path>
                        <polygon id="Fill-6" fill="#D1ECF9" points="48.3454373 38.0107696 49.5759104 38.0107696 49.5759104 107.030325 48.3454373 107.030325"></polygon>
                        <polygon id="Fill-7" fill="#D1ECF9" points="0.35698909 106.148075 98.7948317 106.148075 98.7948317 112.001733 0.35698909 112.001733"></polygon>
                    </g>
                    <g id="Group-4" transform="translate(126.951397, 28.810726)">
                        <rect id="Rectangle-117" fill="#DAF0FB" x="3.9143081" y="45.2401219" width="25.7225961" height="67.5664159"></rect>
                        <path d="M29.1810465,34.1096157 L25.9396303,34.1096157 L25.9396303,20.4657694 L19.4547227,20.4657694 L19.4547227,3.40987007 C19.4547227,1.52592777 18.0041786,0 16.2112314,0 C14.4203593,0 12.9698152,1.52592777 12.9698152,3.40987007 L12.9698152,20.4657694 L6.48490758,20.4657694 L6.48490758,34.1096157 L3.2414162,34.1096157 L3.2414162,40.9315389 L0,40.9315389 L0,95.5069241 L0.0083006817,95.5069241 L0.0083006817,122.794617 L32.4328386,122.794617 L32.4328386,40.9315389 L29.1810465,40.9315389 L29.1810465,34.1096157 Z M12.9698152,109.15077 L6.48490758,109.15077 L6.48490758,102.328847 L12.9698152,102.328847 L12.9698152,109.15077 Z M12.9698152,95.5069241 L6.48490758,95.5069241 L6.48490758,88.6850009 L12.9698152,88.6850009 L12.9698152,95.5069241 Z M12.9698152,81.8630778 L6.48490758,81.8630778 L6.48490758,75.0411546 L12.9698152,75.0411546 L12.9698152,81.8630778 Z M12.9698152,68.2192315 L6.48490758,68.2192315 L6.48490758,61.3973083 L12.9698152,61.3973083 L12.9698152,68.2192315 Z M12.9698152,54.5753852 L6.48490758,54.5753852 L6.48490758,47.753462 L12.9698152,47.753462 L12.9698152,54.5753852 Z M25.9396303,109.15077 L19.4547227,109.15077 L19.4547227,102.328847 L25.9396303,102.328847 L25.9396303,109.15077 Z M25.9396303,95.5069241 L19.4547227,95.5069241 L19.4547227,88.6850009 L25.9396303,88.6850009 L25.9396303,95.5069241 Z M25.9396303,81.8630778 L19.4547227,81.8630778 L19.4547227,75.0411546 L25.9396303,75.0411546 L25.9396303,81.8630778 Z M25.9396303,68.2192315 L19.4547227,68.2192315 L19.4547227,61.3973083 L25.9396303,61.3973083 L25.9396303,68.2192315 Z M25.9396303,54.5753852 L19.4547227,54.5753852 L19.4547227,47.753462 L25.9396303,47.753462 L25.9396303,54.5753852 Z" id="Fill-1" fill="#D1ECF9"></path>
                    </g>
                </g>
                <g id="Group-5" transform="translate(90.000000, 116.500000)">
                    <polygon id="Path" fill="#564131" points="4.31540445 35 8.69040445 35 8.69040445 28.4377333 4.31540445 28.4377333"></polygon>
                    <path d="M0.669337783,21.875 L0.0664044498,23.7379333 C-0.26539555,24.934 0.708071116,26.25 1.61387112,26.25 L10.9070711,26.25 C10.9070711,26.25 10.1212044,26.0442 10.1212044,24.3707333 C10.1212044,23.2092 10.9070711,21.875 10.9070711,21.875 L0.669337783,21.875 Z" id="Path" fill="#85C86F"></path>
                    <polygon id="Path" fill="#85C86F" points="2.78053778 15.3122667 1.37493778 19.6877333 11.6929378 19.6877333 10.2836044 15.3122667"></polygon>
                    <path d="M8.17287112,8.75 C7.73700445,7.5544 7.43787112,6.56226667 6.53207112,6.56226667 C5.62627112,6.56226667 5.33087112,7.48486667 4.89500445,8.75 L3.48613778,13.125 L9.58173778,13.125 L8.17287112,8.75 Z" id="Path" fill="#85C86F"></path>
                    <polygon id="Path" fill="#564131" points="21.8154044 35 26.1904044 35 26.1904044 28.4377333 21.8154044 28.4377333"></polygon>
                    <path d="M34.6963378,24.0622667 L33.8465378,21.875 L14.1830711,21.875 L13.3332711,24.0622667 C12.8213378,25.1906667 13.5264711,26.25 14.7351378,26.25 L33.3290044,26.25 C34.5376711,26.25 35.3104711,25.2583333 34.6963378,24.0622667 L34.6963378,24.0622667 Z" id="Path" fill="#85C86F"></path>
                    <polygon id="Path" fill="#85C86F" points="31.3036711 15.3122667 16.7385378 15.3122667 15.0342711 19.6877333 33.0009378 19.6877333"></polygon>
                    <polygon id="Path" fill="#85C86F" points="28.7626711 8.75 19.2907378 8.75 17.5897378 13.125 30.4594711 13.125"></polygon>
                    <path d="M27.9147378,6.56226667 L20.1400711,6.56226667 L21.8448044,2.18773333 C22.3310711,0.999133333 23.3484044,0 24.0320711,0 C24.7157378,0 25.6728711,0.854933333 26.2193378,2.18773333 L27.9147378,6.56226667 Z" id="Page-1" fill="#85C86F"></path>
                </g>
                <g id="Group-7" transform="translate(248.000000, 118.500000)">
                    <path d="M11.3633939,15.3122667 C11.3633939,14.2314667 11.5810909,12.8389333 11.961697,11.3222667 C10.7156364,8.75 8.87272727,6.56226667 6.81793939,6.56226667 C3.04921212,6.56226667 0,13.8777333 0,17.5 C0,21.1274 3.04921212,24.0622667 6.81793939,24.0622667 C9.42787879,24.0622667 11.670303,22.6352 12.8140606,20.559 C11.9185455,18.9947333 11.3633939,17.2228 11.3633939,15.3122667 L11.3633939,15.3122667 Z" id="Path" fill="#85C86F"></path>
                    <path d="M4.5449697,26.0787333 L4.5449697,35 L9.09090909,35 L9.09090909,26.0787333 C8.34424242,26.1823333 7.59078788,26.25 6.81793939,26.25 C6.04509091,26.25 5.29163636,26.1823333 4.5449697,26.0787333 L4.5449697,26.0787333 Z" id="Path" fill="#564131"></path>
                    <path d="M22.7267879,0 C18.1818182,0 13.6358788,10.4799333 13.6358788,15.3122667 C13.6358788,20.1450667 17.7061818,24.0622667 22.7267879,24.0622667 C27.7478788,24.0622667 31.817697,20.1450667 31.817697,15.3122667 C31.817697,10.4799333 27.2727273,0 22.7267879,0 L22.7267879,0 Z" id="Path" fill="#85C86F"></path>
                    <path d="M22.7267879,26.25 C23.4996364,26.25 24.2535758,26.1823333 24.9997576,26.0787333 L24.9997576,35 L20.454303,35 L20.454303,26.0787333 C21.2004848,26.1823333 21.9544242,26.25 22.7267879,26.25 L22.7267879,26.25 Z" id="Path" fill="#564131"></path>
                </g>
                <g id="Group-6" transform="translate(305.000000, 119.500000)">
                    <path d="M26.17823,0 C21.80323,0 17.42823,10.6046944 17.42823,15.4945556 C17.42823,20.3848889 21.3458966,24.3487222 26.17823,24.3487222 C31.0105633,24.3487222 34.92823,20.3848889 34.92823,15.4945556 C34.92823,10.6046944 30.55323,0 26.17823,0 L26.17823,0 Z" id="Path" fill="#85C86F"></path>
                    <path d="M23.9904966,26.3891944 L23.9904966,39.5850278 L28.3659633,39.5850278 L28.3659633,26.3891944 C27.6472966,26.5424337 26.9220966,26.6425224 26.17823,26.6425224 C25.4343633,26.6425224 24.7091633,26.5424337 23.9904966,26.3891944 L23.9904966,26.3891944 Z" id="Path" fill="#564131"></path>
                    <path d="M16.3254966,10.76525 L15.59423,8.85416667 L6.12229663,8.85416667 L4.42176329,13.28125 L15.4574966,13.28125 C15.6380966,12.3939444 15.94983,11.56 16.3254966,10.76525 L16.3254966,10.76525 Z" id="Path" fill="#85C86F"></path>
                    <path d="M15.2404966,15.4945556 L3.57242996,15.4945556 L1.86769663,19.9221111 L16.1630966,19.9221111 C15.5778966,18.564 15.2404966,17.0736667 15.2404966,15.4945556 L15.2404966,15.4945556 Z" id="Path" fill="#85C86F"></path>
                    <path d="M17.47583,22.1354167 L1.01836329,22.1354167 L0.16902996,24.3487222 C-0.34337004,25.4905556 0.36222996,26.5625 1.57089663,26.5625 L20.1642966,26.5625 C20.9244966,26.5625 21.51343,26.1658333 21.6902966,25.5684722 C20.0074966,24.7992222 18.5785633,23.6054444 17.47583,22.1354167 L17.47583,22.1354167 Z" id="Path" fill="#85C86F"></path>
                    <polygon id="Path" fill="#564131" points="8.67822996 35.4166667 13.05323 35.4166667 13.05323 28.7762778 8.67822996 28.7762778"></polygon>
                    <path d="M14.7504966,6.64038889 L6.97396329,6.64038889 L8.67822996,2.21377778 C9.16496329,1.01102778 10.1822966,0 10.8659633,0 C11.5491633,0 12.5062966,0.865111111 13.05323,2.21377778 L14.7504966,6.64038889 Z" id="Path" fill="#85C86F"></path>
                </g>
                <path d="M24,160.508062 C24,160.508062 41.8152749,154.406428 91.4483713,151.274309 C141.081468,148.142189 164.140867,155.523958 198.373469,155.523958 C227.293372,155.523958 252.547159,148.592947 298.392931,151.274309 C344.238702,153.95567 372,160.508062 372,160.508062 L372,164.5 L24,164.5 L24,160.508062 Z" id="Rectangle-120" fill="#85C86F"></path>
                <g id="Group-14" transform="translate(169.000000, 199.500000)" fill="black" fill-opacity="1">
                    <g id="Group-11" transform="translate(0.735537, 0.373339)">
                        <g id="Rectangle-125">
                            <use filter="url(#filter-2)" xlink:href="#path-1"></use>
                        </g>
                        <g id="Rectangle-125">
                            <use filter="url(#filter-4)" xlink:href="#path-3"></use>
                        </g>
                    </g>
                </g>
            </g>
        </g>
    </g>
</svg>