<?xml version="1.0" encoding="UTF-8"?>
<svg width="167px" height="136px" viewBox="0 0 167 136" version="1.1" xmlns="http://www.w3.org/2000/svg" xmlns:xlink="http://www.w3.org/1999/xlink">
    <!-- Generator: Sketch 52.5 (67469) - http://www.bohemiancoding.com/sketch -->
    <title>Logo</title>
    <desc>Created with Sketch.</desc>
    <defs>
        <polygon id="path-1" points="0 150 215 150 215 0 0 0"></polygon>
    </defs>
    <g id="APP" stroke="none" stroke-width="1" fill="none" fill-rule="evenodd">
        <g id="01-Onboarding-" transform="translate(-106.000000, -179.000000)">
            <g id="Logo" transform="translate(80.000000, 171.000000)">
                <g id="g10" transform="translate(107.500000, 75.000000) scale(-1, 1) rotate(-180.000000) translate(-107.500000, -75.000000) ">
                    <g id="g12">
                        <g id="g14-Clipped">
                            <mask id="mask-2" fill="white">
                                <use xlink:href="#path-1"></use>
                            </mask>
                            <g id="path16"></g>
                            <g id="g14" mask="url(#mask-2)">
                                <g transform="translate(25.996732, 5.985915)">
                                    <g id="Group" transform="translate(41.000000, 57.000000)">
                                        <g id="g20" transform="translate(0.598355, 8.343204)" fill="#099C4A">
                                            <path d="M51.9934641,34.5070423 C48.1452451,31.9862676 42.2699837,31.8926056 38.3504493,33.8464789 C43.4004902,37.743662 45.9365768,42.5359155 45.9186601,48.1422535 C45.911634,57.0538732 41.4942974,63.6862676 41.2146569,64.0823944 C40.0630719,61.3640845 36.3332435,59.306338 33.9591095,57.9355634 C31.1419771,56.3140845 26.2728595,54.0183099 23.671781,51.1933099 C19.0352288,46.1570423 19.7013072,37.9883803 22.5869444,33.8253521 C22.6926879,33.6725352 22.7857843,33.5602113 23.0021895,33.2869718 C26.4913725,35.7901408 34.8865605,44.3489437 38.130531,53.4070423 C37.1897304,45.003169 32.3100735,37.9911972 27.5182435,33.7588028 C25.0604984,31.5838028 22.4847141,29.5387324 20.0729902,27.3130282 C16.9734069,24.4538732 14.9228268,20.928169 13.970433,16.7915493 C12.1510131,9.49964789 16.6210458,0.138028169 16.5363807,0.0704225352 C16.5008987,0.0908450704 16.465768,0.111971831 16.4250163,0.131690141 C8.40783497,5.87570423 2.57156863,14.6816901 0.811519608,25.1929577 C0.647810458,26.1690141 0.521691176,27.1457746 0.433161765,28.1179577 C0.403300654,28.4549296 0.37379085,28.7911972 0.354468954,29.1295775 C0.327066993,29.6426056 0.306691176,30.1461268 0.290531046,30.6556338 C0.140874183,37.3978873 1.77796569,43.9338028 5.18494281,50.2338028 C6.62530229,52.8883803 8.28276961,55.2964789 10.15875,57.4482394 C10.2209314,57.5225352 10.2838154,57.5919014 10.3470507,57.6612676 C14.6034886,62.4816901 19.9612745,66.0035211 26.3473366,68.2200704 C28.2897141,68.8940141 30.2306863,69.3859155 32.1860621,69.6989437 C34.856348,70.1306338 37.5420915,70.2207746 40.2720997,69.9651408 C44.1417484,69.6028169 47.9147876,68.3725352 51.0512582,66.0721831 C53.221634,64.4806338 55.2627288,62.3447183 56.7557843,59.5919014 C61.0888072,51.6038732 61.0944281,40.4785211 51.9934641,34.5070423" id="path22"></path>
                                        </g>
                                        <g id="g24" transform="translate(18.973020, 0.987535)" fill="#8CC63F">
                                            <path d="M7.72875817,35.915493 C11.5769771,38.4362676 17.4525899,38.5299296 21.3721242,36.5760563 C16.3220833,32.6788732 13.7859967,27.8866197 13.8035621,22.2802817 C13.8105882,13.368662 18.2282761,6.73626761 18.5075654,6.34014085 C19.6595016,9.0584507 23.3889788,11.1161972 25.7634641,12.4869718 C28.5802451,14.1084507 33.4493627,16.4042254 36.0504412,19.2292254 C40.6873448,24.265493 40.0212663,32.4341549 37.1352778,36.5971831 C37.0298856,36.75 36.9367892,36.8623239 36.720384,37.1355634 C33.231201,34.6327465 24.8356618,26.0739437 21.5916912,17.015493 C22.5324918,25.4193662 27.4121487,32.431338 32.2039788,36.6640845 C34.6620752,38.8387324 37.2375082,40.8838028 39.6495833,43.1098592 C42.7491667,45.968662 44.7993954,49.4943662 45.7521405,53.6309859 C47.5712092,60.9232394 44.5657761,67.6116197 43.7929003,69.6348592 C43.8283824,69.6140845 54.9191503,63.0165493 58.9110539,45.2295775 C59.1278105,44.2640845 59.2008824,43.2771127 59.2894118,42.3045775 C59.3189216,41.9679577 59.3487827,41.631338 59.3677533,41.2929577 C59.3951552,40.7799296 59.4158824,40.2764085 59.4320425,39.7669014 C59.581348,33.0246479 57.9442565,26.4890845 54.5372794,20.1890845 C53.0969199,17.5341549 51.4394526,15.1260563 49.5634722,12.9742958 C49.5012908,12.9 49.4387582,12.8306338 49.3755229,12.7612676 C45.119085,7.94119718 39.7609477,4.41901408 33.3752369,2.20246479 C31.4325082,1.52887324 29.4915359,1.03661972 27.5365114,0.723943662 C24.8662255,0.291901408 22.1801307,0.201760563 19.4504739,0.457394366 C15.5804739,0.81971831 11.8077859,2.05 8.67096405,4.35035211 C6.50058824,5.94190141 4.45984477,8.0778169 2.96643791,10.8309859 C-1.36658497,18.8190141 -1.37220588,29.9440141 7.72875817,35.915493" id="path26"></path>
                                        </g>
                                    </g>
                                    <g id="g28" transform="translate(0.042719, 15.861937)">
                                        <path d="M13.7009804,24.2957746 C17.4434559,24.2957746 20.1597631,21.8933099 20.1597631,18.5827465 C20.1597631,17.9788732 20.6333252,17.4876761 21.2161438,17.4876761 C22.2005065,17.4876761 23.421299,18.1014085 24.2545997,19.0144366 C24.9941013,19.8242958 25.3538399,20.7964789 25.2688235,21.7538732 C25.1405964,23.1704225 24.1147794,24.3464789 23.3545507,25.1077465 C21.7213235,26.7454225 17.8435948,27.9341549 14.1344935,27.9341549 C5.46001634,27.9341549 0.0706127451,22.6996479 0.0706127451,14.2725352 C0.0706127451,6.12605634 6.31966503,0.213028169 14.9291503,0.213028169 C20.2535621,0.213028169 24.5844771,2.42640845 24.5844771,5.14683099 C24.5844771,5.68133803 24.1513154,6.13274648 23.6373529,6.13274648 C23.3945997,6.13274648 23.1764379,6.02147887 22.6979575,5.77676056 C21.612067,5.2221831 19.3517565,4.06866197 16.2658742,4.06866197 C9.77793301,4.06866197 5.90441993,8.5193662 5.90441993,15.975 C5.90441993,21.0299296 8.96500817,24.2957746 13.7009804,24.2957746" id="path30" fill="#099C4A"></path>
                                    </g>
                                    <g id="g32" transform="translate(25.644055, 16.403169)">
                                        <path d="M23.8888889,3.16901408 C23.8439216,3.16901408 23.7957925,3.16725352 23.7279902,3.16126761 C23.619085,3.14859155 23.5186111,3.14295775 23.4255147,3.14295775 C22.762598,3.14295775 22.6143464,3.325 22.5549755,5.25633803 L22.5416258,5.6556338 L22.5416258,24.9584507 C22.5416258,27.3570423 20.1615196,27.3570423 18.7390768,27.3570423 C16.6663644,27.3570423 14.575384,26.7387324 14.575384,25.3570423 C14.575384,24.8911972 14.808652,24.5232394 15.2154657,24.3471831 C15.4972141,24.2257042 15.8119853,24.2151408 16.084951,24.2151408 L16.4067484,24.2176056 C16.5072222,24.2176056 16.8142647,24.2176056 16.909469,24.1647887 C17.2439134,23.9704225 17.3935703,23.4669014 17.3935703,22.5320423 L17.3935703,16.1661972 L8.19669935,16.1661972 L8.19669935,24.9584507 C8.19669935,25.6792254 7.8229085,27.3570423 4.3586683,27.3570423 C3.01175654,27.3570423 0.231160131,26.8591549 0.231160131,25.3200704 C0.231160131,24.275 1.18566176,24.2098592 1.5931781,24.1820423 C1.86052288,24.1637324 2.13665033,24.1447183 2.34462418,24.021831 C2.68574346,23.8207746 3.04934641,23.5119718 3.04934641,22.3869718 L3.04934641,2.61373239 C3.04934641,1.43697183 3.69013072,0.0341549296 6.7433415,0.0341549296 C8.32000817,0.0341549296 10.6460131,0.669014085 10.6892239,2.03204225 C10.7152206,2.3193662 10.6295016,2.59049296 10.4464706,2.79894366 C10.2360376,3.03802817 9.91634804,3.16901408 9.54396242,3.16901408 C9.49864379,3.16901408 9.45121732,3.16725352 9.38130719,3.16126761 C9.23902778,3.14471831 9.10939542,3.13485915 8.99065359,3.13485915 C8.51287582,3.13485915 8.19669935,3.13485915 8.19669935,5.69225352 L8.19705065,12.9264085 L17.3935703,12.9264085 L17.3935703,2.61373239 C17.3935703,1.43697183 18.0343546,0.0341549296 21.0875654,0.0341549296 C22.6139951,0.0341549296 25.0345016,0.596478873 25.0345016,2.10669014 C25.0345016,2.61901408 24.6765196,3.16901408 23.8888889,3.16901408" id="path34" fill="#099C4A"></path>
                                    </g>
                                    <g id="g36" transform="translate(88.040181, 15.979190)">
                                        <path d="M23.1862745,27.8169014 C21.8031781,27.8169014 18.1615278,26.5415493 18.0842402,24.9982394 C18.0424346,24.6429577 18.1671487,24.4112676 18.2820261,24.2778169 C18.5521814,23.9637324 18.9502124,23.9623239 19.0840605,23.9623239 L19.085817,23.9623239 C19.2038562,23.9623239 19.3373529,23.9732394 19.475768,23.9866197 C19.5846732,23.9961268 19.6977941,24.0080986 19.8059967,24.0080986 C19.8650163,24.0080986 19.9026062,24.0042254 19.9250899,24 C20.2693709,23.1274648 18.337884,18.6880282 17.5063399,16.7767606 L17.2326716,16.1457746 C15.6500327,12.5433099 14.3779493,9.68697183 13.7375163,8.26971831 C12.4854575,12.0908451 8.36181373,24.631338 7.68660131,26.3714789 C7.34864379,27.2320423 6.56593137,27.706338 5.48285131,27.706338 C4.95940359,27.706338 4.35691176,27.5908451 3.80992647,27.3890845 C3.77514706,27.378169 0.342173203,26.2507042 0.342173203,24.440493 C0.342173203,23.971831 0.590898693,23.7390845 0.739150327,23.6429577 C0.957312092,23.5003521 1.19971405,23.4816901 1.38696078,23.4816901 C1.45406046,23.4816901 1.52783497,23.4841549 1.60547386,23.4873239 C1.67643791,23.490493 1.75302288,23.493662 1.83347222,23.493662 C2.04039216,23.493662 2.28279412,23.4739437 2.51325163,23.3320423 C3.04232026,23.0003521 3.35568627,21.9669014 3.58403595,21.2123239 C3.63708333,21.0387324 3.68626634,20.8753521 3.73861111,20.7193662 C4.05654412,19.8183099 4.38607026,18.9066901 4.73526961,17.9408451 C5.49022876,15.8492958 6.34566176,13.4788732 7.38412582,10.4088028 C7.71646242,9.41443662 8.01718137,8.50774648 8.29120098,7.68239437 C10.1977451,1.93697183 10.6277451,0.709859155 11.3921895,0.394014085 C11.8538072,0.209507042 12.5458824,0.189084507 12.8216585,0.189084507 C13.280817,0.189084507 14.1432761,0.238028169 14.7566585,0.559859155 C15.439951,0.902112676 15.8955964,1.30070423 15.8955964,2.13239437 C15.8955964,2.31021127 15.8931373,2.46478873 15.8906781,2.60352113 C15.8773284,3.39894366 15.874518,3.54295775 16.5908333,5.00809859 C17.5151225,6.89823944 20.649134,14.0485915 21.4898121,16.246831 L22.0041258,17.5584507 C23.5846569,21.5732394 24.8922222,24.9897887 24.8922222,26.1429577 C24.8922222,27.2070423 24.2704085,27.8169014 23.1862745,27.8169014" id="path38" fill="#099C4A"></path>
                                    </g>
                                    <g id="g40" transform="translate(114.865436, 16.361549)">
                                        <path d="M8.08006536,3.16901408 C7.97994281,3.23556338 7.88298203,3.29823944 7.79550654,3.36760563 C7.38166667,3.68591549 7.06373366,4.06197183 7.06373366,5.73380282 L7.06373366,25 C7.06373366,27.0616197 5.12873366,27.3693662 3.22605392,27.3989437 C2.41980392,27.3989437 0.276830065,27.3989437 0.0822058824,25.9721831 C-0.0309150327,25.2919014 0.54628268,24.8334507 0.92745098,24.5306338 C1.02651961,24.4524648 1.12242647,24.378169 1.19549837,24.3049296 C1.79553105,23.7042254 1.91673203,23.4616197 1.91673203,22.8633803 L1.91673203,2.65528169 C1.91673203,1.47711268 2.48198529,0.0735915493 5.17756536,0.0735915493 L5.35778595,0.0757042254 C7.65744281,0.0757042254 8.9811683,0.674647887 9.08585784,1.77112676 C9.14276961,2.46584507 8.52868464,2.8721831 8.08006536,3.16901408" id="path42" fill="#099C4A"></path>
                                    </g>
                                    <g id="g44" transform="translate(126.116541, 16.387007)">
                                        <path d="M17.9166667,5.28169014 C17.6022467,5.28169014 17.3517647,5.11056338 17.034183,4.89295775 C16.4548775,4.49683099 15.4856209,3.83380282 13.6535539,3.83380282 C13.0447386,3.83380282 12.2809967,3.84014085 11.4146732,3.84823944 C10.3779657,3.85739437 9.19476307,3.86760563 7.95429739,3.8693662 L7.98696895,12.834507 C8.49671569,12.8369718 9.03772876,12.8426056 9.63495098,12.8485915 C10.6252859,12.8584507 11.7705474,12.8700704 13.1835049,12.8700704 C15.5513154,12.8700704 17.0222386,13.8302817 17.0222386,15.3774648 C17.0222386,16.0088028 16.6192892,16.2915493 16.218799,16.2915493 L7.98872549,16.2915493 L7.98872549,24.0640845 C8.38886438,24.0693662 8.8248366,24.0823944 9.26642974,24.0957746 C9.85803105,24.1130282 10.4598203,24.131338 10.9987255,24.131338 C11.6732353,24.131338 12.1401225,24.1010563 12.3895507,24.0411972 C12.474567,24.0207746 12.5381536,24.0010563 12.5855801,23.9841549 C12.550098,23.9109155 12.501969,23.825 12.4647304,23.7588028 C12.2989134,23.459507 12.0912908,23.0873239 12.0912908,22.6566901 C12.0912908,22.2792254 12.3249101,21.9619718 12.7162663,21.8077465 C12.9295098,21.7235915 13.2021242,21.6809859 13.5270833,21.6809859 C14.1868382,21.6809859 15.0134641,21.853169 15.6423039,22.1239437 C16.2967892,22.4179577 18.4309804,23.4964789 18.4285212,25.1035211 C18.3080229,26.4299296 16.5040605,27.0471831 12.7475327,27.0471831 L4.1141585,27.0112676 C1.87457516,27.0112676 0.156331699,26.2158451 0.0281045752,25.1246479 C-0.0144035948,24.7883803 0.072369281,24.4785211 0.272263072,24.2503521 C0.462671569,24.0348592 0.736691176,23.9158451 1.04303105,23.9158451 C2.6632598,23.9158451 2.84172386,23.8700704 2.84172386,22.5116197 L2.84172386,2.48521127 C2.84172386,1.14225352 3.99576797,0.0503521127 5.41469771,0.0503521127 L15.3876062,0.0503521127 C17.2003513,0.0503521127 18.9730474,2.27394366 18.9730474,3.9334507 C18.9730474,4.81866197 18.4411683,5.28169014 17.9166667,5.28169014" id="path46" fill="#099C4A"></path>
                                    </g>
                                    <g id="g48" transform="translate(144.759500, 16.331303)">
                                        <path d="M20.375817,27.4647887 C20.1513317,27.4647887 19.9855147,27.4109155 19.8249673,27.3580986 C19.6271814,27.293662 19.3816176,27.2130282 18.8184722,27.1742958 C18.2233578,27.1362676 16.0094199,27.1299296 13.4448775,27.1228873 C6.15525327,27.1024648 2.79921569,27.0584507 2.17775327,26.8507042 C1.08448529,26.4704225 0.349901961,25.4475352 0.349901961,24.3059859 C0.349901961,23.0387324 0.988929739,22.8489437 1.37009804,22.8489437 C1.65500817,22.8489437 1.84330882,22.9126761 2.00947712,22.9693662 C2.19356209,23.0323944 2.40223856,23.1028169 2.92076797,23.1390845 C3.57525327,23.1742958 6.11871732,23.2390845 8.11835784,23.246831 L8.11835784,2.68556338 C8.11835784,1.50880282 8.75949346,0.105985915 11.8127042,0.105985915 C12.7591258,0.105985915 14.4706944,0.233098592 15.2934559,1.08450704 C15.6120915,1.41443662 15.7733415,1.82535211 15.7585866,2.27852113 C15.7427778,2.64507042 15.5530719,3.25915493 14.4650735,3.25915493 L14.0526389,3.25352113 C13.6233415,3.25352113 13.594183,3.325 13.5811846,3.35528169 C13.4582271,3.72711268 13.1806944,6.37887324 13.2629003,22.9380282 L13.2639542,23.246831 L15.4603268,23.2450704 C17.7385539,23.2450704 18.8831127,23.2658451 19.5453268,23.4552817 C20.617165,23.7827465 21.3953105,24.8559859 21.3953105,26.0077465 C21.3953105,27.2753521 20.756634,27.4647887 20.375817,27.4647887" id="path50" fill="#099C4A"></path>
                                    </g>
                                    <g id="g52" transform="translate(129.311223, 45.179085)">
                                        <path d="M2.45915033,0.352112676 C2.88528595,0.352112676 3.29209967,0.486971831 3.63462418,0.740492958 C3.84259804,0.894014085 4.06743464,1.05669014 4.30140523,1.21901408 C4.53678105,1.38309859 4.72578431,1.51161972 4.89581699,1.62147887 L5.46844771,2.01971831 C6.02,2.39577465 6.33406863,2.57147887 6.50269608,2.65352113 L6.58349673,2.69295775 L6.66324346,2.65176056 C6.86313725,2.54753521 7.25273693,2.3221831 7.96940359,1.84014085 L8.31403595,1.61126761 C8.36743464,1.57007042 8.4485866,1.51584507 8.54695261,1.45422535 C9.91986111,0.526056338 10.4647386,0.324295775 10.8599592,0.307746479 L10.9014134,0.305985915 L10.943219,0.309507042 C11.6461846,0.374647887 12.339665,0.822887324 12.7967157,1.18732394 L13.3124346,1.59859155 L12.8740033,2.09084507 C12.2683497,2.77288732 11.1880801,3.97992958 10.7654575,4.40352113 L10.682549,4.48626761 C8.29190359,6.83450704 7.24711601,7.13556338 6.60387255,7.13556338 C5.62829248,7.13556338 4.47354575,6.35809859 2.96854575,4.68732394 L2.83715686,4.54049296 C2.74546569,4.43626761 2.62215686,4.3028169 2.47355392,4.14542254 C1.86403595,3.50809859 1.12875,2.60316901 0.619354575,1.95633803 L0.18373366,1.40352113 L1.42876634,0.642957746 C1.7396732,0.452816901 2.09625,0.352112676 2.45915033,0.352112676" id="path54" fill="#099C4A"></path>
                                    </g>
                                    <g id="g56" transform="translate(50.987391, 15.997042)">
                                        <path d="M13.7009804,23.943662 C19.7280065,23.943662 22.4727696,18.034507 22.4727696,12.5443662 C22.4727696,7.10704225 19.6665278,3.86091549 14.9656863,3.86091549 C9.15998366,3.86091549 6.12187908,9.57746479 6.12187908,15.2242958 C6.12187908,19.4390845 8.11273693,23.943662 13.7009804,23.943662 M26.7415033,26.6873239 L27.0120098,27.059507 C27.9201389,28.3007042 28.071201,29.565493 27.4384967,30.621831 C26.8669199,31.5753521 25.8997712,32.059507 24.5644526,32.059507 C24.3852859,32.059507 24.2047141,32.0503521 24.0234395,32.0348592 C23.4434314,31.984507 22.8159967,31.7848592 22.257067,31.4725352 C21.5586683,31.0820423 21.1265605,30.5007042 21.0408415,29.8348592 C20.953366,29.1545775 21.2351144,28.4616197 21.8347958,27.8848592 C22.1235703,27.6070423 23.0057026,27.018662 23.0338072,26.9985915 C22.8996078,26.7778169 22.7306291,26.5021127 22.5630556,26.2285211 C22.418317,25.9926056 22.2760376,25.7602113 22.1548366,25.5609155 C19.7698121,27.0422535 16.9460049,27.7989437 14.1344935,27.7989437 C5.57102941,27.7989437 0.251887255,22.4672535 0.251887255,13.8841549 C0.251887255,5.24190141 7.58612745,0.0781690141 14.6769118,0.0781690141 C22.8729085,0.0781690141 28.3796487,5.62640845 28.3796487,13.8841549 C28.3796487,18.1119718 26.843031,21.4049296 24.4920833,23.725 C25.1518382,24.4947183 26.1253105,25.8366197 26.7415033,26.6873239" id="path58" fill="#099C4A" fill-rule="nonzero"></path>
                                    </g>
                                    <g id="g60" transform="translate(62.970092, 11.366303)">
                                        <path d="M2.81045752,3.87323944 C0.958014706,3.8915493 0.0295098039,3.14823944 0.114526144,1.92288732 C0.224836601,0.334859155 1.20357843,-0.0267605633 2.30949346,0.00528169023 C3.38484477,0.0366197184 4.45106209,0.332042254 4.51710784,1.92816901 C4.58666667,3.61126761 3.53450163,3.84366197 2.81045752,3.87323944" id="path62" fill="#099C4A"></path>
                                    </g>
                                    <g id="g64" transform="translate(135.198710, 11.366303)">
                                        <path d="M2.81045752,3.87323944 C0.958014706,3.8915493 0.0295098039,3.14823944 0.114526144,1.92288732 C0.224836601,0.334859155 1.20357843,-0.0267605633 2.30949346,0.00528169023 C3.38484477,0.0366197184 4.45106209,0.332042254 4.51675654,1.92816901 C4.58701797,3.61126761 3.53485294,3.84366197 2.81045752,3.87323944" id="path66" fill="#099C4A"></path>
                                    </g>
                                    <g id="g68" transform="translate(33.142777, 2.397746)">
                                        <path d="M5.97222222,5.98591549 C5.47968954,6.7778169 4.88808824,7.17394366 4.1974183,7.17394366 C3.99541667,7.17394366 3.79938725,7.14471831 3.61003268,7.08591549 C3.4203268,7.02746479 3.24607843,6.93591549 3.08658497,6.81161972 C2.7605719,6.5665493 2.52870915,6.23450704 2.39029412,5.81584507 C2.25223039,5.39647887 2.18302288,4.84647887 2.18302288,4.16443662 C2.18302288,3.19507042 2.36289216,2.4415493 2.72263072,1.90316901 C3.08201797,1.36549296 3.58965686,1.09612676 4.24519608,1.09612676 C4.5248366,1.09612676 4.79077614,1.16021127 5.04231209,1.28802817 C5.29384804,1.41584507 5.56857026,1.61830986 5.86612745,1.89542254 L6.46124183,1.14964789 C6.03229575,0.766197183 5.61002451,0.488380282 5.19372549,0.31584507 C4.77742647,0.143661972 4.31580882,0.0577464789 3.80922386,0.0577464789 C3.29209967,0.0577464789 2.81572712,0.154225352 2.3797549,0.347887324 C1.94413399,0.541549296 1.57034314,0.813380282 1.25838235,1.16302817 C0.946772876,1.51267606 0.704019608,1.9306338 0.530473856,2.41725352 C0.356928105,2.90387324 0.270155229,3.43838028 0.270155229,4.02077465 C0.270155229,4.63838028 0.368169935,5.20211268 0.564901961,5.71197183 C0.761633987,6.22112676 1.03530229,6.65704225 1.38590686,7.01971831 C1.73686275,7.38169014 2.16089052,7.66302817 2.65869281,7.86373239 C3.1564951,8.06408451 3.70664216,8.16443662 4.30878268,8.16443662 C4.46827614,8.16443662 4.61547386,8.15950704 4.75002451,8.14894366 C4.88457516,8.13802817 5.01666667,8.12042254 5.14594771,8.09542254 C5.27522876,8.07042254 5.40732026,8.03767606 5.54187092,7.99683099 C5.67642157,7.95598592 5.8197549,7.90704225 5.97222222,7.85035211 L5.97222222,5.98591549 Z" id="path70" fill="#099C4A"></path>
                                    </g>
                                    <g id="g72" transform="translate(40.437214, 2.328627)">
                                        <path d="M0.35130719,1.05633803 C0.365359477,1.34542254 0.372736928,1.59330986 0.372736928,1.79929577 L0.372736928,6.55598592 C0.372736928,6.80809859 0.367116013,7.06021127 0.356576797,7.31232394 C0.346037582,7.56408451 0.329877451,7.83239437 0.30879902,8.1165493 L2.04144608,8.1165493 L2.04144608,5.28838028 C2.48409314,5.725 2.99419118,5.94330986 3.5717402,5.94330986 C3.90829248,5.94330986 4.20866013,5.86866197 4.47249183,5.71971831 C4.73632353,5.57042254 4.93762255,5.36443662 5.07568627,5.10176056 C5.12522059,5.00211268 5.16526961,4.88133803 5.19548203,4.73943662 C5.22534314,4.59753521 5.24044935,4.43943662 5.24044935,4.26549296 L5.24044935,1.81021127 C5.24044935,1.5471831 5.24571895,1.29225352 5.25625817,1.04577465 C5.26714869,0.798943662 5.28295752,0.533450704 5.30438725,0.249295775 L3.50780229,0.249295775 C3.51517974,0.338028169 3.52044935,0.407042254 3.52396242,0.457042254 C3.52747549,0.506690141 3.52923203,0.561971831 3.52923203,0.622183099 C3.54328431,0.782042254 3.55417484,0.995070423 3.56120098,1.26126761 C3.56822712,1.4 3.5717402,1.50985915 3.5717402,1.59190141 L3.5717402,1.79929577 L3.5717402,4.13204225 C3.5717402,4.32077465 3.55417484,4.44823944 3.51869281,4.51584507 C3.4691585,4.62253521 3.38379085,4.71021127 3.26364379,4.77957746 C3.14314542,4.84894366 3.01737745,4.8834507 2.88633987,4.8834507 C2.59194444,4.8834507 2.31054739,4.73767606 2.04144608,4.44647887 L2.04144608,1.81021127 L2.04144608,1.53838028 C2.04144608,1.46373239 2.04460784,1.37676056 2.05198529,1.27746479 C2.05198529,1.17429577 2.05374183,1.08098592 2.0572549,0.997535211 C2.06076797,0.91443662 2.06428105,0.83415493 2.06779412,0.757746479 C2.07130719,0.681690141 2.07482026,0.603521127 2.07868464,0.523591549 C2.08184641,0.443661972 2.08711601,0.352112676 2.09449346,0.249295775 L0.287369281,0.249295775 C0.315825163,0.497887324 0.336903595,0.766901408 0.35130719,1.05633803" id="path74" fill="#099C4A"></path>
                                    </g>
                                    <g id="g76" transform="translate(47.124382, 0.221444)">
                                        <path d="M2.10784314,1.4084507 C2.24590686,1.53978873 2.44263889,1.6056338 2.69768791,1.6056338 C2.91374183,1.6056338 3.08904412,1.53591549 3.22394608,1.39788732 C3.35849673,1.25915493 3.42559641,1.08169014 3.42559641,0.865140845 C3.42559641,0.638028169 3.35463235,0.457746479 3.21305556,0.324295775 C3.07147876,0.191197183 2.88528595,0.124647887 2.65517974,0.124647887 C2.42156046,0.124647887 2.23712418,0.191197183 2.10257353,0.324295775 C1.96802288,0.457746479 1.9005719,0.638028169 1.9005719,0.865140845 C1.9005719,1.09577465 1.9694281,1.27711268 2.10784314,1.4084507 M2.00666667,6.63873239 C1.86508987,6.31584507 1.79412582,5.81161972 1.79412582,5.12640845 C1.79412582,3.7943662 2.08816993,3.12887324 2.67660948,3.12887324 C3.25380719,3.12887324 3.5425817,3.7943662 3.5425817,5.12640845 C3.5425817,5.81161972 3.47267157,6.31584507 3.33285131,6.63873239 C3.19267974,6.96197183 2.97416667,7.12359155 2.67660948,7.12359155 C2.37167484,7.12359155 2.14859477,6.96197183 2.00666667,6.63873239 M4.79147876,6.92676056 C4.90143791,6.74894366 4.99172386,6.55176056 5.06268791,6.33521127 C5.18283497,5.97323944 5.2432598,5.57007042 5.2432598,5.12640845 C5.2432598,4.68239437 5.18283497,4.28098592 5.06268791,3.92253521 C4.94218954,3.56373239 4.77110294,3.2584507 4.54977941,3.00633803 C4.32810458,2.75387324 4.06005719,2.56056338 3.74458333,2.42570423 C3.42910948,2.29084507 3.07147876,2.22323944 2.67133987,2.22323944 C2.27436275,2.22323944 1.91638072,2.29084507 1.5977451,2.42570423 C1.27875817,2.56056338 1.00684641,2.75387324 0.782009804,3.00633803 C0.556821895,3.2584507 0.383978758,3.56373239 0.263480392,3.92253521 C0.143333333,4.28098592 0.0829084967,4.68239437 0.0829084967,5.12640845 C0.0829084967,5.57007042 0.143333333,5.9721831 0.263480392,6.33274648 C0.383978758,6.69330986 0.556821895,6.99859155 0.782009804,7.24894366 C1.00684641,7.49929577 1.27875817,7.69190141 1.5977451,7.82711268 C1.91638072,7.96161972 2.27436275,8.02922535 2.67133987,8.02922535 C3.07147876,8.02922535 3.42910948,7.96161972 3.74458333,7.82711268 C3.96415033,7.73450704 4.16088235,7.61373239 4.3344281,7.46443662 C4.34145425,7.51443662 4.34707516,7.56373239 4.35058824,7.61373239 C4.35761438,7.69507042 4.36112745,7.78767606 4.36112745,7.89049296 C4.36112745,7.96161972 4.35656046,8.0334507 4.34777778,8.10633803 C4.3389951,8.17922535 4.32388889,8.27605634 4.30281046,8.39683099 L5.32827614,8.39683099 C5.30333333,8.29014085 5.28120098,8.19683099 5.26187908,8.11725352 C5.24220588,8.03697183 5.22288399,7.96443662 5.20356209,7.89894366 C5.18388889,7.83274648 5.16421569,7.76971831 5.14489379,7.70985915 C5.12522059,7.64929577 5.09992647,7.5834507 5.06795752,7.51267606 C5.04301471,7.4415493 5.0180719,7.37922535 4.99348039,7.32605634 C4.96853758,7.27288732 4.94218954,7.21866197 4.91373366,7.16373239 C4.88527778,7.1084507 4.85541667,7.04929577 4.82344771,6.98521127 C4.8129085,6.96373239 4.80201797,6.9443662 4.79147876,6.92676056" id="path78" fill="#099C4A" fill-rule="nonzero"></path>
                                    </g>
                                    <g id="g80" transform="translate(57.184520, 2.277746)">
                                        <path d="M4.56699346,4.57746479 C4.35796569,4.7584507 4.1584232,4.88732394 3.96906863,4.96373239 C3.77971405,5.03978873 3.5766585,5.07816901 3.36060458,5.07816901 C3.14455065,5.07816901 2.94711601,5.02746479 2.76794935,4.92605634 C2.58913399,4.825 2.43420752,4.68485915 2.30316993,4.5056338 C2.17213235,4.32605634 2.07025327,4.11126761 1.99753268,3.86091549 C1.92481209,3.61056338 1.88862745,3.33978873 1.88862745,3.04859155 C1.88862745,2.77183099 1.92305556,2.5165493 1.99226307,2.28415493 C2.06147059,2.05176056 2.15772876,1.85211268 2.2817402,1.68485915 C2.40575163,1.51830986 2.55294935,1.38943662 2.72298203,1.29859155 C2.89301471,1.2084507 3.08096405,1.16302817 3.28612745,1.16302817 C3.51658497,1.16302817 3.7280719,1.20669014 3.92129085,1.29366197 C4.1141585,1.3806338 4.31194444,1.52535211 4.51394608,1.72746479 L5.0135049,0.976408451 C4.62355392,0.699647887 4.26135621,0.501760563 3.92656046,0.382746479 C3.59176471,0.263732394 3.22254085,0.204225352 2.81853758,0.204225352 C2.42542484,0.204225352 2.06744281,0.269366197 1.74494281,0.398943662 C1.42279412,0.528169014 1.14736928,0.711267606 0.918668301,0.947183099 C0.690318627,1.1834507 0.512205882,1.46760563 0.384681373,1.79964789 C0.257156863,2.13169014 0.193218954,2.50035211 0.193218954,2.90492958 C0.193218954,3.34894366 0.27120915,3.75985915 0.427189542,4.13802817 C0.583169935,4.51619718 0.800980392,4.84190141 1.08097222,5.11514085 C1.36061275,5.38873239 1.69259804,5.60176056 2.07727941,5.75457746 C2.46160948,5.90704225 2.88247549,5.9834507 3.33952614,5.9834507 C3.54152778,5.9834507 3.73896242,5.97112676 3.93183007,5.94647887 C4.12504902,5.92112676 4.33653595,5.87535211 4.56699346,5.80774648 L4.56699346,4.57746479 Z" id="path82" fill="#099C4A"></path>
                                    </g>
                                    <g id="g84" transform="translate(63.048996, 2.333451)">
                                        <path d="M2.45915033,6.33802817 L2.45915033,7.12112676 L2.53362745,7.12112676 C2.7071732,7.12112676 2.84769608,7.17147887 2.95625,7.27288732 C3.06410131,7.37394366 3.11820261,7.50598592 3.11820261,7.66971831 C3.11820261,7.81514085 3.07218137,7.93415493 2.97978758,8.02640845 C2.8877451,8.11901408 2.76900327,8.16478873 2.6239134,8.16478873 C2.48584967,8.16478873 2.37237745,8.12147887 2.28384804,8.03450704 C2.19531863,7.9471831 2.13665033,7.82429577 2.10819444,7.66443662 L1.64060458,8.22359155 C1.83558007,8.37253521 2.02142157,8.48028169 2.1988317,8.54612676 C2.37589052,8.61161972 2.57086601,8.6443662 2.78340686,8.6443662 C2.96749183,8.6443662 3.13471405,8.61795775 3.28577614,8.56443662 C3.43613562,8.51126761 3.56541667,8.43838028 3.67361928,8.34612676 C3.78147059,8.25352113 3.86543301,8.14295775 3.92585784,8.01338028 C3.98628268,7.88380282 4.01614379,7.74049296 4.01614379,7.58450704 C4.01614379,7.31091549 3.93112745,7.08380282 3.76109477,6.9028169 C3.59106209,6.72147887 3.35533497,6.60070423 3.05426471,6.54049296 L3.05426471,6.33802817 L2.45915033,6.33802817 Z M2.06568627,5.79471831 C2.0375817,5.42535211 2.01439542,5.09507042 1.99683007,4.80422535 C1.9789134,4.51267606 1.97013072,4.29788732 1.97013072,4.15950704 L1.97013072,1.94366197 C1.97013072,1.67746479 2.02598856,1.48204225 2.13770425,1.35739437 C2.24906863,1.2334507 2.43245098,1.17112676 2.6875,1.17112676 C2.86139706,1.17112676 3.00578431,1.20598592 3.12066176,1.275 C3.23589052,1.3443662 3.36622549,1.47640845 3.51131536,1.67183099 L3.51131536,4.13802817 L3.51131536,4.64964789 C3.51131536,4.78802817 3.50780229,4.91760563 3.50077614,5.03838028 C3.49375,5.15880282 3.48637255,5.27711268 3.47934641,5.39225352 C3.47232026,5.50809859 3.46178105,5.64190141 3.44737745,5.79471831 L5.27593137,5.79471831 C5.26152778,5.62746479 5.25098856,5.49894366 5.24396242,5.4084507 C5.23658497,5.31830986 5.22604575,5.21056338 5.21199346,5.08626761 C5.19056373,4.72394366 5.18002451,4.40457746 5.18002451,4.12746479 L5.18002451,1.84788732 C5.18002451,1.56338028 5.18529412,1.30528169 5.19618464,1.07288732 C5.20672386,0.840140845 5.22604575,0.567605634 5.25450163,0.25528169 L3.52185458,0.25528169 L3.52185458,0.777112676 C3.27769608,0.56056338 3.03388889,0.397183099 2.79113562,0.286971831 C2.54838235,0.177112676 2.29614379,0.122183099 2.03406863,0.122183099 C1.81450163,0.122183099 1.5928268,0.160211268 1.36974673,0.236619718 C1.14666667,0.313028169 0.956960784,0.413028169 0.800980392,0.537323944 C0.627434641,0.676056338 0.502720588,0.854577465 0.426486928,1.07288732 C0.350253268,1.29119718 0.312312092,1.57429577 0.312312092,1.9221831 L0.312312092,4.13802817 L0.312312092,4.62852113 C0.312312092,4.79507042 0.304934641,4.95492958 0.290882353,5.10774648 C0.283856209,5.22464789 0.276830065,5.32676056 0.269803922,5.41373239 C0.262426471,5.50070423 0.251887255,5.62746479 0.237834967,5.79471831 L2.06568627,5.79471831 Z" id="path86" fill="#099C4A" fill-rule="nonzero"></path>
                                    </g>
                                    <g id="g88" transform="translate(69.487473, 2.231303)">
                                        <path d="M3.5130719,3.52112676 C3.4104902,3.45704225 3.33039216,3.41021127 3.2738317,3.38028169 C3.21727124,3.35 3.16246732,3.31690141 3.10941993,3.28133803 L2.69452614,3.07359155 C2.13840686,2.78978873 1.86017157,2.42570423 1.86017157,1.98204225 C1.86017157,1.75105634 1.93640523,1.56126761 2.08887255,1.41197183 C2.24098856,1.26267606 2.43596405,1.18802817 2.67344771,1.18802817 C2.82556373,1.18802817 2.96749183,1.21302817 3.09852941,1.26267606 C3.22956699,1.31267606 3.36763072,1.39964789 3.5130719,1.52359155 L3.5130719,3.52112676 Z M3.47056373,4.4056338 C3.45651144,4.63626761 3.3423366,4.82077465 3.12768791,4.95950704 C2.91339052,5.09788732 2.64674837,5.16725352 2.32811275,5.16725352 C2.09414216,5.16725352 1.86122549,5.12746479 1.62936275,5.0471831 C1.39714869,4.96725352 1.12875,4.8334507 0.824166667,4.64507042 L0.824166667,5.88626761 C1.14280229,5.94647887 1.42630719,5.98908451 1.67433007,6.01408451 C1.92235294,6.03873239 2.18969771,6.05140845 2.47671569,6.05140845 C3.29877451,6.05140845 3.94517974,5.89683099 4.41663399,5.58802817 C4.88773693,5.27887324 5.12311275,4.85105634 5.12311275,4.30422535 L5.12311275,1.86478873 C5.12311275,1.65140845 5.12873366,1.46690141 5.13927288,1.31091549 C5.14981209,1.15422535 5.16948529,1 5.19758987,0.847183099 C5.21550654,0.769366197 5.22955882,0.697183099 5.24044935,0.631690141 C5.25098856,0.56584507 5.27382353,0.470774648 5.30930556,0.346478873 L3.59808824,0.346478873 C3.56260621,0.428169014 3.54152778,0.497535211 3.53450163,0.554225352 C3.52747549,0.610915493 3.52361111,0.691197183 3.52361111,0.794014085 C3.30755719,0.591901408 3.08728758,0.446126761 2.86209967,0.357394366 C2.63691176,0.268661972 2.37589052,0.224295775 2.07833333,0.224295775 C1.5538317,0.224295775 1.13226307,0.373239437 0.813276144,0.671478873 C0.494640523,0.96971831 0.335147059,1.36021127 0.335147059,1.84330986 C0.335147059,2.30140845 0.475318627,2.68838028 0.75495915,3.00457746 C1.03495098,3.32077465 1.48321895,3.60140845 2.09941176,3.84612676 C2.34392157,3.94929577 2.56629902,4.02992958 2.76654412,4.08838028 C2.96643791,4.14683099 3.20497549,4.20457746 3.48110294,4.26161972 L3.47056373,4.4056338 Z" id="path90" fill="#099C4A" fill-rule="nonzero"></path>
                                    </g>
                                    <g id="g92" transform="translate(79.944694, 2.432465)">
                                        <path d="M0.35130719,1.05633803 C0.365359477,1.32957746 0.372736928,1.58521127 0.372736928,1.82323944 L0.372736928,4.09225352 C0.372736928,4.35492958 0.367116013,4.61197183 0.356576797,4.86232394 C0.346037582,5.11267606 0.326364379,5.38697183 0.298259804,5.68521127 L2.03055556,5.68521127 L2.03055556,5.17359155 C2.50903595,5.60316901 2.99419118,5.81795775 3.48672386,5.81795775 C3.72772059,5.81795775 3.96063725,5.77992958 4.18547386,5.70352113 C4.41066176,5.62711268 4.6028268,5.52676056 4.76232026,5.4028169 C4.92848856,5.25704225 5.05004085,5.07852113 5.12627451,4.86725352 C5.20250817,4.65633803 5.24044935,4.37640845 5.24044935,4.02816901 L5.24044935,1.80176056 C5.24044935,1.63521127 5.24220588,1.47183099 5.24607026,1.31197183 C5.24923203,1.15211268 5.25450163,0.992253521 5.26187908,0.832394366 C5.26890523,0.715140845 5.27593137,0.613028169 5.28295752,0.526408451 C5.29033497,0.439084507 5.30087418,0.312323944 5.31492647,0.145422535 L3.49726307,0.145422535 L3.50780229,0.385211268 C3.51517974,0.523591549 3.52220588,0.664084507 3.52923203,0.805985915 C3.53625817,0.947887324 3.54609477,1.08274648 3.55874183,1.21056338 C3.57103758,1.33873239 3.58052288,1.45140845 3.58790033,1.54894366 C3.59457516,1.64683099 3.59843954,1.72394366 3.59843954,1.78098592 L3.59843954,4.00739437 C3.59843954,4.5221831 3.35744281,4.77957746 2.87580065,4.77957746 C2.70190359,4.77957746 2.55435458,4.7415493 2.43209967,4.66514085 C2.30949346,4.58838028 2.1795098,4.45633803 2.04144608,4.26830986 L2.04144608,1.80176056 L2.04144608,1.27992958 C2.04144608,1.1415493 2.04460784,1.01443662 2.05198529,0.899295775 C2.05901144,0.783802817 2.06603758,0.667605634 2.07306373,0.550352113 C2.08044118,0.432746479 2.09098039,0.298239437 2.10503268,0.145422535 L0.276830065,0.145422535 C0.312312092,0.479225352 0.336903595,0.783098592 0.35130719,1.05633803" id="path94" fill="#099C4A"></path>
                                    </g>
                                    <g id="g96" transform="translate(86.411978, 0.041937)">
                                        <path d="M3.5130719,7.04225352 C3.41013889,7.15950704 3.31001634,7.23943662 3.21270425,7.28204225 C3.11504085,7.32464789 3.00473039,7.34577465 2.88036765,7.34577465 C2.57578431,7.34577465 2.3404085,7.16584507 2.17353758,6.80528169 C2.00736928,6.44471831 1.92410948,5.92711268 1.92410948,5.25246479 C1.92410948,4.66302817 1.99999183,4.21197183 2.15245915,3.89964789 C2.30492647,3.58697183 2.52625,3.4306338 2.81678105,3.4306338 C3.13576797,3.4306338 3.36763072,3.58697183 3.5130719,3.89964789 L3.5130719,7.04225352 Z M4.83117647,8.09683099 L5.29841503,7.81443662 C5.27698529,7.71514085 5.25941993,7.62535211 5.24571895,7.54577465 C5.23131536,7.46549296 5.22077614,7.40598592 5.21339869,7.36725352 C5.19969771,7.23591549 5.1845915,6.98556338 5.16808007,6.61619718 C5.15227124,6.24647887 5.14489379,5.75140845 5.14489379,5.12992958 L5.14489379,4.74119718 C5.14489379,4.10915493 5.16737745,3.54084507 5.21339869,3.03661972 C5.23447712,2.69577465 5.24571895,2.42429577 5.24571895,2.22183099 C5.24571895,1.60387324 5.02404412,1.13239437 4.58139706,0.807394366 C4.13804739,0.482394366 3.49164216,0.320070423 2.64183007,0.320070423 C2.23747549,0.320070423 1.86122549,0.353169014 1.51237745,0.418661972 C1.16352941,0.484507042 0.804493464,0.590140845 0.435972222,0.73556338 L0.707181373,1.90211268 C1.07570261,1.65035211 1.39785131,1.46901408 1.67433007,1.35880282 C1.95080882,1.24894366 2.23080065,1.19366197 2.51395425,1.19366197 C3.2151634,1.19366197 3.56576797,1.51338028 3.56576797,2.15246479 C3.56576797,2.24859155 3.56260621,2.34859155 3.55558007,2.45352113 C3.54820261,2.55809859 3.5376634,2.68309859 3.5232598,2.82887324 L3.5232598,2.85035211 C3.34303922,2.70457746 3.16738562,2.6 2.99770425,2.53591549 C2.82767157,2.4721831 2.62848039,2.44014085 2.40223856,2.44014085 C2.09765523,2.44014085 1.81696078,2.50669014 1.55980392,2.63978873 C1.30299837,2.77288732 1.08167484,2.96021127 0.895833333,3.20176056 C0.70999183,3.44295775 0.564199346,3.72922535 0.460212418,4.05915493 C0.355522876,4.38978873 0.303178105,4.75 0.303178105,5.14084507 C0.303178105,5.58450704 0.367116013,5.99542254 0.494289216,6.37394366 C0.622165033,6.75211268 0.796764706,7.0778169 1.01773693,7.35105634 C1.23906046,7.62429577 1.50605392,7.83767606 1.81801471,7.99014085 C2.12962418,8.14295775 2.46933824,8.2193662 2.83785948,8.2193662 C3.15017157,8.2193662 3.41505719,8.18098592 3.63251634,8.10492958 C3.8506781,8.02852113 4.08324346,7.89612676 4.33161765,7.70809859 L4.83117647,8.09683099 Z" id="path98" fill="#099C4A" fill-rule="nonzero"></path>
                                    </g>
                                    <g id="g100" transform="translate(93.153001, 2.372993)">
                                        <path d="M4.91830065,4.92957746 C4.94640523,5.02535211 4.97029412,5.11690141 4.98996732,5.20387324 C5.00928922,5.29084507 5.02263889,5.37605634 5.02966503,5.45950704 C5.03669118,5.54295775 5.04055556,5.63626761 5.04055556,5.73908451 C5.04055556,5.81021127 5.03598856,5.88204225 5.02720588,5.95492958 C5.0180719,6.02746479 5.00296569,6.12464789 4.98188725,6.24507042 L6.00770425,6.24507042 C5.97924837,6.13873239 5.95606209,6.04542254 5.93849673,5.96549296 C5.92093137,5.88556338 5.90231209,5.81302817 5.88263889,5.7471831 C5.86296569,5.68133803 5.84294118,5.61830986 5.82151144,5.55809859 C5.80043301,5.49753521 5.7754902,5.43204225 5.74703431,5.36126761 C5.72244281,5.28978873 5.69679739,5.2278169 5.67009804,5.17429577 C5.64339869,5.12147887 5.61669935,5.06725352 5.59035131,5.01197183 C5.56400327,4.95704225 5.53379085,4.89647887 5.50006536,4.83098592 C5.46633987,4.76514085 5.42453431,4.68978873 5.37535131,4.60457746 L4.80658497,4.60457746 C4.85260621,4.72535211 4.88984477,4.83380282 4.91830065,4.92957746 Z M2.04847222,5.75528169 C2.02001634,5.38591549 1.99718137,5.05528169 1.97926471,4.76443662 C1.96169935,4.47323944 1.95291667,4.2584507 1.95291667,4.11971831 L1.95291667,1.90387324 C1.95291667,1.63767606 2.00877451,1.44260563 2.12013889,1.31795775 C2.23185458,1.19401408 2.41523693,1.13169014 2.67028595,1.13169014 C2.8438317,1.13169014 2.98821895,1.16619718 3.10344771,1.23556338 C3.21832516,1.30492958 3.34866013,1.43697183 3.49375,1.63239437 L3.49375,4.09859155 L3.49375,4.61021127 C3.49375,4.74823944 3.49058824,4.87816901 3.48321078,4.99859155 C3.47618464,5.1193662 3.4691585,5.23767606 3.46178105,5.3528169 C3.4547549,5.46830986 3.44421569,5.60246479 3.4301634,5.75528169 L5.25836601,5.75528169 C5.24396242,5.58802817 5.2334232,5.45950704 5.22639706,5.36901408 C5.21901961,5.27852113 5.20848039,5.17112676 5.1944281,5.04683099 C5.17334967,4.68450704 5.16245915,4.36478873 5.16245915,4.08767606 L5.16245915,1.8084507 C5.16245915,1.52394366 5.16808007,1.26584507 5.17861928,1.0334507 C5.1891585,0.800352113 5.20848039,0.528169014 5.23693627,0.215492958 L3.50464052,0.215492958 L3.50464052,0.737676056 C3.26013072,0.520774648 3.01632353,0.357746479 2.77392157,0.247535211 C2.5311683,0.137676056 2.27857843,0.0823943662 2.01650327,0.0823943662 C1.79658497,0.0823943662 1.57526144,0.120774648 1.35218137,0.197183099 C1.12910131,0.273239437 0.939395425,0.373591549 0.783415033,0.497887324 C0.609869281,0.636619718 0.485155229,0.814788732 0.408921569,1.0334507 C0.332687908,1.25176056 0.294746732,1.53450704 0.294746732,1.88274648 L0.294746732,4.09859155 L0.294746732,4.58873239 C0.294746732,4.7556338 0.287369281,4.91549296 0.273316993,5.06830986 C0.26629085,5.18521127 0.259264706,5.28732394 0.252238562,5.37429577 C0.244861111,5.46126761 0.234321895,5.58802817 0.220269608,5.75528169 L2.04847222,5.75528169 Z" id="path102" fill="#099C4A" fill-rule="nonzero"></path>
                                    </g>
                                    <g id="g104" transform="translate(99.682712, 2.282887)">
                                        <path d="M2.10784314,4.57746479 C1.96591503,4.25422535 1.89530229,3.75 1.89530229,3.06478873 C1.89530229,1.73309859 2.1889951,1.06725352 2.77708333,1.06725352 C3.35463235,1.06725352 3.64340686,1.73309859 3.64340686,3.06478873 C3.64340686,3.75 3.57349673,4.25422535 3.43332516,4.57746479 C3.2935049,4.90070423 3.07499183,5.06232394 2.77708333,5.06232394 C2.4725,5.06232394 2.24906863,4.90070423 2.10784314,4.57746479 Z M2.52730392,8.02922535 C2.60529412,7.84084507 2.66852941,7.69683099 2.71595588,7.59753521 C2.76408497,7.49823944 2.82310458,7.38485915 2.89406863,7.25669014 C2.9759232,7.10422535 3.05110294,6.97077465 3.11995915,6.85739437 C3.18916667,6.74330986 3.28718137,6.58556338 3.41505719,6.38309859 L2.68679739,6.38309859 L1.32618464,8.02922535 L2.52730392,8.02922535 Z M4.89230392,4.86514085 C5.00191176,4.68732394 5.09254902,4.49049296 5.16316176,4.27394366 C5.28366013,3.91161972 5.34408497,3.50880282 5.34408497,3.06478873 C5.34408497,2.62077465 5.28366013,2.21971831 5.16316176,1.86091549 C5.0426634,1.50246479 4.8719281,1.19683099 4.65060458,0.945070423 C4.42892974,0.692605634 4.16088235,0.499295775 3.8454085,0.364084507 C3.53028595,0.229225352 3.17230392,0.161971831 2.77216503,0.161971831 C2.37518791,0.161971831 2.01720588,0.229225352 1.69857026,0.364084507 C1.37958333,0.499295775 1.10767157,0.692605634 0.882834967,0.945070423 C0.657647059,1.19683099 0.485155229,1.50246479 0.364656863,1.86091549 C0.24380719,2.21971831 0.18373366,2.62077465 0.18373366,3.06478873 C0.18373366,3.50880282 0.24380719,3.91056338 0.364656863,4.27147887 C0.485155229,4.63169014 0.657647059,4.93697183 0.882834967,5.18732394 C1.10767157,5.43767606 1.37958333,5.63028169 1.69857026,5.76549296 C2.01720588,5.90035211 2.37518791,5.96760563 2.77216503,5.96760563 C3.17230392,5.96760563 3.53028595,5.90035211 3.8454085,5.76549296 C4.06497549,5.67288732 4.26170752,5.55246479 4.43525327,5.40316901 C4.44263072,5.4528169 4.44754902,5.50246479 4.4514134,5.55246479 C4.45808824,5.63380282 4.46195261,5.72640845 4.46195261,5.82922535 C4.46195261,5.90035211 4.45738562,5.9721831 4.44860294,6.04507042 C4.43982026,6.11760563 4.42471405,6.21443662 4.40328431,6.33521127 L5.42910131,6.33521127 C5.4045098,6.22852113 5.38202614,6.13556338 5.36270425,6.0556338 C5.34303105,5.97570423 5.32370915,5.90316901 5.30438725,5.83732394 C5.28471405,5.77147887 5.26504085,5.7084507 5.24607026,5.64823944 C5.22639706,5.58767606 5.20075163,5.5221831 5.16878268,5.45105634 C5.14419118,5.37992958 5.11889706,5.31795775 5.09430556,5.26443662 C5.06971405,5.21161972 5.0426634,5.15704225 5.01455882,5.10211268 C4.98610294,5.0471831 4.95589052,4.98767606 4.92427288,4.92359155 C4.91338235,4.90246479 4.90284314,4.88274648 4.89230392,4.86514085 Z" id="path106" fill="#099C4A" fill-rule="nonzero"></path>
                                    </g>
                                    <g id="g108" transform="translate(106.210738, 2.328627)">
                                        <path d="M0.35130719,1.05633803 C0.365710784,1.33873239 0.372736928,1.58626761 0.372736928,1.79929577 L0.372736928,4.29753521 L0.372736928,4.51584507 C0.372736928,4.60105634 0.369223856,4.70211268 0.361846405,4.81971831 C0.355171569,5.03978873 0.34498366,5.21619718 0.332687908,5.34929577 C0.320392157,5.48239437 0.307042484,5.62887324 0.292990196,5.78873239 L2.03617647,5.78873239 L2.03617647,1.81021127 C2.03617647,1.53309859 2.04144608,1.27464789 2.05198529,1.03485915 C2.06252451,0.795422535 2.07868464,0.533450704 2.10011438,0.249295775 L0.28245098,0.249295775 C0.314419935,0.50528169 0.337254902,0.773943662 0.35130719,1.05633803 M0.468292484,7.78626761 C0.641838235,7.91760563 0.925343137,7.9834507 1.31880719,7.9834507 C1.60231209,7.9834507 1.82328431,7.91443662 1.98312908,7.77570423 C2.14262255,7.63697183 2.22201797,7.44894366 2.22201797,7.21091549 C2.22201797,6.9056338 2.13700163,6.68732394 1.96696895,6.55598592 C1.79693627,6.42429577 1.50464869,6.35880282 1.09045752,6.35880282 C0.806601307,6.35880282 0.58879085,6.42992958 0.436323529,6.57183099 C0.284207516,6.71373239 0.207973856,6.91478873 0.207973856,7.17359155 C0.207973856,7.45070423 0.294746732,7.65492958 0.468292484,7.78626761" id="path110" fill="#099C4A" fill-rule="nonzero"></path>
                                    </g>
                                    <g id="g112" transform="translate(112.524641, 2.346514)">
                                        <path d="M2.45915033,8.09859155 L2.50727941,7.9334507 C2.57789216,7.66373239 2.63726307,7.425 2.68539216,7.21725352 C2.73281863,7.00915493 2.79570261,6.78309859 2.87404412,6.53802817 L4.14928922,2.51126761 L5.46739379,6.53802817 C5.54503268,6.78309859 5.62232026,7.04049296 5.69855392,7.31056338 C5.77478758,7.57992958 5.84294118,7.84295775 5.90301471,8.09859155 L7.15156046,8.09859155 C7.11642974,8.00985915 7.09183824,7.93978873 7.07743464,7.88802817 C7.06303105,7.83697183 7.04019608,7.77922535 7.00822712,7.71514085 C6.97309641,7.62640845 6.93550654,7.5278169 6.89686275,7.4193662 C6.85786765,7.31126761 6.81957516,7.20211268 6.78268791,7.09225352 C6.74509804,6.98169014 6.7089134,6.8778169 6.67343137,6.78028169 C6.63830065,6.68274648 6.60949346,6.60176056 6.58876634,6.53802817 L4.68046569,0.843661972 L4.88808824,0.231338028 L3.01737745,0.231338028 L0.928856209,6.53802817 C0.903913399,6.63028169 0.841732026,6.80774648 0.742663399,7.07077465 C0.661511438,7.29084507 0.589844771,7.47535211 0.527663399,7.62464789 C0.465482026,7.77359155 0.402598039,7.93169014 0.339011438,8.09859155 L2.45915033,8.09859155 Z" id="path114" fill="#099C4A"></path>
                                    </g>
                                    <g id="g116" transform="translate(119.707222, 2.328627)">
                                        <path d="M0.35130719,1.05633803 C0.365710784,1.33873239 0.372736928,1.58626761 0.372736928,1.79929577 L0.372736928,4.29753521 L0.372736928,4.51584507 C0.372736928,4.60105634 0.369223856,4.70211268 0.361846405,4.81971831 C0.355171569,5.03978873 0.34498366,5.21619718 0.332687908,5.34929577 C0.320392157,5.48239437 0.307042484,5.62887324 0.292990196,5.78873239 L2.03617647,5.78873239 L2.03617647,1.81021127 C2.03617647,1.53309859 2.04144608,1.27464789 2.05198529,1.03485915 C2.06252451,0.795422535 2.07868464,0.533450704 2.10011438,0.249295775 L0.28245098,0.249295775 C0.314419935,0.50528169 0.337254902,0.773943662 0.35130719,1.05633803 M0.468292484,7.78626761 C0.641838235,7.91760563 0.925343137,7.9834507 1.31880719,7.9834507 C1.60231209,7.9834507 1.82328431,7.91443662 1.98312908,7.77570423 C2.14262255,7.63697183 2.22201797,7.44894366 2.22201797,7.21091549 C2.22201797,6.9056338 2.13700163,6.68732394 1.96696895,6.55598592 C1.79693627,6.42429577 1.50464869,6.35880282 1.09045752,6.35880282 C0.806601307,6.35880282 0.58879085,6.42992958 0.436323529,6.57183099 C0.284207516,6.71373239 0.207973856,6.91478873 0.207973856,7.17359155 C0.207973856,7.45070423 0.294746732,7.65492958 0.468292484,7.78626761" id="path118" fill="#099C4A" fill-rule="nonzero"></path>
                                    </g>
                                    <g id="g120" transform="translate(123.222016, 0.221444)">
                                        <path d="M2.10784314,1.4084507 C2.24625817,1.53978873 2.44263889,1.6056338 2.69768791,1.6056338 C2.91374183,1.6056338 3.08904412,1.53591549 3.22394608,1.39788732 C3.35849673,1.25915493 3.42559641,1.08169014 3.42559641,0.865140845 C3.42559641,0.638028169 3.35498366,0.457746479 3.21305556,0.324295775 C3.07147876,0.191197183 2.88352941,0.124647887 2.64991013,0.124647887 C2.41945261,0.124647887 2.23712418,0.191197183 2.10222222,0.324295775 C1.96802288,0.457746479 1.9005719,0.638028169 1.9005719,0.865140845 C1.9005719,1.09577465 1.9694281,1.27711268 2.10784314,1.4084507 Z M1.69857026,5.47535211 C1.70208333,5.42359155 1.70735294,5.35880282 1.71473039,5.2806338 L3.05356209,5.82394366 C3.22745915,5.89119718 3.31423203,6.03732394 3.31423203,6.26056338 C3.31423203,6.50246479 3.24291667,6.71514085 3.10169118,6.9 C2.95976307,7.08450704 2.79148693,7.17711268 2.59686275,7.17711268 C2.32741013,7.17711268 2.10959967,7.03732394 1.94308007,6.75880282 C1.77656046,6.47992958 1.69330065,6.10985915 1.69330065,5.64823944 C1.69330065,5.58415493 1.69505719,5.52640845 1.69857026,5.47535211 Z M1.13788399,8.69753521 C1.20357843,8.77394366 1.26365196,8.84683099 1.31845588,8.91584507 C1.3732598,8.98556338 1.42419935,9.0528169 1.47022059,9.11830986 C1.51589052,9.18415493 1.56928922,9.25774648 1.62971405,9.33943662 C1.67222222,9.40352113 1.71086601,9.46091549 1.74634804,9.51267606 C1.78183007,9.56408451 1.82012255,9.61725352 1.86087418,9.67253521 C1.90127451,9.72746479 1.94097222,9.78873239 1.98031863,9.85598592 C2.01931373,9.92359155 2.06884804,10.0017606 2.12927288,10.090493 L2.95800654,10.090493 C3.05707516,9.90950704 3.13963235,9.77007042 3.2053268,9.67253521 C3.27102124,9.57464789 3.34760621,9.46373239 3.43613562,9.33943662 C3.48602124,9.25774648 3.53625817,9.18415493 3.58790033,9.11830986 C3.63883987,9.0528169 3.69153595,8.98556338 3.74458333,8.91584507 C3.79798203,8.84683099 3.85700163,8.77394366 3.92269608,8.69753521 C3.98839052,8.62112676 4.06883987,8.52992958 4.16439542,8.42359155 L3.21832516,8.42359155 L2.54346405,9.51021127 L1.85806373,8.42359155 L0.896184641,8.42359155 C0.991740196,8.52992958 1.07254085,8.62112676 1.13788399,8.69753521 Z M1.86860294,4.49260563 C1.97118464,4.06619718 2.14227124,3.73274648 2.38151144,3.49084507 C2.62075163,3.24964789 2.91022876,3.12887324 3.25029412,3.12887324 C3.71437092,3.12887324 4.13945261,3.35070423 4.52589052,3.7943662 L5.02544935,3.17676056 C4.94359477,3.08098592 4.87825163,3.01267606 4.82871732,2.97147887 C4.77918301,2.9306338 4.71735294,2.88204225 4.64287582,2.825 C4.10748366,2.43098592 3.48040033,2.23415493 2.76127451,2.23415493 C2.35375817,2.23415493 1.98348039,2.30316901 1.65079248,2.44190141 C1.31775327,2.58028169 1.03495098,2.7806338 0.803088235,3.04366197 C0.570874183,3.30633803 0.391004902,3.62147887 0.263831699,3.98908451 C0.13630719,4.35669014 0.072369281,4.7693662 0.072369281,5.22746479 C0.072369281,5.63943662 0.134550654,6.02042254 0.258210784,6.37007042 C0.382573529,6.71971831 0.556821895,7.01795775 0.782009804,7.26478873 C1.00684641,7.51161972 1.2752451,7.70422535 1.58720588,7.84260563 C1.89846405,7.98133803 2.24239379,8.05035211 2.61794118,8.05035211 C3.32301471,8.05035211 3.87632353,7.85246479 4.27892157,7.45669014 C4.68081699,7.06056338 4.91162582,6.48802817 4.97205065,5.73873239 L1.86860294,4.49260563 Z" id="path122" fill="#099C4A" fill-rule="nonzero"></path>
                                    </g>
                                    <g id="g124" transform="translate(129.054277, 2.131585)">
                                        <path d="M0,5.98591549 L0.83997549,5.98591549 L0.829084967,6.21478873 L0.829084967,6.56619718 C0.829084967,6.75492958 0.823815359,6.94401408 0.812924837,7.13380282 C0.802385621,7.32359155 0.788333333,7.5306338 0.770416667,7.75422535 L2.47109477,7.75422535 L2.47109477,5.98591549 L3.5183415,5.98591549 L3.5183415,5.13908451 L2.49252451,5.13908451 L2.49252451,2.02852113 C2.49252451,1.54190141 2.65869281,1.29823944 2.99208333,1.29823944 C3.10906863,1.29823944 3.21410948,1.31302817 3.3082598,1.34119718 C3.40205882,1.36971831 3.51096405,1.42464789 3.6353268,1.50633803 L3.6353268,0.499647887 C3.40135621,0.442957746 3.19232843,0.399295775 3.00824346,0.369014085 C2.82380719,0.339084507 2.62707516,0.323943662 2.41804739,0.323943662 C1.89389706,0.323943662 1.49973039,0.442957746 1.23589869,0.680985915 C0.971715686,0.918309859 0.83997549,1.26690141 0.83997549,1.72464789 L0.83997549,5.14964789 L9.36070393e-16,5.14964789 L0,5.98591549 Z" id="path126" fill="#099C4A"></path>
                                    </g>
                                </g>
                            </g>
                        </g>
                    </g>
                </g>
            </g>
        </g>
    </g>
</svg>